<svg width="56" height="57" viewBox="0 0 56 57" fill="none" xmlns="http://www.w3.org/2000/svg">
<mask id="mask0_2351_11189" style="mask-type:alpha" maskUnits="userSpaceOnUse" x="0" y="0" width="56" height="57">
<rect y="0.5" width="56" height="56" fill="#D9D9D9"/>
</mask>
<g mask="url(#mask0_2351_11189)">
<path d="M28.0002 36.609L30.0418 34.5673L25.4411 29.9666H36.4661V27.0347H25.4411L30.0418 22.434L28.0002 20.3923L19.8918 28.5007L28.0002 36.609ZM28.0042 50.6673C24.9542 50.6673 22.0828 50.0855 19.3902 48.922C16.6975 47.7584 14.3469 46.1729 12.3382 44.1655C10.33 42.1576 8.74375 39.808 7.57941 37.1165C6.41547 34.425 5.8335 31.5544 5.8335 28.5047C5.8335 25.4387 6.41527 22.5569 7.57883 19.8592C8.74238 17.1614 10.3279 14.8149 12.3353 12.8195C14.3432 10.8241 16.6928 9.24423 19.3843 8.0799C22.0758 6.91596 24.9464 6.33398 27.9961 6.33398C31.0621 6.33398 33.9439 6.91576 36.6417 8.07932C39.3394 9.24287 41.6859 10.822 43.6813 12.8166C45.6767 14.8112 47.2566 17.1568 48.4209 19.8533C49.5849 22.5499 50.1668 25.431 50.1668 28.4966C50.1668 31.5466 49.5851 34.418 48.4215 37.1107C47.2579 39.8033 45.6789 42.154 43.6842 44.1626C41.6896 46.1708 39.3441 47.7571 36.6475 48.9214C33.9509 50.0853 31.0699 50.6673 28.0042 50.6673ZM28.0002 47.7355C33.3587 47.7355 37.9042 45.8653 41.6367 42.125C45.3689 38.3847 47.235 33.8432 47.235 28.5007C47.235 23.1422 45.3689 18.5966 41.6367 14.8641C37.9042 11.1319 33.3587 9.26582 28.0002 9.26582C22.6576 9.26582 18.1162 11.1319 14.3758 14.8641C10.6355 18.5966 8.76533 23.1422 8.76533 28.5007C8.76533 33.8432 10.6355 38.3847 14.3758 42.125C18.1162 45.8653 22.6576 47.7355 28.0002 47.7355Z" fill="#333399"/>
</g>
</svg>
