<svg width="41" height="40" viewBox="0 0 41 40" fill="none" xmlns="http://www.w3.org/2000/svg">
<path d="M18.3029 27.0453L29.5254 15.8228L27.9717 14.2866L18.3029 23.9662L13.4292 19.0924L11.9033 20.6287L18.3029 27.0453ZM20.7333 35.8337C18.5547 35.8337 16.5038 35.4181 14.5804 34.587C12.6571 33.7559 10.9781 32.6234 9.54334 31.1895C8.1089 29.7553 6.97584 28.077 6.14418 26.1545C5.31279 24.232 4.89709 22.1816 4.89709 20.0032C4.89709 17.8132 5.31265 15.7548 6.14376 13.8278C6.97487 11.9009 8.10737 10.2248 9.54126 8.79949C10.9754 7.37421 12.6538 6.24574 14.5763 5.41408C16.4988 4.58269 18.5492 4.16699 20.7275 4.16699C22.9175 4.16699 24.976 4.58255 26.9029 5.41366C28.8299 6.24477 30.506 7.37269 31.9313 8.79741C33.3565 10.2221 34.485 11.8975 35.3167 13.8237C36.1481 15.7498 36.5638 17.8077 36.5638 19.9974C36.5638 22.176 36.1482 24.227 35.3171 26.1503C34.486 28.0737 33.3581 29.7527 31.9333 31.1874C30.5086 32.6219 28.8332 33.7549 26.9071 34.5866C24.981 35.418 22.9231 35.8337 20.7333 35.8337Z" fill="#00842D"/>
</svg>
