<svg width="107" height="107" viewBox="0 0 107 107" fill="none" xmlns="http://www.w3.org/2000/svg">
<g filter="url(#filter0_d_2351_11537)">
<path fill-rule="evenodd" clip-rule="evenodd" d="M74.1528 49.957C74.152 43.5669 71.2633 37.867 66.7134 34.0584C63.6456 31.4763 59.8364 29.789 55.6182 29.3544C54.9024 29.2777 54.161 29.2266 53.3941 29.2266C41.9419 29.2266 32.6624 38.5052 32.6609 49.957H32.6769C32.6769 61.4101 41.957 70.6902 53.41 70.6902C64.8631 70.6902 74.1432 61.4101 74.1432 49.957H74.1528ZM6.30347 49.957C6.30494 23.9587 27.3954 2.86914 53.4196 2.86914C57.7731 2.86914 75.578 3.76967 86.9353 16.9043C94.7503 25.9423 100.509 37.0735 100.51 49.957H100.552V57.7799L94.5185 59.9274L89.6867 71.6105L92.4477 77.3882L81.0457 88.7646L75.2681 86.0036L63.5849 90.8354L61.4374 96.8687H45.3827L43.2352 90.8354L31.552 86.0036L25.7488 88.7646L14.398 77.4138L17.1334 71.6105L12.3016 59.9274L6.26831 57.7799V49.957H6.30347Z" fill="#CC3333"/>
<path d="M74.1528 49.957V51.957H76.1531L76.1528 49.9568L74.1528 49.957ZM66.7134 34.0584L65.4255 35.5885L65.4296 35.592L66.7134 34.0584ZM55.6182 29.3544L55.4052 31.343L55.4132 31.3439L55.6182 29.3544ZM32.6609 49.957L30.6609 49.9568L30.6607 51.957H32.6609V49.957ZM32.6769 49.957H34.6769V47.957H32.6769V49.957ZM74.1432 49.957V47.957H72.1432V49.957H74.1432ZM6.30347 49.957V51.957H8.30335L8.30347 49.9571L6.30347 49.957ZM86.9353 16.9043L85.4224 18.2124L86.9353 16.9043ZM100.51 49.957L98.5102 49.9572L98.5104 51.957H100.51V49.957ZM100.552 49.957H102.552V47.957H100.552V49.957ZM100.552 57.7799L101.222 59.6641L102.552 59.1909V57.7799H100.552ZM94.5185 59.9274L93.8478 58.0432L93.0101 58.3413L92.6703 59.163L94.5185 59.9274ZM89.6867 71.6105L87.8385 70.8462L87.4981 71.6692L87.8821 72.4729L89.6867 71.6105ZM92.4477 77.3882L93.8603 78.804L94.8629 77.8037L94.2522 76.5259L92.4477 77.3882ZM81.0457 88.7646L80.1834 90.5691L81.4582 91.1783L82.4584 90.1804L81.0457 88.7646ZM75.2681 86.0036L76.1304 84.1991L75.3268 83.815L74.5037 84.1554L75.2681 86.0036ZM63.5849 90.8354L62.8205 88.9872L61.9989 89.327L61.7007 90.1647L63.5849 90.8354ZM61.4374 96.8687V98.8687H62.8485L63.3216 97.5393L61.4374 96.8687ZM45.3827 96.8687L43.4985 97.5393L43.9716 98.8687H45.3827V96.8687ZM43.2352 90.8354L45.1194 90.1647L44.8212 89.327L43.9995 88.9872L43.2352 90.8354ZM31.552 86.0036L32.3164 84.1554L31.4952 83.8158L30.6928 84.1976L31.552 86.0036ZM25.7488 88.7646L24.3346 90.1788L25.333 91.1772L26.608 90.5706L25.7488 88.7646ZM14.398 77.4138L12.5889 76.561L11.9891 77.8334L12.9837 78.828L14.398 77.4138ZM17.1334 71.6105L18.9425 72.4633L19.3195 71.6634L18.9816 70.8462L17.1334 71.6105ZM12.3016 59.9274L14.1498 59.163L13.81 58.3413L12.9723 58.0432L12.3016 59.9274ZM6.26831 57.7799H4.26831V59.1909L5.59766 59.6641L6.26831 57.7799ZM6.26831 49.957V47.957H4.26831V49.957H6.26831ZM76.1528 49.9568C76.1519 42.9483 72.9803 36.6961 67.9972 32.5247L65.4296 35.592C69.5463 39.0379 72.1521 44.1855 72.1528 49.9573L76.1528 49.9568ZM68.0013 32.5282C64.6352 29.6951 60.4511 27.8418 55.8232 27.3649L55.4132 31.3439C59.2217 31.7363 62.656 33.2575 65.4255 35.5885L68.0013 32.5282ZM55.8313 27.3658C55.0642 27.2836 54.2494 27.2266 53.3941 27.2266V31.2266C54.0726 31.2266 54.7406 31.2718 55.4052 31.343L55.8313 27.3658ZM53.3941 27.2266C40.8374 27.2266 30.6625 37.4005 30.6609 49.9568L34.6609 49.9573C34.6622 39.6099 43.0464 31.2266 53.3941 31.2266V27.2266ZM32.6609 51.957H32.6769V47.957H32.6609V51.957ZM30.6769 49.957C30.6769 62.5147 40.8524 72.6902 53.41 72.6902V68.6902C43.0615 68.6902 34.6769 60.3056 34.6769 49.957H30.6769ZM53.41 72.6902C65.9677 72.6902 76.1432 62.5147 76.1432 49.957H72.1432C72.1432 60.3056 63.7586 68.6902 53.41 68.6902V72.6902ZM74.1432 51.957H74.1528V47.957H74.1432V51.957ZM8.30347 49.9571C8.30487 25.0641 28.4993 4.86914 53.4196 4.86914V0.869141C26.2916 0.869141 4.305 22.8534 4.30347 49.9569L8.30347 49.9571ZM53.4196 4.86914C57.686 4.86914 74.679 5.78783 85.4224 18.2124L88.4481 15.5961C76.4769 1.7515 57.8602 0.869141 53.4196 0.869141V4.86914ZM85.4224 18.2124C93.0352 27.0166 98.5095 37.7012 98.5102 49.9572L102.51 49.9569C102.509 36.4458 96.4654 24.8681 88.4481 15.5961L85.4224 18.2124ZM100.51 51.957H100.552V47.957H100.51V51.957ZM98.5518 49.957V57.7799H102.552V49.957H98.5518ZM99.8811 55.8957L93.8478 58.0432L95.1891 61.8116L101.222 59.6641L99.8811 55.8957ZM92.6703 59.163L87.8385 70.8462L91.5349 72.3749L96.3666 60.6917L92.6703 59.163ZM87.8821 72.4729L90.6432 78.2505L94.2522 76.5259L91.4912 70.7482L87.8821 72.4729ZM91.0351 75.9724L79.6331 87.3488L82.4584 90.1804L93.8603 78.804L91.0351 75.9724ZM81.9081 86.9601L76.1304 84.1991L74.4057 87.8081L80.1834 90.5691L81.9081 86.9601ZM74.5037 84.1554L62.8205 88.9872L64.3492 92.6835L76.0324 87.8518L74.5037 84.1554ZM61.7007 90.1647L59.5532 96.198L63.3216 97.5393L65.4691 91.506L61.7007 90.1647ZM61.4374 94.8687H45.3827V98.8687H61.4374V94.8687ZM47.2669 96.198L45.1194 90.1647L41.351 91.506L43.4985 97.5393L47.2669 96.198ZM43.9995 88.9872L32.3164 84.1554L30.7877 87.8518L42.4709 92.6835L43.9995 88.9872ZM30.6928 84.1976L24.8895 86.9586L26.608 90.5706L32.4113 87.8096L30.6928 84.1976ZM27.163 87.3504L15.8122 75.9996L12.9837 78.828L24.3346 90.1788L27.163 87.3504ZM16.2071 78.2665L18.9425 72.4633L15.3243 70.7578L12.5889 76.561L16.2071 78.2665ZM18.9816 70.8462L14.1498 59.163L10.4535 60.6917L15.2852 72.3749L18.9816 70.8462ZM12.9723 58.0432L6.93896 55.8957L5.59766 59.6641L11.631 61.8116L12.9723 58.0432ZM8.26831 57.7799V49.957H4.26831V57.7799H8.26831ZM6.26831 51.957H6.30347V47.957H6.26831V51.957Z" fill="white"/>
</g>
<path d="M54.0519 29.6908V4.64258L48.2778 5.05256C39.7863 5.65549 31.7253 9.02025 25.325 14.6333L21.3136 18.1514L39.4385 35.7232L54.0519 29.6908Z" fill="#333399"/>
<path d="M38.679 32.2866L37.8177 33.1869V31.9409V14.7344V13.5599L38.6643 14.374L38.3177 14.7344C38.6643 14.374 38.6643 14.374 38.6643 14.374L38.6646 14.3743L38.6655 14.3752L38.6692 14.3787L38.6841 14.393L38.7428 14.4494L38.9709 14.6683C39.1702 14.8596 39.4614 15.1387 39.8289 15.4903C40.5639 16.1934 41.604 17.1862 42.824 18.3449C45.2645 20.6625 48.4239 23.6422 51.3024 26.2937L52.2444 27.1614H50.9636C49.2503 27.1614 46.7913 27.7933 44.4246 28.7717C42.0562 29.7507 39.8732 31.0382 38.679 32.2866Z" fill="white" stroke="white"/>
<g filter="url(#filter1_d_2351_11537)">
<path d="M20.4441 16.6738L37.226 33.4302" stroke="white" stroke-width="5" stroke-miterlimit="10" stroke-linejoin="bevel"/>
</g>
<g filter="url(#filter2_d_2351_11537)">
<path d="M86.8152 17.0762L70.0333 33.8325" stroke="white" stroke-width="5" stroke-miterlimit="10" stroke-linejoin="bevel"/>
</g>
<g filter="url(#filter3_d_2351_11537)">
<path d="M52.8816 4.04688L52.8635 27.762" stroke="white" stroke-width="5" stroke-miterlimit="10" stroke-linejoin="bevel"/>
</g>
<g filter="url(#filter4_d_2351_11537)">
<path d="M32.9246 50.3027L8.24177 50.3027" stroke="white" stroke-width="5" stroke-miterlimit="10" stroke-linejoin="bevel"/>
</g>
<g filter="url(#filter5_d_2351_11537)">
<path d="M98.647 50.2852L74.091 50.2848" stroke="white" stroke-width="5" stroke-miterlimit="10" stroke-linejoin="bevel"/>
</g>
<g filter="url(#filter6_d_2351_11537)">
<path d="M77.0437 49.8838C77.0437 62.9166 66.4837 73.4766 53.4509 73.4766C40.4182 73.4766 29.8582 62.9166 29.8582 49.8838C29.8582 36.851 40.4182 26.291 53.4509 26.291C54.2946 26.291 55.1382 26.3492 55.9819 26.4365C60.7528 26.931 65.1164 28.8801 68.6073 31.7892C73.7564 36.1238 77.0437 42.6401 77.0437 49.8838Z" fill="white"/>
</g>
<path d="M55.9423 62.8848L46.2284 52.7737V49.8848H51.2839C52.5599 49.8848 53.6612 49.4695 54.5881 48.6389C55.515 47.8084 56.0747 46.7792 56.2673 45.5514H44.7839V42.6625H55.8339C55.4247 41.82 54.8168 41.1278 54.0103 40.5862C53.2038 40.0445 52.295 39.7737 51.2839 39.7737H44.7839V36.8848H62.1173V39.7737H57.4228C57.7599 40.1829 58.0608 40.6283 58.3256 41.1098C58.5904 41.5912 58.795 42.1088 58.9395 42.6625H62.1173V45.5514H59.1923C58.9997 47.5977 58.1571 49.313 56.6645 50.6973C55.1719 52.0815 53.3784 52.7737 51.2839 52.7737H50.2367L59.9506 62.8848H55.9423Z" fill="#CC3333" stroke="#CC3333"/>
<defs>
<filter id="filter0_d_2351_11537" x="0.268311" y="0.869141" width="106.283" height="106" filterUnits="userSpaceOnUse" color-interpolation-filters="sRGB">
<feFlood flood-opacity="0" result="BackgroundImageFix"/>
<feColorMatrix in="SourceAlpha" type="matrix" values="0 0 0 0 0 0 0 0 0 0 0 0 0 0 0 0 0 0 127 0" result="hardAlpha"/>
<feOffset dy="4"/>
<feGaussianBlur stdDeviation="2"/>
<feComposite in2="hardAlpha" operator="out"/>
<feColorMatrix type="matrix" values="0 0 0 0 0 0 0 0 0 0 0 0 0 0 0 0 0 0 0.25 0"/>
<feBlend mode="normal" in2="BackgroundImageFix" result="effect1_dropShadow_2351_11537"/>
<feBlend mode="normal" in="SourceGraphic" in2="effect1_dropShadow_2351_11537" result="shape"/>
</filter>
<filter id="filter1_d_2351_11537" x="16.6777" y="14.9043" width="24.3147" height="26.2949" filterUnits="userSpaceOnUse" color-interpolation-filters="sRGB">
<feFlood flood-opacity="0" result="BackgroundImageFix"/>
<feColorMatrix in="SourceAlpha" type="matrix" values="0 0 0 0 0 0 0 0 0 0 0 0 0 0 0 0 0 0 127 0" result="hardAlpha"/>
<feOffset dy="4"/>
<feGaussianBlur stdDeviation="1"/>
<feComposite in2="hardAlpha" operator="out"/>
<feColorMatrix type="matrix" values="0 0 0 0 0 0 0 0 0 0 0 0 0 0 0 0 0 0 0.3 0"/>
<feBlend mode="normal" in2="BackgroundImageFix" result="effect1_dropShadow_2351_11537"/>
<feBlend mode="normal" in="SourceGraphic" in2="effect1_dropShadow_2351_11537" result="shape"/>
</filter>
<filter id="filter2_d_2351_11537" x="66.2668" y="15.3066" width="24.3148" height="26.2949" filterUnits="userSpaceOnUse" color-interpolation-filters="sRGB">
<feFlood flood-opacity="0" result="BackgroundImageFix"/>
<feColorMatrix in="SourceAlpha" type="matrix" values="0 0 0 0 0 0 0 0 0 0 0 0 0 0 0 0 0 0 127 0" result="hardAlpha"/>
<feOffset dy="4"/>
<feGaussianBlur stdDeviation="1"/>
<feComposite in2="hardAlpha" operator="out"/>
<feColorMatrix type="matrix" values="0 0 0 0 0 0 0 0 0 0 0 0 0 0 0 0 0 0 0.3 0"/>
<feBlend mode="normal" in2="BackgroundImageFix" result="effect1_dropShadow_2351_11537"/>
<feBlend mode="normal" in="SourceGraphic" in2="effect1_dropShadow_2351_11537" result="shape"/>
</filter>
<filter id="filter3_d_2351_11537" x="48.3635" y="4.04492" width="9.01807" height="29.7188" filterUnits="userSpaceOnUse" color-interpolation-filters="sRGB">
<feFlood flood-opacity="0" result="BackgroundImageFix"/>
<feColorMatrix in="SourceAlpha" type="matrix" values="0 0 0 0 0 0 0 0 0 0 0 0 0 0 0 0 0 0 127 0" result="hardAlpha"/>
<feOffset dy="4"/>
<feGaussianBlur stdDeviation="1"/>
<feComposite in2="hardAlpha" operator="out"/>
<feColorMatrix type="matrix" values="0 0 0 0 0 0 0 0 0 0 0 0 0 0 0 0 0 0 0.3 0"/>
<feBlend mode="normal" in2="BackgroundImageFix" result="effect1_dropShadow_2351_11537"/>
<feBlend mode="normal" in="SourceGraphic" in2="effect1_dropShadow_2351_11537" result="shape"/>
</filter>
<filter id="filter4_d_2351_11537" x="6.2417" y="47.8027" width="28.6829" height="10" filterUnits="userSpaceOnUse" color-interpolation-filters="sRGB">
<feFlood flood-opacity="0" result="BackgroundImageFix"/>
<feColorMatrix in="SourceAlpha" type="matrix" values="0 0 0 0 0 0 0 0 0 0 0 0 0 0 0 0 0 0 127 0" result="hardAlpha"/>
<feOffset dy="3"/>
<feGaussianBlur stdDeviation="1"/>
<feComposite in2="hardAlpha" operator="out"/>
<feColorMatrix type="matrix" values="0 0 0 0 0 0 0 0 0 0 0 0 0 0 0 0 0 0 0.25 0"/>
<feBlend mode="normal" in2="BackgroundImageFix" result="effect1_dropShadow_2351_11537"/>
<feBlend mode="normal" in="SourceGraphic" in2="effect1_dropShadow_2351_11537" result="shape"/>
</filter>
<filter id="filter5_d_2351_11537" x="72.0909" y="47.7852" width="28.556" height="10" filterUnits="userSpaceOnUse" color-interpolation-filters="sRGB">
<feFlood flood-opacity="0" result="BackgroundImageFix"/>
<feColorMatrix in="SourceAlpha" type="matrix" values="0 0 0 0 0 0 0 0 0 0 0 0 0 0 0 0 0 0 127 0" result="hardAlpha"/>
<feOffset dy="3"/>
<feGaussianBlur stdDeviation="1"/>
<feComposite in2="hardAlpha" operator="out"/>
<feColorMatrix type="matrix" values="0 0 0 0 0 0 0 0 0 0 0 0 0 0 0 0 0 0 0.25 0"/>
<feBlend mode="normal" in2="BackgroundImageFix" result="effect1_dropShadow_2351_11537"/>
<feBlend mode="normal" in="SourceGraphic" in2="effect1_dropShadow_2351_11537" result="shape"/>
</filter>
<filter id="filter6_d_2351_11537" x="27.8582" y="26.291" width="51.1855" height="53.1855" filterUnits="userSpaceOnUse" color-interpolation-filters="sRGB">
<feFlood flood-opacity="0" result="BackgroundImageFix"/>
<feColorMatrix in="SourceAlpha" type="matrix" values="0 0 0 0 0 0 0 0 0 0 0 0 0 0 0 0 0 0 127 0" result="hardAlpha"/>
<feOffset dy="4"/>
<feGaussianBlur stdDeviation="1"/>
<feComposite in2="hardAlpha" operator="out"/>
<feColorMatrix type="matrix" values="0 0 0 0 0 0 0 0 0 0 0 0 0 0 0 0 0 0 0.3 0"/>
<feBlend mode="normal" in2="BackgroundImageFix" result="effect1_dropShadow_2351_11537"/>
<feBlend mode="normal" in="SourceGraphic" in2="effect1_dropShadow_2351_11537" result="shape"/>
</filter>
</defs>
</svg>
