<svg width="25" height="25" viewBox="0 0 25 25" fill="none" xmlns="http://www.w3.org/2000/svg">
<mask id="mask0_2946_1320" style="mask-type:alpha" maskUnits="userSpaceOnUse" x="0" y="0" width="25" height="25">
<rect x="0.695312" y="0.5" width="24" height="24" fill="#D9D9D9"/>
</mask>
<g mask="url(#mask0_2946_1320)">
<path d="M5.00306 20C4.4979 20 4.07031 19.825 3.72031 19.475C3.37031 19.125 3.19531 18.6974 3.19531 18.1923V6.80775C3.19531 6.30258 3.37031 5.875 3.72031 5.525C4.07031 5.175 4.4979 5 5.00306 5H20.3876C20.8927 5 21.3203 5.175 21.6703 5.525C22.0203 5.875 22.1953 6.30258 22.1953 6.80775V18.1923C22.1953 18.6974 22.0203 19.125 21.6703 19.475C21.3203 19.825 20.8927 20 20.3876 20H5.00306ZM12.6953 13.0577L4.69531 7.94225V18.1923C4.69531 18.2821 4.72415 18.3558 4.78181 18.4135C4.83948 18.4712 4.91323 18.5 5.00306 18.5H20.3876C20.4774 18.5 20.5511 18.4712 20.6088 18.4135C20.6665 18.3558 20.6953 18.2821 20.6953 18.1923V7.94225L12.6953 13.0577ZM12.6953 11.5L20.5416 6.5H4.84906L12.6953 11.5ZM4.69531 7.94225V6.5V18.1923C4.69531 18.2821 4.72415 18.3558 4.78181 18.4135C4.83948 18.4712 4.91323 18.5 5.00306 18.5H4.69531V7.94225Z" fill="#1C1B1F"/>
</g>
</svg>
