<svg width="512" height="512" viewBox="0 0 512 512" fill="none" xmlns="http://www.w3.org/2000/svg">
<path d="M115.872 169.959C121.113 169.882 126.317 170.731 131.163 172.452C136.009 174.173 140.393 176.73 144.046 179.967C147.816 183.106 150.797 186.878 152.802 191.05C154.808 195.222 155.796 199.705 155.705 204.219C155.788 208.737 154.797 213.221 152.792 217.397C150.787 221.572 147.811 225.351 144.046 228.499C140.406 231.753 136.025 234.327 131.177 236.058C126.33 237.79 121.119 238.642 115.872 238.563H56.3815V281.214H26.4258V185.124L17.6172 169.959H115.872ZM115.872 212.693C117.159 212.719 118.439 212.511 119.627 212.083C120.815 211.656 121.886 211.019 122.77 210.212C123.678 209.424 124.395 208.489 124.879 207.46C125.362 206.431 125.603 205.329 125.587 204.219C125.587 202.001 124.564 199.874 122.742 198.305C120.92 196.737 118.449 195.856 115.872 195.856H56.3815V212.582L115.872 212.693Z" fill="#314698"/>
<path d="M196.363 195.855C195.074 195.841 193.794 196.048 192.598 196.465C191.403 196.881 190.316 197.498 189.4 198.28C188.494 199.055 187.781 199.981 187.308 201.003C186.834 202.024 186.61 203.118 186.648 204.218C186.648 206.436 187.671 208.563 189.493 210.131C191.315 211.699 193.786 212.581 196.363 212.581H245.911C251.152 212.566 256.344 213.442 261.19 215.159C266.036 216.876 270.44 219.4 274.15 222.585C277.86 225.771 280.803 229.556 282.809 233.723C284.815 237.891 285.846 242.358 285.842 246.869C285.876 251.392 284.872 255.876 282.889 260.065C280.906 264.253 277.982 268.064 274.284 271.278C270.586 274.492 266.188 277.046 261.342 278.794C256.495 280.541 251.296 281.449 246.041 281.463H156.692L186.648 255.454H246.041C248.618 255.454 251.089 254.573 252.911 253.005C254.733 251.437 255.756 249.31 255.756 247.092C255.778 245.984 255.533 244.885 255.037 243.863C254.541 242.841 253.804 241.919 252.874 241.154C251.961 240.367 250.875 239.745 249.68 239.324C248.484 238.902 247.203 238.691 245.911 238.701H196.363C191.125 238.747 185.933 237.865 181.108 236.11C176.283 234.355 171.93 231.764 168.318 228.498C164.56 225.341 161.59 221.556 159.591 217.377C157.592 213.197 156.606 208.709 156.692 204.19C156.603 199.678 157.588 195.199 159.588 191.027C161.588 186.856 164.559 183.082 168.318 179.937C171.959 176.72 176.324 174.176 181.146 172.46C185.968 170.744 191.146 169.892 196.363 169.958H285.971L255.886 195.855H196.363Z" fill="#314698"/>
<path d="M435.502 234.07L460.082 169.954H497L454.447 281.237H416.524L391.912 216.424L367.073 281.237H329.378L286.792 169.954H323.581L348.161 234.07L372.708 169.954H410.954L435.502 234.07Z" fill="#314698"/>
<path d="M397.913 284.249C388.586 289.407 345.871 313.994 297.748 319.875C328.709 314.931 357.428 302.585 380.62 284.249H329.29C282.462 330.524 -42.4195 368.631 26.0737 268.332C-54.2075 371.057 323.914 356.867 455.428 284.249H397.913Z" fill="#DA3A33"/>
</svg>
