<svg width="32" height="33" viewBox="0 0 32 33" fill="none" xmlns="http://www.w3.org/2000/svg">
<path d="M28.1184 30.1004C25.0107 30.1004 21.9158 29.4085 18.8336 28.0248C15.7518 26.6413 12.9339 24.6727 10.38 22.1188C7.83657 19.5649 5.87044 16.746 4.48164 13.662C3.09284 10.578 2.39844 7.48412 2.39844 4.38039V2.90039H10.6692L12.0876 10.1864L7.65084 14.4944C8.30924 15.6472 9.01377 16.7184 9.76444 17.708C10.5154 18.6979 11.3092 19.6031 12.146 20.4236C12.9604 21.2585 13.8662 22.0472 14.8632 22.7896C15.86 23.5323 16.9687 24.2461 18.1892 24.9312L22.5984 20.4452L29.5984 21.8696V30.1004H28.1184ZM6.51524 12.2236L9.50924 9.36799L8.70604 5.30039H4.82324C4.9051 6.51052 5.0871 7.68852 5.36924 8.83439C5.65137 9.97999 6.03337 11.1097 6.51524 12.2236ZM20.4352 26.0512C21.4608 26.5251 22.5547 26.8979 23.7168 27.1696C24.879 27.4413 26.0395 27.6019 27.1984 27.6512V23.808L23.4076 23.048L20.4352 26.0512Z" fill="#333399"/>
</svg>
