<svg width="32" height="33" viewBox="0 0 32 33" fill="none" xmlns="http://www.w3.org/2000/svg">
<path d="M22.359 19.1232C22.0854 18.9928 20.3066 18.2108 20.033 18.0804C19.7594 17.9501 19.4857 17.9501 19.2121 18.2108C18.9384 18.4715 18.3911 19.2535 18.1175 19.5142C17.9807 19.7749 17.707 19.7749 17.4334 19.6446C16.4756 19.2535 15.5178 18.7322 14.6969 18.0804C14.0128 17.4287 13.3287 16.6466 12.7814 15.8646C12.6446 15.6039 12.7814 15.3432 12.9182 15.2128C13.055 15.0825 13.1918 14.8218 13.4655 14.6915C13.6023 14.5611 13.7391 14.3004 13.7391 14.1701C13.876 14.0397 13.876 13.7791 13.7391 13.6487C13.6023 13.5184 12.9182 11.9542 12.6446 11.3025C12.5077 10.3901 12.2341 10.3901 11.9604 10.3901H11.2763C11.0027 10.3901 10.5922 10.6508 10.4554 10.7811C9.63444 11.5632 9.22397 12.4756 9.22397 13.5184C9.36079 14.6915 9.77126 15.8646 10.5922 16.9073C12.0973 18.9928 14.0128 20.6873 16.3388 21.7301C17.0229 21.9908 17.5702 22.2515 18.2543 22.3818C18.9384 22.6425 19.6225 22.6425 20.4435 22.5122C21.4012 22.3818 22.2222 21.7301 22.7695 20.948C23.0431 20.4266 23.0431 19.9053 22.9063 19.3839L22.359 19.1232ZM25.7796 7.26181C20.4435 2.17836 11.8236 2.17836 6.48751 7.26181C2.10917 11.4328 1.28823 17.8197 4.29834 22.9032L2.38281 29.5508L9.63444 27.726C11.6868 28.7687 13.876 29.2901 16.0651 29.2901C23.5904 29.2901 29.6106 23.5549 29.6106 16.3859C29.7474 12.997 28.2424 9.73836 25.7796 7.26181ZM22.0854 25.5101C20.3066 26.5528 18.2543 27.2046 16.0651 27.2046C14.0128 27.2046 12.0973 26.6832 10.3186 25.7708L9.90809 25.5101L5.66657 26.5528L6.76115 22.6425L6.48751 22.2515C3.20375 17.0377 4.84563 10.5204 10.1817 7.26181C15.5178 4.00318 22.359 5.69767 25.6428 10.6508C28.9265 15.7342 27.4215 22.3818 22.0854 25.5101Z" fill="#333399"/>
</svg>
