<svg width="171" height="61" viewBox="0 0 171 61" fill="none" xmlns="http://www.w3.org/2000/svg">
<path d="M36.2402 0.263399C38.0821 0.236425 39.9108 0.534561 41.6137 1.13942C43.3166 1.74428 44.8574 2.64303 46.1412 3.78024C47.466 4.88341 48.5133 6.20919 49.2181 7.67529C49.9228 9.14139 50.27 10.7165 50.2382 12.3029C50.2676 13.8905 49.9193 15.4665 49.2147 16.9339C48.5101 18.4013 47.4641 19.729 46.1412 20.8355C44.8618 21.979 43.3223 22.8833 41.6188 23.4918C39.9153 24.1002 38.0843 24.3998 36.2402 24.3719H15.3343V39.3601H4.8074V5.59254L1.71191 0.263399H36.2402ZM36.2402 15.281C36.6926 15.2899 37.1422 15.2168 37.5598 15.0666C37.9773 14.9164 38.3536 14.6924 38.6642 14.4091C38.9834 14.1322 39.2353 13.8033 39.4053 13.4417C39.5753 13.0801 39.6599 12.693 39.6543 12.3029C39.6543 11.5235 39.2946 10.776 38.6544 10.2249C38.0141 9.67371 37.1457 9.36408 36.2402 9.36408H15.3343V15.2418L36.2402 15.281Z" fill="#314698"/>
<path d="M64.5309 9.36362C64.0778 9.35879 63.628 9.43166 63.2079 9.57799C62.7879 9.72431 62.4058 9.94116 62.0841 10.2159C61.7654 10.4881 61.5151 10.8138 61.3487 11.1727C61.1823 11.5317 61.1034 11.9162 61.1168 12.3025C61.1168 13.0819 61.4765 13.8294 62.1167 14.3806C62.757 14.9317 63.6254 15.2414 64.5309 15.2414H81.943C83.7845 15.2362 85.6091 15.5441 87.312 16.1475C89.0149 16.7508 90.5627 17.6377 91.8664 18.7572C93.1702 19.8768 94.2043 21.2069 94.9093 22.6713C95.6144 24.1357 95.9766 25.7055 95.9751 27.2907C95.9871 28.8802 95.6345 30.4561 94.9375 31.928C94.2405 33.4 93.2129 34.7391 91.9136 35.8685C90.6142 36.9979 89.0686 37.8954 87.3655 38.5097C85.6623 39.1239 83.8351 39.4427 81.9885 39.4478H50.5898L61.1168 30.3079H81.9885C82.894 30.3079 83.7624 29.9983 84.4027 29.4472C85.0429 28.896 85.4026 28.1485 85.4026 27.3691C85.4101 26.9799 85.324 26.5937 85.1497 26.2346C84.9754 25.8755 84.7167 25.5513 84.3898 25.2825C84.069 25.006 83.6874 24.7873 83.2673 24.6393C82.8471 24.4913 82.3969 24.4169 81.943 24.4204H64.5309C62.6903 24.4366 60.8655 24.1267 59.17 23.5099C57.4745 22.8931 55.9446 21.9826 54.6754 20.835C53.3547 19.7255 52.3112 18.3956 51.6086 16.9267C50.9061 15.4579 50.5594 13.881 50.5898 12.2927C50.5585 10.7072 50.9049 9.13303 51.6075 7.66722C52.3102 6.20141 53.3543 4.87506 54.6754 3.76998C55.9549 2.63938 57.4888 1.74526 59.1833 1.14226C60.8779 0.539264 62.6975 0.24006 64.5309 0.262938H96.0206L85.4482 9.36362H64.5309Z" fill="#314698"/>
<path d="M148.584 22.793L157.222 0.261719H170.196L155.242 39.3682H141.915L133.266 16.592L124.537 39.3682H111.29L96.3252 0.261719H109.253L117.891 22.793L126.518 0.261719H139.958L148.584 22.793Z" fill="#314698"/>
<path d="M5.17871 48.2656V42.0156H6.11191V48.2656H5.17871Z" fill="#314698"/>
<path d="M10.4468 43.3672C10.6916 43.3695 10.9267 43.4497 11.1068 43.5925C11.3284 43.785 11.4856 44.0252 11.5621 44.288C11.6886 44.6767 11.7461 45.0797 11.7328 45.4832V48.2653H10.8337V45.7085C10.8537 45.4169 10.7952 45.1252 10.663 44.8562C10.6239 44.7769 10.5591 44.7088 10.4764 44.6602C10.3937 44.6116 10.2965 44.5844 10.1964 44.5819C10.0556 44.5852 9.92142 44.6342 9.82085 44.7191C9.69044 44.8377 9.59654 44.9825 9.54772 45.1403C9.4824 45.3811 9.45182 45.6278 9.45667 45.875V48.2653H8.55762V43.4554H9.41115V44.7778L9.25182 44.3468C9.33988 44.0723 9.50388 43.8202 9.7298 43.6121C9.92324 43.454 10.1801 43.3663 10.4468 43.3672Z" fill="#314698"/>
<path d="M13.7236 44.6287V43.5609H15.8745V44.6287H13.7236ZM14.2016 48.2631V43.365C14.1603 42.9155 14.2503 42.4642 14.4634 42.0523C14.5432 41.9081 14.6691 41.7863 14.8262 41.7014C14.9834 41.6164 15.1654 41.5716 15.351 41.5723C15.483 41.5724 15.6139 41.5923 15.738 41.6311C15.8544 41.6783 15.9588 41.7449 16.0452 41.827L15.8063 42.8066C15.7639 42.7516 15.7049 42.7075 15.6355 42.6792C15.5721 42.6651 15.5055 42.6651 15.4421 42.6792C15.3769 42.6813 15.3137 42.6989 15.2595 42.73C15.2053 42.7612 15.1621 42.8046 15.1348 42.8556C15.0566 43.02 15.0216 43.1973 15.0324 43.3748V43.8156V44.4132V48.2631H14.2016Z" fill="#314698"/>
<path d="M17.875 48.2653V43.4554H18.7399V44.8072L18.6147 44.4154C18.6747 44.1294 18.8287 43.8642 19.0586 43.6513C19.1545 43.5662 19.2696 43.4989 19.3968 43.4534C19.524 43.4079 19.6606 43.3853 19.7983 43.3868V44.6603H19.6048C19.4798 44.6624 19.3577 44.6936 19.2516 44.7505C19.1454 44.8074 19.059 44.8879 19.0017 44.9836C18.8325 45.2888 18.7543 45.6255 18.7741 45.9632V48.2653H17.875Z" fill="#314698"/>
<path d="M22.6761 48.2635C22.4464 48.2677 22.2232 48.1978 22.0502 48.0676C21.8657 47.9285 21.7281 47.7491 21.6519 47.5484C21.4702 47.0677 21.4702 46.5499 21.6519 46.0692C21.7261 45.8679 21.8737 45.6927 22.073 45.5696C22.3031 45.4416 22.573 45.3767 22.8469 45.3835H23.6662V46.1965H22.9379C22.8562 46.1884 22.7735 46.1986 22.6978 46.2261C22.622 46.2535 22.5558 46.2973 22.5054 46.3533C22.4242 46.4752 22.3848 46.6145 22.3916 46.7549C22.3834 46.9043 22.4312 47.052 22.5282 47.1762C22.57 47.2254 22.6248 47.2653 22.6882 47.2926C22.7515 47.3199 22.8215 47.3337 22.8924 47.3329C22.9701 47.3302 23.0465 47.3141 23.1169 47.2855C23.1873 47.2569 23.2502 47.2164 23.3021 47.1664C23.4348 47.029 23.5214 46.863 23.5524 46.6863L23.7004 47.3231C23.6542 47.5819 23.5284 47.8255 23.3362 48.0284C23.2515 48.1053 23.149 48.166 23.0353 48.2065C22.9215 48.247 22.7992 48.2664 22.6761 48.2635ZM23.5638 48.2635V47.2839V47.0978V45.4226C23.5785 45.1851 23.5196 44.9484 23.3931 44.7369C23.3403 44.6558 23.2623 44.589 23.1678 44.544C23.0733 44.499 22.9661 44.4776 22.8582 44.4822C22.6859 44.4832 22.5169 44.5237 22.3689 44.5998C22.2086 44.687 22.0695 44.8001 21.9592 44.9328L21.6405 43.9532C21.8055 43.7758 22.0107 43.6291 22.2437 43.5222C22.4709 43.4274 22.7196 43.3772 22.972 43.3752C23.1976 43.3628 23.4229 43.4037 23.6235 43.4935C23.8241 43.5833 23.9923 43.7185 24.1101 43.8846C24.4084 44.3793 24.5423 44.9352 24.497 45.4912V48.2635H23.5638Z" fill="#314698"/>
<path d="M30.0801 48.2656V42.0156H31.0133V47.0607H33.039V48.2656H30.0801Z" fill="#314698"/>
<path d="M36.4964 48.2673C36.3328 48.2658 36.1711 48.2365 36.0207 48.181C35.8703 48.1255 35.7342 48.045 35.6201 47.944C35.3413 47.6989 35.1345 47.4 35.0169 47.0722C34.7287 46.2446 34.7287 45.3625 35.0169 44.535C35.1345 44.2071 35.3413 43.9082 35.6201 43.6631C35.8551 43.4663 36.1685 43.3541 36.4964 43.3496C36.8252 43.35 37.1404 43.4627 37.3727 43.6631C37.6566 43.9027 37.8676 44.1988 37.9872 44.5252C38.2757 45.356 38.2757 46.2413 37.9872 47.0722C37.8706 47.4026 37.6593 47.7024 37.3727 47.944C37.2598 48.0463 37.1239 48.1278 36.9732 48.1834C36.8225 48.2389 36.6603 48.2675 36.4964 48.2673ZM36.4964 47.1309C36.5734 47.1301 36.6495 47.1157 36.7199 47.0888C36.7903 47.0618 36.8537 47.0229 36.9061 46.9742C37.0391 46.8406 37.1363 46.6834 37.1906 46.5138C37.2639 46.2841 37.2984 46.0466 37.293 45.8085C37.3054 45.5815 37.2824 45.3542 37.2247 45.1325C37.1703 44.9659 37.0731 44.8119 36.9402 44.6819C36.8897 44.6313 36.8267 44.591 36.7558 44.5639C36.685 44.5368 36.608 44.5235 36.5305 44.5252C36.455 44.5256 36.3805 44.5398 36.3119 44.5668C36.2432 44.5938 36.182 44.6331 36.1322 44.6819C35.9994 44.8119 35.9021 44.9659 35.8477 45.1325C35.7744 45.3655 35.7399 45.6063 35.7453 45.8476C35.7399 46.0858 35.7744 46.3233 35.8477 46.553C35.902 46.7226 35.9992 46.8798 36.1322 47.0134C36.2276 47.1018 36.357 47.1575 36.4964 47.1701V47.1309Z" fill="#314698"/>
<path d="M41.6698 48.0008C41.3752 47.9971 41.0937 47.8953 40.8845 47.7167C40.6311 47.4845 40.4406 47.2068 40.3269 46.9036C40.1814 46.5112 40.1122 46.1007 40.122 45.6889C40.113 45.2771 40.1822 44.8667 40.3269 44.4741C40.4404 44.1738 40.631 43.8992 40.8845 43.6708C41.0937 43.4922 41.3752 43.3904 41.6698 43.3868C41.7986 43.3857 41.9264 43.4069 42.0456 43.4489C42.1648 43.491 42.273 43.5531 42.364 43.6317C42.5935 43.8436 42.7544 44.1037 42.8306 44.386C42.9561 44.8115 43.0136 45.2499 43.0013 45.6889C43.0143 46.1279 42.9569 46.5663 42.8306 46.9918C42.7519 47.2761 42.5914 47.5389 42.364 47.7559C42.273 47.8344 42.1648 47.8966 42.0456 47.9386C41.9264 47.9807 41.7986 48.0018 41.6698 48.0008ZM41.7722 50.0286C41.4808 50.0259 41.1936 49.9691 40.93 49.8621C40.6582 49.755 40.4259 49.5855 40.2586 49.3722L40.6114 48.3926C40.7375 48.5598 40.9094 48.6978 41.1121 48.7943C41.2911 48.8857 41.4958 48.9331 41.7039 48.9314C41.8433 48.9394 41.9824 48.9133 42.1053 48.8561C42.2281 48.7989 42.3297 48.7129 42.3981 48.6081C42.5671 48.3031 42.6416 47.9656 42.6143 47.6285V46.8938V45.6889V43.4553H43.4679V47.4326C43.5189 48.1077 43.366 48.7827 43.024 49.3918C42.8993 49.5837 42.7178 49.7437 42.4979 49.8556C42.278 49.9674 42.0276 50.0271 41.7722 50.0286ZM41.7722 46.8644C41.9294 46.8645 42.0805 46.8118 42.1933 46.7175C42.3237 46.6011 42.4211 46.4602 42.4778 46.306C42.6143 45.903 42.6143 45.4747 42.4778 45.0717C42.4185 44.9214 42.3213 44.7843 42.1933 44.6701C42.0806 44.5755 41.9295 44.5226 41.7722 44.5226C41.6149 44.5226 41.4638 44.5755 41.3511 44.6701C41.2156 44.781 41.114 44.9189 41.0552 45.0717C40.9186 45.4747 40.9186 45.903 41.0552 46.306C41.1123 46.4623 41.2141 46.6038 41.3511 46.7175C41.4161 46.7731 41.495 46.8153 41.5818 46.8407C41.6685 46.8662 41.7609 46.8743 41.8518 46.8644H41.7722Z" fill="#314698"/>
<path d="M46.3959 42.7861C46.3095 42.7869 46.2248 42.766 46.152 42.726C46.0792 42.686 46.0216 42.6286 45.9862 42.5608C45.8791 42.3931 45.8279 42.2033 45.8382 42.0122C45.829 41.8212 45.8802 41.6316 45.9862 41.4636C46.0238 41.3973 46.082 41.3411 46.1542 41.3014C46.2265 41.2616 46.3101 41.2398 46.3959 41.2383C46.4782 41.2416 46.5582 41.2632 46.628 41.3009C46.6978 41.3387 46.755 41.3914 46.7942 41.4538C46.9066 41.6164 46.962 41.8035 46.9535 41.9926C46.9584 42.1895 46.9077 42.3845 46.8056 42.5608C46.7679 42.6271 46.7098 42.6832 46.6375 42.723C46.5652 42.7627 46.4816 42.7846 46.3959 42.7861ZM45.9406 48.2622V43.4522H46.8397V48.2622H45.9406Z" fill="#314698"/>
<path d="M50.2697 48.2657C50.006 48.266 49.7455 48.2158 49.5072 48.1187C49.2841 48.0331 49.0858 47.906 48.9268 47.7465L49.2226 46.7668C49.3702 46.9021 49.5434 47.0147 49.7348 47.0999C49.9082 47.1845 50.1044 47.2284 50.3038 47.2273C50.4639 47.2396 50.6232 47.1974 50.7476 47.1097C50.8341 47.0227 50.8789 46.9106 50.8728 46.7962C50.878 46.7499 50.8716 46.7032 50.8539 46.6593C50.8362 46.6153 50.8077 46.5751 50.7704 46.5415C50.6973 46.4804 50.6072 46.4365 50.5086 46.4142L50.1445 46.326C50.0029 46.2967 49.8655 46.254 49.7348 46.1987C49.5972 46.1451 49.4734 46.0685 49.3706 45.9733C49.2435 45.858 49.1534 45.7162 49.1088 45.5619C48.9518 45.0814 48.9757 44.5704 49.1771 44.1023C49.2733 43.8816 49.4436 43.6906 49.6665 43.5537C49.8944 43.4205 50.165 43.352 50.4404 43.3578C50.659 43.3565 50.8758 43.3931 51.0777 43.4655C51.2879 43.529 51.4786 43.6329 51.6353 43.7692L51.328 44.7488C51.205 44.6264 51.0486 44.5322 50.8728 44.4745C50.737 44.4216 50.5894 44.3949 50.4404 44.3962C50.3601 44.3891 50.279 44.3968 50.2025 44.4188C50.126 44.4407 50.0558 44.4764 49.9965 44.5235C49.9506 44.5653 49.9149 44.6145 49.8914 44.6684C49.868 44.7222 49.8573 44.7795 49.86 44.837C49.8559 44.8847 49.8629 44.9327 49.8804 44.9781C49.898 45.0235 49.9259 45.0654 49.9624 45.1015C50.0408 45.166 50.1338 45.216 50.2355 45.2484C50.354 45.2862 50.4757 45.3157 50.5997 45.3366C50.737 45.3676 50.8704 45.4103 50.998 45.4639C51.1356 45.5175 51.2593 45.5941 51.3622 45.6893C51.4826 45.8029 51.5755 45.9361 51.6353 46.0811C51.7106 46.297 51.7452 46.5219 51.7377 46.7473C51.7459 47.0169 51.6837 47.2847 51.5556 47.5309C51.4553 47.7469 51.2855 47.9338 51.0663 48.0697C50.8298 48.2027 50.5521 48.271 50.2697 48.2657Z" fill="#314698"/>
<path d="M53.4844 44.632V43.5642H55.6239V44.632H53.4844ZM55.1118 48.2664C54.9478 48.2662 54.7866 48.2302 54.6433 48.1616C54.4999 48.0931 54.3792 47.9943 54.2924 47.8746C54.0631 47.477 53.9609 47.034 53.9965 46.5912V42.3887H54.8842V46.5619C54.8762 46.7243 54.9153 46.8859 54.998 47.0321C55.0211 47.0789 55.0589 47.1193 55.1071 47.1487C55.1553 47.1781 55.2121 47.1954 55.2711 47.1986C55.3457 47.1991 55.4191 47.182 55.4833 47.1492C55.5475 47.1164 55.6 47.0691 55.6353 47.0125L55.8857 47.9921C55.7935 48.0888 55.6767 48.1659 55.5442 48.2174C55.4063 48.2619 55.2584 48.2786 55.1118 48.2664Z" fill="#314698"/>
<path d="M58.358 42.7861C58.2736 42.785 58.1913 42.7633 58.1207 42.7234C58.0502 42.6834 57.9943 42.627 57.9597 42.5608C57.8487 42.3941 57.7935 42.2042 57.8004 42.0122C57.7947 41.8203 57.8498 41.6306 57.9597 41.4636C57.9964 41.3987 58.0528 41.3435 58.1229 41.3039C58.193 41.2642 58.2742 41.2416 58.358 41.2383C58.4423 41.2399 58.5246 41.2607 58.5966 41.2985C58.6685 41.3364 58.7276 41.39 58.7677 41.4538C58.8762 41.6174 58.9276 41.8045 58.9157 41.9926C58.9261 42.19 58.875 42.3861 58.7677 42.5608C58.7301 42.6271 58.6719 42.6832 58.5996 42.723C58.5274 42.7627 58.4438 42.7846 58.358 42.7861ZM57.9142 48.2622V43.4522H58.8474V48.2622H57.9142Z" fill="#314698"/>
<path d="M62.7063 48.2673C62.3708 48.2668 62.0486 48.1545 61.8072 47.9539C61.5205 47.7084 61.3094 47.4054 61.1927 47.0722C60.9045 46.2446 60.9045 45.3625 61.1927 44.535C61.3093 44.2046 61.5206 43.9047 61.8072 43.6631C62.0486 43.4625 62.3708 43.3501 62.7063 43.3496C62.8643 43.3487 63.0207 43.3761 63.1657 43.4301C63.3107 43.484 63.441 43.5634 63.5485 43.6631C63.822 43.914 64.0075 44.2265 64.0833 44.5644L63.3891 45.1423C63.3335 44.9594 63.2325 44.789 63.0932 44.6427C63.0426 44.5948 62.9812 44.5562 62.9127 44.5293C62.8442 44.5024 62.7702 44.4876 62.6949 44.486C62.6174 44.4844 62.5404 44.4976 62.4696 44.5247C62.3987 44.5518 62.3358 44.5921 62.2852 44.6427C62.1444 44.7693 62.0426 44.9242 61.9893 45.0934C61.916 45.3263 61.8815 45.5671 61.8869 45.8085C61.8815 46.0466 61.916 46.2842 61.9893 46.5138C62.0427 46.6858 62.1443 46.8439 62.2852 46.9742C62.3376 47.0229 62.401 47.0619 62.4714 47.0888C62.5418 47.1157 62.6179 47.1301 62.6949 47.131C62.7702 47.1293 62.8442 47.1146 62.9127 47.0877C62.9812 47.0607 63.0426 47.0221 63.0932 46.9742C63.2348 46.8293 63.336 46.6584 63.3891 46.4746L64.0833 47.0624C64.0021 47.3958 63.8172 47.7039 63.5485 47.9539C63.441 48.0536 63.3107 48.1329 63.1657 48.1869C63.0207 48.2409 62.8643 48.2683 62.7063 48.2673Z" fill="#314698"/>
<path d="M67.1954 48.2655C66.9319 48.2649 66.6716 48.2147 66.4329 48.1185C66.2117 48.0303 66.014 47.9036 65.8525 47.7463L66.1598 46.7667C66.3008 46.9039 66.4707 47.0169 66.6605 47.0997C66.8387 47.1831 67.0382 47.2269 67.241 47.2271C67.3186 47.2347 67.3972 47.2281 67.4717 47.2079C67.5462 47.1876 67.6149 47.1541 67.6734 47.1095C67.7204 47.0684 67.7569 47.0193 67.7804 46.9653C67.8039 46.9113 67.814 46.8536 67.81 46.796C67.8152 46.7498 67.8087 46.703 67.7911 46.6591C67.7734 46.6151 67.7449 46.575 67.7076 46.5413C67.6304 46.4798 67.5364 46.436 67.4344 46.414L67.0702 46.3258C66.9323 46.2964 66.7987 46.2537 66.6719 46.1985C66.5304 46.1511 66.4051 46.0735 66.3078 45.9732C66.1811 45.856 66.0876 45.7152 66.0346 45.5617C65.8775 45.0812 65.9015 44.5702 66.1029 44.1021C66.2031 43.8834 66.3726 43.6933 66.5923 43.5535C66.8211 43.422 67.0911 43.3537 67.3661 43.3576C67.5886 43.3552 67.8093 43.3919 68.0148 43.4653C68.2203 43.5313 68.4067 43.6349 68.5611 43.769L68.2652 44.7486C68.1376 44.6307 67.9824 44.5372 67.81 44.4743C67.6706 44.4203 67.519 44.3936 67.3661 44.396C67.2877 44.3897 67.2086 44.3978 67.1341 44.4198C67.0595 44.4417 66.9912 44.477 66.9337 44.5233C66.8857 44.5643 66.8479 44.6132 66.8225 44.667C66.7971 44.7209 66.7846 44.7787 66.7857 44.8368C66.7817 44.8845 66.7886 44.9325 66.8062 44.9779C66.8238 45.0233 66.8516 45.0652 66.8882 45.1013C66.9666 45.1658 67.0596 45.2158 67.1613 45.2482C67.2802 45.2847 67.4019 45.3142 67.5255 45.3364C67.6634 45.3658 67.797 45.4086 67.9238 45.4638C68.063 45.5148 68.1874 45.5917 68.288 45.6891C68.4136 45.7993 68.5072 45.9336 68.5611 46.0809C68.6364 46.2968 68.671 46.5217 68.6635 46.7471C68.6696 47.0156 68.6115 47.2824 68.4928 47.5308C68.3882 47.7474 68.2147 47.9342 67.9921 48.0696C67.7565 48.2043 67.4781 48.2728 67.1954 48.2655Z" fill="#314698"/>
<path d="M74.0312 48.2656V42.0156H74.9645V47.0607H76.9902V48.2656H74.0312Z" fill="#314698"/>
<path d="M79.0518 48.2656V42.0156H79.985V47.0607H82.0107V48.2656H79.0518Z" fill="#314698"/>
<path d="M84.0918 48.2657V42.0157H85.833C86.1715 42.0118 86.5012 42.1087 86.7662 42.29C87.0487 42.4933 87.258 42.7618 87.3694 43.0639C87.5238 43.4514 87.597 43.8594 87.5856 44.2689C87.598 44.6784 87.5247 45.0866 87.3694 45.4738C87.258 45.7759 87.0487 46.0444 86.7662 46.2477C86.5036 46.4328 86.1723 46.5301 85.833 46.522H84.6039L85.025 45.8755V48.2657H84.0918ZM85.0136 46.0322L84.5925 45.3465H85.7306C85.8566 45.3525 85.9822 45.3293 86.0943 45.2794C86.2064 45.2294 86.3009 45.1545 86.3679 45.0624C86.5297 44.8222 86.605 44.546 86.5841 44.2689C86.6036 43.9919 86.5285 43.716 86.3679 43.4754C86.3009 43.3833 86.2064 43.3083 86.0943 43.2584C85.9822 43.2084 85.8566 43.1852 85.7306 43.1913H84.5925L85.0136 42.5056V46.0322Z" fill="#314698"/>
<path d="M135.367 40.4257C132.089 42.238 117.078 50.8782 100.167 52.9452C111.047 51.2076 121.139 46.869 129.289 40.4257H111.251C94.7952 56.6874 -19.3735 70.0788 4.69618 34.832C-23.516 70.9311 109.362 65.9448 155.578 40.4257H135.367Z" fill="#DA3A33"/>
</svg>
