<svg width="400" height="173" viewBox="0 0 400 173" fill="none" xmlns="http://www.w3.org/2000/svg">
<path d="M294.77 148.746C294.77 161.12 285.935 171.125 275.007 171.125C264.079 171.125 255.243 161.12 255.243 148.746C255.243 136.373 264.079 126.368 275.007 126.368C285.935 126.368 294.77 136.373 294.77 148.746Z" fill="#333399" stroke="#EAECF5" stroke-width="2" stroke-miterlimit="10"/>
<path d="M274.188 126.392H283.696" stroke="#EAECF5" stroke-width="2"/>
<path d="M274.188 171.097H283.696" stroke="#EAECF5" stroke-width="2"/>
<path d="M302.8 148.746C302.8 161.12 293.965 171.125 283.036 171.125C272.108 171.125 263.273 161.12 263.273 148.746C263.273 136.373 272.108 126.368 283.036 126.368C293.965 126.368 302.8 136.373 302.8 148.746Z" fill="#333399" stroke="#EAECF5" stroke-width="2" stroke-miterlimit="10"/>
<path d="M290.965 145.441C290.965 150.364 287.465 154.327 283.118 154.327C278.771 154.327 275.271 150.364 275.271 145.441C275.271 140.519 278.771 136.556 283.118 136.556C287.409 136.556 290.965 140.519 290.965 145.441Z" fill="#333399" stroke="#EAECF5" stroke-width="2" stroke-miterlimit="10"/>
<path d="M251.481 148.746C251.481 161.12 242.646 171.125 231.718 171.125C220.79 171.125 211.954 161.12 211.954 148.746C211.954 136.373 220.79 126.368 231.718 126.368C242.646 126.368 251.481 136.373 251.481 148.746Z" fill="#333399" stroke="#EAECF5" stroke-width="2" stroke-miterlimit="10"/>
<path d="M230.899 126.392H240.407" stroke="#EAECF5" stroke-width="2"/>
<path d="M230.899 171.097H240.407" stroke="#EAECF5" stroke-width="2"/>
<path d="M259.511 148.746C259.511 161.12 250.675 171.125 239.747 171.125C228.819 171.125 219.984 161.12 219.984 148.746C219.984 136.373 228.819 126.368 239.747 126.368C250.675 126.368 259.511 136.373 259.511 148.746Z" fill="#333399" stroke="#EAECF5" stroke-width="2" stroke-miterlimit="10"/>
<path d="M247.676 145.441C247.676 150.364 244.176 154.327 239.829 154.327C235.482 154.327 231.981 150.364 231.981 145.441C231.981 140.519 235.482 136.556 239.829 136.556C244.12 136.556 247.676 140.519 247.676 145.441Z" fill="#333399" stroke="#EAECF5" stroke-width="2" stroke-miterlimit="10"/>
<rect x="142.004" y="113.356" width="233.071" height="7.23427" fill="#333399" stroke="#EAECF5" stroke-width="2"/>
<rect x="116.145" y="108.466" width="282.606" height="4.89034" rx="1" fill="#333399" stroke="#EAECF5" stroke-width="2"/>
<rect x="65.043" y="1.12598" width="333.708" height="107.512" rx="2" fill="#333399" stroke="#EAECF5" stroke-width="2"/>
<rect x="155.527" y="1.12598" width="243.224" height="107.512" rx="2" fill="#333399" stroke="#EAECF5" stroke-width="2"/>
<path d="M155.77 5.04395V104.502" stroke="#EAECF5"/>
<path d="M169.473 5.04395V104.502" stroke="#EAECF5"/>
<path d="M183.176 5.04395V104.502" stroke="#EAECF5"/>
<path d="M196.871 5.04395V104.502" stroke="#EAECF5"/>
<path d="M210.566 5.04395V104.502" stroke="#EAECF5"/>
<path d="M224.27 5.04395V104.502" stroke="#EAECF5"/>
<path d="M237.965 5.04395V104.502" stroke="#EAECF5"/>
<path d="M251.668 5.04395V104.502" stroke="#EAECF5"/>
<path d="M265.371 5.04395V104.502" stroke="#EAECF5"/>
<path d="M279.066 5.04395V104.502" stroke="#EAECF5"/>
<path d="M292.77 5.04395V104.502" stroke="#EAECF5"/>
<path d="M306.473 5.04395V104.502" stroke="#EAECF5"/>
<path d="M320.16 5.04395V104.502" stroke="#EAECF5"/>
<path d="M333.863 5.04395V104.502" stroke="#EAECF5"/>
<path d="M347.566 5.04004V104.498" stroke="#EAECF5"/>
<path d="M361.262 5.04395V104.502" stroke="#EAECF5"/>
<path d="M374.965 5.04395V104.502" stroke="#EAECF5"/>
<path d="M388.668 5.04395V104.502" stroke="#EAECF5"/>
<path d="M389.43 132.153H394.783C396.714 132.153 398.206 133.733 398.206 135.576V136.278C398.206 138.209 396.626 139.701 394.783 139.701H389.43V132.153Z" fill="#333399" stroke="#EAECF5" stroke-width="2" stroke-miterlimit="10"/>
<path d="M123.868 120.647C123.315 120.647 122.868 121.091 122.868 121.643C122.872 126.779 122.9 141.573 122.899 148.097C122.899 148.649 123.359 149.09 123.912 149.09C232.041 149.089 293.013 148.904 393.116 148.903C393.669 148.903 394.127 148.455 394.127 147.903L394.127 121.647C394.127 121.094 393.679 120.646 393.126 120.647C303.373 120.769 213.62 120.648 123.868 120.647Z" fill="#333399" stroke="#EAECF5" stroke-width="2" stroke-miterlimit="10"/>
<path d="M80.9719 148.746C80.9719 161.12 72.1364 171.125 61.2083 171.125C50.2803 171.125 41.4448 161.12 41.4448 148.746C41.4448 136.373 50.2803 126.368 61.2083 126.368C72.1364 126.368 80.9719 136.373 80.9719 148.746Z" fill="#333399" stroke="#EAECF5" stroke-width="2" stroke-miterlimit="10"/>
<path d="M60.3901 126.392H69.8979" stroke="#EAECF5" stroke-width="2"/>
<path d="M60.3901 171.097H69.8979" stroke="#EAECF5" stroke-width="2"/>
<path d="M89.0016 148.746C89.0016 161.12 80.1662 171.125 69.2381 171.125C58.3101 171.125 49.4746 161.12 49.4746 148.746C49.4746 136.373 58.3101 126.368 69.2381 126.368C80.1662 126.368 89.0016 136.373 89.0016 148.746Z" fill="#333399" stroke="#EAECF5" stroke-width="2" stroke-miterlimit="10"/>
<path d="M77.1671 145.441C77.1671 150.364 73.6668 154.327 69.3197 154.327C64.9725 154.327 61.4722 150.364 61.4722 145.441C61.4722 140.519 64.9725 136.556 69.3197 136.556C73.6104 136.556 77.1671 140.519 77.1671 145.441Z" fill="#333399" stroke="#EAECF5" stroke-width="2" stroke-miterlimit="10"/>
<path d="M129.832 148.746C129.832 161.12 120.997 171.125 110.069 171.125C99.1406 171.125 90.3052 161.12 90.3052 148.746C90.3052 136.373 99.1406 126.368 110.069 126.368C120.997 126.368 129.832 136.373 129.832 148.746Z" fill="#333399" stroke="#EAECF5" stroke-width="2" stroke-miterlimit="10"/>
<path d="M76.0868 57.0784C76.0868 56.5262 75.6378 56.0702 75.0855 56.0701C55.2504 56.0684 37.2859 56.0678 17.3869 56.0674C15.3685 56.0674 13.5255 57.3838 12.8235 59.3144L1.60773 91.4129C1.57068 91.519 1.55176 91.6305 1.55176 91.7428L1.55209 102.259C1.55209 102.32 1.55778 102.382 1.56907 102.442L10.2403 148.889C10.3287 149.362 10.7298 149.705 11.2113 149.705C29.1022 149.705 62.1875 149.705 75.0964 149.705C75.6487 149.705 76.0868 149.253 76.0868 148.7C76.0868 117.802 76.0868 94.1676 76.0868 57.0784Z" fill="#333399" stroke="#EAECF5" stroke-width="2" stroke-miterlimit="10"/>
<path d="M122.279 123.078C122.831 123.072 123.28 122.625 123.28 122.073V57.0701C123.28 56.5179 122.829 56.0702 122.277 56.0701C102.54 56.0684 87.4779 56.0678 67.5804 56.0674C65.562 56.0674 63.7191 57.3838 63.017 59.3144L51.8016 91.4129C51.7645 91.519 51.7456 91.6305 51.7456 91.7428V102.259C51.7456 102.32 51.7513 102.382 51.7626 102.442L60.4338 148.889C60.5222 149.362 60.9463 149.705 61.4278 149.705C78.3332 149.705 81.5564 149.705 92.8403 149.705C93.3926 149.705 93.842 149.244 93.8523 148.692C94.2443 127.608 106.952 123.254 122.279 123.078Z" fill="#333399" stroke="#EAECF5" stroke-width="2" stroke-miterlimit="10"/>
<path d="M70.9858 134.855H70.0205C67.8265 134.855 66.5361 132.981 65.9836 130.818L64.0569 124.337C63.8663 123.696 64.3473 123.052 65.0162 123.052C69.5192 123.052 73.5446 123.05 79.147 123.051C80.0533 123.051 80.5925 124.256 80.0885 125.01C77.5407 128.818 75.2684 134.855 70.9858 134.855Z" fill="#333399" stroke="#EAECF5" stroke-width="2" stroke-miterlimit="10"/>
<path d="M64.6534 93.9729C63.9708 93.9773 63.5043 93.3099 63.7202 92.6624L73.3801 63.6941C73.5161 63.2861 73.9059 63.0108 74.336 63.0105C87.819 62.9993 91.0254 63.0044 104.368 63.0109C104.92 63.0112 105.373 63.4755 105.373 64.0276C105.373 80.8547 105.373 75.7623 105.373 92.589C105.373 93.1412 104.938 93.6056 104.386 93.6074C96.3456 93.6328 71.6686 93.9274 64.6534 93.9729Z" fill="#333399" stroke="#EAECF5" stroke-width="2" stroke-miterlimit="10"/>
<path d="M53.3262 93.3301L51.1815 92.6523H2.65581C1.96769 92.6523 1.48518 91.9735 1.71138 91.3236L12.0346 61.6641H62.158L64.2279 62.3054C65.3146 62.6422 65.9019 63.8164 65.5196 64.8879L55.8126 92.0951C55.451 93.1087 54.3523 93.6544 53.3262 93.3301Z" fill="#333399" stroke="#EAECF5" stroke-width="2"/>
<path d="M10.3745 130.832C10.563 131.765 11.3795 132.436 12.3313 132.436C23.9831 132.436 39.7466 132.435 51.5835 132.435C52.8473 132.435 53.794 131.277 53.5436 130.038L50.1213 113.109C49.9327 112.176 49.1162 111.505 48.1644 111.505C36.5127 111.505 20.7492 111.507 8.91231 111.507C7.64851 111.507 6.70179 112.665 6.95221 113.903L10.3745 130.832Z" fill="#333399" stroke="#EAECF5" stroke-width="2" stroke-miterlimit="10"/>
<path d="M12.1751 125.55C12.0516 124.932 12.5248 124.354 13.1557 124.354H17.8428C18.3196 124.354 18.7301 124.691 18.8235 125.159L19.2881 127.486C19.4116 128.105 18.9383 128.682 18.3074 128.682H13.6203C13.1435 128.682 12.733 128.345 12.6397 127.878L12.1751 125.55Z" stroke="white"/>
<path d="M42.9085 125.55C42.785 124.932 43.2582 124.354 43.8891 124.354H48.5762C49.053 124.354 49.4635 124.691 49.5569 125.159L50.0215 127.486C50.145 128.105 49.6717 128.682 49.0408 128.682H44.3537C43.8769 128.682 43.4664 128.345 43.3731 127.878L42.9085 125.55Z" stroke="white"/>
<path d="M62.1972 147.725C62.1972 148.83 61.3018 149.723 60.1972 149.723H7.57606C6.47471 149.723 5.58101 148.834 5.5782 147.732C5.5723 145.419 5.56601 141.831 5.57137 139.545C5.57392 138.456 6.45525 137.587 7.54393 137.587H60.1972C61.3018 137.587 62.1972 138.48 62.1972 139.585C62.1972 141.976 62.1972 145.363 62.1972 147.725Z" fill="#333399" stroke="#EAECF5" stroke-width="2" stroke-miterlimit="10"/>
<path d="M194.372 156.939C194.372 157.491 193.924 157.939 193.372 157.939H148.246C147.694 157.939 147.246 157.491 147.246 156.939C147.241 147.309 147.248 137.679 147.243 128.048C147.243 127.496 147.691 127.048 148.243 127.048H193.372C193.924 127.048 194.372 127.496 194.372 128.048C194.372 137.678 194.372 147.308 194.372 156.939Z" fill="#333399" stroke="#EAECF5" stroke-width="2" stroke-miterlimit="10"/>
<path d="M194.375 156.939C194.375 157.491 193.927 157.939 193.375 157.939H158.944C158.392 157.939 157.944 157.491 157.944 156.939C157.94 147.309 157.945 137.679 157.942 128.048C157.942 127.496 158.389 127.048 158.942 127.048H193.375C193.927 127.048 194.375 127.496 194.375 128.048C194.375 137.678 194.375 147.308 194.375 156.939Z" fill="#333399" stroke="#EAECF5" stroke-width="2" stroke-miterlimit="10"/>
<path d="M188.598 135.375C188.598 137.513 186.849 139.263 184.711 139.263C182.572 139.263 180.774 137.513 180.774 135.375C180.774 133.237 182.524 131.438 184.711 131.438C186.849 131.487 188.598 133.237 188.598 135.375Z" fill="#333399" stroke="#EAECF5" stroke-width="2" stroke-miterlimit="10"/>
<path d="M109.746 126.392H119.253" stroke="#EAECF5" stroke-width="2"/>
<path d="M109.746 171.097H119.253" stroke="#EAECF5" stroke-width="2"/>
<path d="M138.357 148.746C138.357 161.12 129.522 171.125 118.594 171.125C107.666 171.125 98.8301 161.12 98.8301 148.746C98.8301 136.373 107.666 126.368 118.594 126.368C129.522 126.368 138.357 136.373 138.357 148.746Z" fill="#333399" stroke="#EAECF5" stroke-width="2" stroke-miterlimit="10"/>
<path d="M129.449 148.754C129.449 155.511 124.644 160.952 118.676 160.952C112.709 160.952 107.903 155.511 107.903 148.754C107.903 141.997 112.709 136.556 118.676 136.556C124.567 136.556 129.449 141.997 129.449 148.754Z" fill="#333399" stroke="#EAECF5" stroke-width="2" stroke-miterlimit="10"/>
<path d="M360.123 148.746C360.123 161.12 351.287 171.125 340.359 171.125C329.431 171.125 320.596 161.12 320.596 148.746C320.596 136.373 329.431 126.368 340.359 126.368C351.287 126.368 360.123 136.373 360.123 148.746Z" fill="#333399" stroke="#EAECF5" stroke-width="2" stroke-miterlimit="10"/>
<path d="M339.541 126.392H349.049" stroke="#EAECF5" stroke-width="2"/>
<path d="M339.541 171.097H349.049" stroke="#EAECF5" stroke-width="2"/>
<path d="M368.153 148.746C368.153 161.12 359.317 171.125 348.389 171.125C337.461 171.125 328.625 161.12 328.625 148.746C328.625 136.373 337.461 126.368 348.389 126.368C359.317 126.368 368.153 136.373 368.153 148.746Z" fill="#333399" stroke="#EAECF5" stroke-width="2" stroke-miterlimit="10"/>
<path d="M359.244 148.754C359.244 155.511 354.439 160.952 348.471 160.952C342.503 160.952 337.698 155.511 337.698 148.754C337.698 141.997 342.503 136.556 348.471 136.556C354.362 136.556 359.244 141.997 359.244 148.754Z" fill="#333399" stroke="#EAECF5" stroke-width="2" stroke-miterlimit="10"/>
<path d="M313.771 148.746C313.771 161.12 304.936 171.125 294.008 171.125C283.08 171.125 274.244 161.12 274.244 148.746C274.244 136.373 283.08 126.368 294.008 126.368C304.936 126.368 313.771 136.373 313.771 148.746Z" fill="#333399" stroke="#EAECF5" stroke-width="2" stroke-miterlimit="10"/>
<path d="M293.189 126.392H302.697" stroke="#EAECF5" stroke-width="2"/>
<path d="M293.189 171.097H302.697" stroke="#EAECF5" stroke-width="2"/>
<path d="M321.801 148.746C321.801 161.12 312.966 171.125 302.037 171.125C291.109 171.125 282.274 161.12 282.274 148.746C282.274 136.373 291.109 126.368 302.037 126.368C312.966 126.368 321.801 136.373 321.801 148.746Z" fill="#333399" stroke="#EAECF5" stroke-width="2" stroke-miterlimit="10"/>
<path d="M312.893 148.754C312.893 155.511 308.088 160.952 302.12 160.952C296.152 160.952 291.347 155.511 291.347 148.754C291.347 141.997 296.152 136.556 302.12 136.556C308.01 136.556 312.893 141.997 312.893 148.754Z" fill="#333399" stroke="#EAECF5" stroke-width="2" stroke-miterlimit="10"/>
</svg>
