<svg width="536" height="136" viewBox="0 0 536 136" fill="none" xmlns="http://www.w3.org/2000/svg">
<path d="M269.833 78.816V134.062H206.301V78.816L175.9 55.3072C174.675 54.3604 173.958 52.9 173.958 51.3522L173.957 38.1877L301.954 38.1875V51.3623C301.954 52.9043 301.243 54.3601 300.026 55.3074L269.833 78.816Z" fill="#333399" stroke="white" stroke-width="2" stroke-miterlimit="10"/>
<path d="M249.771 78.816V134.062H186.239V78.816L155.837 55.3072C154.613 54.3604 153.896 52.9 153.896 51.3522L153.895 38.1877L281.892 38.1875V51.3623C281.892 52.9043 281.18 54.3601 279.963 55.3074L249.771 78.816Z" fill="#333399" stroke="white" stroke-width="2" stroke-miterlimit="10"/>
<path d="M455.029 78.816V134.062H391.497V78.816L361.095 55.3072C359.87 54.3604 359.154 52.9 359.153 51.3522L359.152 38.1877L487.149 38.1875V51.3623C487.149 52.9043 486.438 54.3601 485.221 55.3074L455.029 78.816Z" fill="#333399" stroke="white" stroke-width="2" stroke-miterlimit="10"/>
<path d="M434.966 78.816V134.062H371.434V78.816L341.032 55.3072C339.808 54.3604 339.091 52.9 339.091 51.3522L339.09 38.1877L467.087 38.1875V51.3623C467.087 52.9043 466.375 54.3601 465.159 55.3074L434.966 78.816Z" fill="#333399" stroke="white" stroke-width="2" stroke-miterlimit="10"/>
<path d="M519.616 37.0448C518.061 40.7664 514.422 43.1895 510.389 43.1895H214.636L197.285 1.9375H534.285L519.616 37.0448Z" fill="#333399" stroke="white" stroke-width="2" stroke-miterlimit="10"/>
<path d="M391.415 37.0448C389.86 40.7664 386.222 43.1895 382.188 43.1895H99.2769L81.9258 1.9375L406.084 1.9375L391.415 37.0448Z" fill="#333399" stroke="white" stroke-width="2" stroke-miterlimit="10"/>
<path d="M84.9189 96.6289V134.064H21.3867V96.6289H84.9189Z" fill="#333399" stroke="white" stroke-width="2" stroke-miterlimit="10"/>
<path d="M65.0673 96.6289V134.064H1.53516V96.6289H65.0673Z" fill="#333399" stroke="white" stroke-width="2" stroke-miterlimit="10"/>
<path d="M42.8477 96.2516V77.293" stroke="white" stroke-miterlimit="10"/>
<path d="M49.6289 96.2516V77.293" stroke="white" stroke-miterlimit="10"/>
<path d="M56.3555 96.2516V77.293" stroke="white" stroke-miterlimit="10"/>
<path d="M60.6445 96.2516V77.293" stroke="white" stroke-miterlimit="10"/>
<path d="M67.4258 96.2516V77.293" stroke="white" stroke-miterlimit="10"/>
<path d="M74.1523 96.2516V77.293" stroke="white" stroke-miterlimit="10"/>
<path d="M58.5039 86.5117H75.6652" stroke="white" stroke-miterlimit="10"/>
<path d="M41.3398 86.5117H58.5012" stroke="white" stroke-miterlimit="10"/>
<path d="M8.51953 96.2516V77.293" stroke="white" stroke-miterlimit="10"/>
<path d="M15.3008 96.2516V77.293" stroke="white" stroke-miterlimit="10"/>
<path d="M22.0273 96.2516V77.293" stroke="white" stroke-miterlimit="10"/>
<path d="M26.3164 96.2516V77.293" stroke="white" stroke-miterlimit="10"/>
<path d="M33.0977 96.2516V77.293" stroke="white" stroke-miterlimit="10"/>
<path d="M39.8242 96.2516V77.293" stroke="white" stroke-miterlimit="10"/>
<path d="M24.1758 86.5117H41.3371" stroke="white" stroke-miterlimit="10"/>
<path d="M7.01172 86.5117H24.1731" stroke="white" stroke-miterlimit="10"/>
<path d="M224.626 12.6121L217.106 26.795C216.63 27.7468 215.678 28.318 214.536 28.318H174.367C173.225 28.318 172.178 27.5565 171.702 26.5094C169.893 21.75 167.989 17.0859 166.181 12.3265C165.419 10.4228 166.847 8.42383 168.846 8.42383H222.056C224.245 8.42383 225.673 10.7083 224.626 12.6121Z" fill="#333399" stroke="white" stroke-width="2" stroke-miterlimit="10"/>
<path d="M250.309 25.6523H522.799" stroke="white" stroke-width="2"/>
<path d="M80.8857 12.6121L88.4055 26.795C88.8814 27.7468 89.8333 28.318 90.9756 28.318H127.527C128.67 28.318 129.717 27.5565 130.193 26.5094C132.001 21.75 133.905 17.0859 135.714 12.3265C136.475 10.4228 135.047 8.42383 133.048 8.42383H83.4558C81.2665 8.42383 79.8387 10.7083 80.8857 12.6121Z" fill="#333399" stroke="white" stroke-width="2" stroke-miterlimit="10"/>
<path d="M122.105 25.6523H394.596" stroke="white" stroke-width="2"/>
<path d="M261.674 37.0429C260.119 40.7645 256.48 43.1876 252.447 43.1876H90.4741C86.4493 43.1876 82.8167 40.7747 81.2563 37.0647L66.4805 1.93555L276.343 1.93555L261.674 37.0429Z" fill="#333399" stroke="white" stroke-width="2" stroke-miterlimit="10"/>
<path d="M161.906 26.2216H97.195C95.152 26.2216 93.3146 24.9788 92.5542 23.0826L84.0742 1.93555H161.906V26.2216Z" fill="#333399" stroke="white" stroke-width="2" stroke-miterlimit="10"/>
<path d="M177.766 26.2216H244.742C246.768 26.2216 248.593 24.9995 249.365 23.1266L258.098 1.93555H177.766V26.2216Z" fill="#333399" stroke="white" stroke-width="2" stroke-miterlimit="10"/>
</svg>
