<svg width="460" height="263" viewBox="0 0 460 263" fill="none" xmlns="http://www.w3.org/2000/svg">
<path d="M175.157 114.895C175.157 120.718 170.999 125.426 165.856 125.426C160.714 125.426 156.556 120.718 156.556 114.895C156.556 109.072 160.714 104.364 165.856 104.364C170.999 104.364 175.157 109.072 175.157 114.895Z" fill="#333399" stroke="#EAECF5" stroke-width="1.5" stroke-miterlimit="10"/>
<path d="M165.472 104.376H169.946" stroke="#EAECF5" stroke-width="1.5"/>
<path d="M165.472 125.413H169.946" stroke="#EAECF5" stroke-width="1.5"/>
<path d="M178.935 114.895C178.935 120.718 174.777 125.426 169.634 125.426C164.491 125.426 160.333 120.718 160.333 114.895C160.333 109.072 164.491 104.364 169.634 104.364C174.777 104.364 178.935 109.072 178.935 114.895Z" fill="#333399" stroke="#EAECF5" stroke-width="1.5" stroke-miterlimit="10"/>
<path d="M173.365 113.34C173.365 115.656 171.718 117.521 169.672 117.521C167.627 117.521 165.979 115.656 165.979 113.34C165.979 111.023 167.627 109.158 169.672 109.158C171.692 109.158 173.365 111.023 173.365 113.34Z" fill="#333399" stroke="#EAECF5" stroke-width="1.5" stroke-miterlimit="10"/>
<path d="M154.795 114.895C154.795 120.718 150.638 125.426 145.495 125.426C140.352 125.426 136.194 120.718 136.194 114.895C136.194 109.072 140.352 104.364 145.495 104.364C150.638 104.364 154.795 109.072 154.795 114.895Z" fill="#333399" stroke="#EAECF5" stroke-width="1.5" stroke-miterlimit="10"/>
<path d="M145.111 104.376H149.585" stroke="#EAECF5" stroke-width="1.5"/>
<path d="M145.111 125.413H149.585" stroke="#EAECF5" stroke-width="1.5"/>
<path d="M158.573 114.895C158.573 120.718 154.415 125.426 149.273 125.426C144.13 125.426 139.972 120.718 139.972 114.895C139.972 109.072 144.13 104.364 149.273 104.364C154.415 104.364 158.573 109.072 158.573 114.895Z" fill="#333399" stroke="#EAECF5" stroke-width="1.5" stroke-miterlimit="10"/>
<path d="M153.004 113.34C153.004 115.656 151.357 117.521 149.311 117.521C147.265 117.521 145.618 115.656 145.618 113.34C145.618 111.023 147.265 109.158 149.311 109.158C151.33 109.158 153.004 111.023 153.004 113.34Z" fill="#333399" stroke="#EAECF5" stroke-width="1.5" stroke-miterlimit="10"/>
<rect x="103.258" y="98.2422" width="109.681" height="3.40439" fill="#333399" stroke="#EAECF5" stroke-width="1.5"/>
<rect x="91.0918" y="95.9404" width="132.993" height="2.30136" rx="1" fill="#333399" stroke="#EAECF5" stroke-width="1.5"/>
<rect x="67.043" y="45.4268" width="157.041" height="50.5946" rx="2" fill="#333399" stroke="#EAECF5" stroke-width="1.5"/>
<rect x="109.62" y="45.4268" width="114.459" height="50.5946" rx="2" fill="#333399" stroke="#EAECF5" stroke-width="1.5"/>
<path d="M109.737 47.2705V94.0747" stroke="#EAECF5" stroke-width="0.5"/>
<path d="M116.189 47.2705V94.0747" stroke="#EAECF5" stroke-width="0.5"/>
<path d="M122.64 47.2705V94.0747" stroke="#EAECF5" stroke-width="0.5"/>
<path d="M129.085 47.2705V94.0747" stroke="#EAECF5" stroke-width="0.5"/>
<path d="M135.522 47.2705V94.0747" stroke="#EAECF5" stroke-width="0.5"/>
<path d="M141.974 47.2705V94.0747" stroke="#EAECF5" stroke-width="0.5"/>
<path d="M148.418 47.2705V94.0747" stroke="#EAECF5" stroke-width="0.5"/>
<path d="M154.87 47.2705V94.0747" stroke="#EAECF5" stroke-width="0.5"/>
<path d="M161.321 47.2705V94.0747" stroke="#EAECF5" stroke-width="0.5"/>
<path d="M167.766 47.2705V94.0747" stroke="#EAECF5" stroke-width="0.5"/>
<path d="M174.21 47.2705V94.0747" stroke="#EAECF5" stroke-width="0.5"/>
<path d="M180.654 47.2705V94.0747" stroke="#EAECF5" stroke-width="0.5"/>
<path d="M187.099 47.2705V94.0747" stroke="#EAECF5" stroke-width="0.5"/>
<path d="M193.55 47.2705V94.0747" stroke="#EAECF5" stroke-width="0.5"/>
<path d="M199.995 47.2686V94.0728" stroke="#EAECF5" stroke-width="0.5"/>
<path d="M206.446 47.2705V94.0747" stroke="#EAECF5" stroke-width="0.5"/>
<path d="M212.884 47.2705V94.0747" stroke="#EAECF5" stroke-width="0.5"/>
<path d="M219.335 47.2705V94.0747" stroke="#EAECF5" stroke-width="0.5"/>
<path d="M219.705 107.087H222.224C223.132 107.087 223.834 107.83 223.834 108.698V109.028C223.834 109.937 223.091 110.639 222.224 110.639H219.705V107.087Z" fill="#333399" stroke="#EAECF5" stroke-width="1.5" stroke-miterlimit="10"/>
<path d="M95.2665 101.673C94.7143 101.673 94.2667 102.12 94.2673 102.673C94.2701 105.293 94.2805 111.006 94.2814 114.058C94.2816 114.61 94.7402 115.058 95.2928 115.058C145.653 115.056 174.283 114.971 220.91 114.97C221.462 114.97 221.919 114.522 221.919 113.97L221.919 102.673C221.919 102.12 221.471 101.672 220.918 101.673C179.034 101.729 137.15 101.674 95.2665 101.673Z" fill="#333399" stroke="#EAECF5" stroke-width="1.5" stroke-miterlimit="10"/>
<path d="M74.5508 114.895C74.5508 120.718 70.3929 125.426 65.2503 125.426C60.1076 125.426 55.9497 120.718 55.9497 114.895C55.9497 109.072 60.1076 104.364 65.2503 104.364C70.3929 104.364 74.5508 109.072 74.5508 114.895Z" fill="#333399" stroke="#EAECF5" stroke-width="1.5" stroke-miterlimit="10"/>
<path d="M64.8662 104.376H69.3405" stroke="#EAECF5" stroke-width="1.5"/>
<path d="M64.8662 125.413H69.3405" stroke="#EAECF5" stroke-width="1.5"/>
<path d="M78.3287 114.895C78.3287 120.718 74.1708 125.426 69.0281 125.426C63.8854 125.426 59.7275 120.718 59.7275 114.895C59.7275 109.072 63.8854 104.364 69.0281 104.364C74.1708 104.364 78.3287 109.072 78.3287 114.895Z" fill="#333399" stroke="#EAECF5" stroke-width="1.5" stroke-miterlimit="10"/>
<path d="M72.7595 113.34C72.7595 115.656 71.1122 117.521 69.0665 117.521C67.0208 117.521 65.3735 115.656 65.3735 113.34C65.3735 111.023 67.0208 109.158 69.0665 109.158C71.0857 109.158 72.7595 111.023 72.7595 113.34Z" fill="#333399" stroke="#EAECF5" stroke-width="1.5" stroke-miterlimit="10"/>
<path d="M97.5416 114.895C97.5416 120.718 93.3837 125.426 88.241 125.426C83.0983 125.426 78.9404 120.718 78.9404 114.895C78.9404 109.072 83.0983 104.364 88.241 104.364C93.3837 104.364 97.5416 109.072 97.5416 114.895Z" fill="#333399" stroke="#EAECF5" stroke-width="1.5" stroke-miterlimit="10"/>
<path d="M72.2519 72.2871C72.2519 71.7348 71.804 71.2826 71.2518 71.2825C62.1262 71.2817 53.8153 71.2814 44.6282 71.2812C43.6783 71.2812 42.8111 71.9007 42.4807 72.8093L37.2322 87.8298C37.1952 87.9358 37.1763 88.0474 37.1763 88.1597L37.1764 92.9696C37.1764 93.0312 37.1821 93.0926 37.1934 93.1531L41.1843 114.53C41.2727 115.003 41.6857 115.347 42.1672 115.347C50.439 115.347 64.9665 115.347 71.2583 115.347C71.8106 115.347 72.2519 114.897 72.2519 114.345C72.2519 100.209 72.2519 89.2265 72.2519 72.2871Z" fill="#333399" stroke="#EAECF5" stroke-width="1.5" stroke-miterlimit="10"/>
<path d="M93.4573 102.826C94.0094 102.812 94.4582 102.366 94.4582 101.814V72.2825C94.4582 71.7303 94.0098 71.2826 93.4576 71.2825C84.427 71.2817 77.4314 71.2814 68.2462 71.2812C67.2963 71.2812 66.4291 71.9007 66.0987 72.8093L60.8504 87.8298C60.8134 87.9358 60.7944 88.0474 60.7944 88.1597V92.9696C60.7944 93.0312 60.8001 93.0926 60.8114 93.1531L64.8023 114.53C64.8907 115.003 65.3051 115.347 65.7866 115.347C73.1014 115.347 74.8064 115.347 79.6044 115.347C80.1567 115.347 80.6026 114.898 80.6249 114.346C80.9983 105.112 86.6112 103.001 93.4573 102.826Z" fill="#333399" stroke="#EAECF5" stroke-width="1.5" stroke-miterlimit="10"/>
<path d="M69.8463 108.358H69.392C68.3595 108.358 67.7522 107.476 67.4923 106.458L66.7878 104.088C66.5972 103.447 67.0778 102.803 67.7467 102.803C69.2239 102.803 70.6427 102.803 72.3491 102.803C73.2554 102.803 73.8876 104.083 73.4334 104.867C72.4766 106.519 71.4675 108.358 69.8463 108.358Z" fill="#333399" stroke="#EAECF5" stroke-width="1.5" stroke-miterlimit="10"/>
<path d="M67.6083 89.1132C66.9258 89.1188 66.4481 88.4527 66.664 87.8051L70.857 75.2313C70.993 74.8234 71.3767 74.548 71.8068 74.5477C77.6586 74.543 79.3123 74.5451 85.0304 74.548C85.5825 74.5482 86.0333 75.0025 86.0333 75.5546C86.0333 82.6702 86.0333 80.824 86.0333 87.9393C86.0333 88.4915 85.5922 88.9461 85.04 88.9489C81.0895 88.9689 71.4518 89.0815 67.6083 89.1132Z" fill="#333399" stroke="#EAECF5" stroke-width="1.5" stroke-miterlimit="10"/>
<path d="M60.5656 88.5088L60.5296 88.4975H38.4386C37.7505 88.4975 37.2679 87.8186 37.4941 87.1687L42.1073 73.9146H65.6951C66.7376 74.2377 67.3011 75.3642 66.9343 76.3922L63.052 87.2739C62.6903 88.2874 61.5916 88.8331 60.5656 88.5088Z" fill="#333399" stroke="#EAECF5" stroke-width="1.5"/>
<path d="M41.1556 105.616C41.3442 106.549 42.1633 107.22 43.1151 107.22C48.0658 107.22 54.3407 107.22 59.4264 107.219C60.6902 107.219 61.6363 106.062 61.3859 104.823L60.2034 98.9738C60.0148 98.0409 59.1958 97.3701 58.244 97.3701C53.2933 97.3703 47.0184 97.3709 41.9327 97.3711C40.6689 97.3711 39.7228 98.5287 39.9732 99.7674L41.1556 105.616Z" fill="#333399" stroke="#EAECF5" stroke-width="1.5" stroke-miterlimit="10"/>
<path d="M42.3041 104.613C42.1806 103.994 42.6538 103.417 43.2847 103.417H44.4107C44.8875 103.417 45.298 103.754 45.3914 104.221L45.3986 104.258C45.5222 104.876 45.0489 105.453 44.418 105.453H43.292C42.8152 105.453 42.4047 105.117 42.3113 104.649L42.3041 104.613Z" stroke="white" stroke-width="0.5"/>
<path d="M56.7621 104.613C56.6386 103.994 57.1118 103.417 57.7427 103.417H58.8687C59.3456 103.417 59.756 103.754 59.8494 104.221L59.8566 104.258C59.9802 104.876 59.5069 105.453 58.876 105.453H57.75C57.2732 105.453 56.8627 105.117 56.7693 104.649L56.7621 104.613Z" stroke="white" stroke-width="0.5"/>
<path d="M65.7141 113.356C65.7141 114.46 64.8187 115.356 63.7141 115.356H41.0642C39.9629 115.356 39.0693 114.466 39.0673 113.364C39.0663 112.792 39.0655 112.173 39.0654 111.604C39.0653 110.515 39.9434 109.645 41.0321 109.645H63.7141C64.8187 109.645 65.7141 110.54 65.7141 111.644C65.7141 112.204 65.7141 112.799 65.7141 113.356Z" fill="#333399" stroke="#EAECF5" stroke-width="1.5" stroke-miterlimit="10"/>
<path d="M127.91 118.222C127.91 118.774 127.463 119.222 126.91 119.222H106.733C106.181 119.222 105.733 118.774 105.733 118.222C105.731 114.043 105.734 109.864 105.732 105.685C105.732 105.133 106.18 104.685 106.732 104.685H126.91C127.463 104.685 127.91 105.132 127.91 105.685C127.91 109.864 127.91 114.043 127.91 118.222Z" fill="#333399" stroke="#EAECF5" stroke-width="1.5" stroke-miterlimit="10"/>
<path d="M127.919 118.222C127.919 118.774 127.472 119.222 126.919 119.222H111.775C111.223 119.222 110.775 118.774 110.775 118.222C110.773 114.043 110.776 109.864 110.774 105.685C110.774 105.133 111.222 104.685 111.774 104.685H126.919C127.472 104.685 127.919 105.132 127.919 105.685C127.919 109.864 127.919 114.043 127.919 118.222Z" fill="#333399" stroke="#EAECF5" stroke-width="1.5" stroke-miterlimit="10"/>
<path d="M125.199 108.604C125.199 109.611 124.376 110.434 123.37 110.434C122.363 110.434 121.517 109.611 121.517 108.604C121.517 107.598 122.34 106.752 123.37 106.752C124.376 106.775 125.199 107.598 125.199 108.604Z" fill="#333399" stroke="#EAECF5" stroke-width="1.5" stroke-miterlimit="10"/>
<path d="M88.0889 104.376H92.5632" stroke="#EAECF5" stroke-width="1.5"/>
<path d="M88.0889 125.413H92.5632" stroke="#EAECF5" stroke-width="1.5"/>
<path d="M101.551 114.895C101.551 120.718 97.3934 125.426 92.2508 125.426C87.1081 125.426 82.9502 120.718 82.9502 114.895C82.9502 109.072 87.1081 104.364 92.2508 104.364C97.3934 104.364 101.551 109.072 101.551 114.895Z" fill="#333399" stroke="#EAECF5" stroke-width="1.5" stroke-miterlimit="10"/>
<path d="M97.3606 114.899C97.3606 118.079 95.0993 120.639 92.2909 120.639C89.4825 120.639 87.2212 118.079 87.2212 114.899C87.2212 111.719 89.4825 109.158 92.2909 109.158C95.0628 109.158 97.3606 111.719 97.3606 114.899Z" fill="#333399" stroke="#EAECF5" stroke-width="1.5" stroke-miterlimit="10"/>
<path d="M205.907 114.895C205.907 120.718 201.749 125.426 196.606 125.426C191.464 125.426 187.306 120.718 187.306 114.895C187.306 109.072 191.464 104.364 196.606 104.364C201.749 104.364 205.907 109.072 205.907 114.895Z" fill="#333399" stroke="#EAECF5" stroke-width="1.5" stroke-miterlimit="10"/>
<path d="M196.222 104.376H200.696" stroke="#EAECF5" stroke-width="1.5"/>
<path d="M196.222 125.413H200.696" stroke="#EAECF5" stroke-width="1.5"/>
<path d="M209.685 114.895C209.685 120.718 205.527 125.426 200.384 125.426C195.241 125.426 191.083 120.718 191.083 114.895C191.083 109.072 195.241 104.364 200.384 104.364C205.527 104.364 209.685 109.072 209.685 114.895Z" fill="#333399" stroke="#EAECF5" stroke-width="1.5" stroke-miterlimit="10"/>
<path d="M205.494 114.899C205.494 118.079 203.233 120.639 200.424 120.639C197.616 120.639 195.354 118.079 195.354 114.899C195.354 111.719 197.616 109.158 200.424 109.158C203.196 109.158 205.494 111.719 205.494 114.899Z" fill="#333399" stroke="#EAECF5" stroke-width="1.5" stroke-miterlimit="10"/>
<path d="M184.108 114.895C184.108 120.718 179.95 125.426 174.807 125.426C169.665 125.426 165.507 120.718 165.507 114.895C165.507 109.072 169.665 104.364 174.807 104.364C179.95 104.364 184.108 109.072 184.108 114.895Z" fill="#333399" stroke="#EAECF5" stroke-width="1.5" stroke-miterlimit="10"/>
<path d="M174.423 104.376H178.898" stroke="#EAECF5" stroke-width="1.5"/>
<path d="M174.423 125.413H178.898" stroke="#EAECF5" stroke-width="1.5"/>
<path d="M187.886 114.895C187.886 120.718 183.728 125.426 178.585 125.426C173.443 125.426 169.285 120.718 169.285 114.895C169.285 109.072 173.443 104.364 178.585 104.364C183.728 104.364 187.886 109.072 187.886 114.895Z" fill="#333399" stroke="#EAECF5" stroke-width="1.5" stroke-miterlimit="10"/>
<path d="M183.695 114.899C183.695 118.079 181.434 120.639 178.625 120.639C175.817 120.639 173.556 118.079 173.556 114.899C173.556 111.719 175.817 109.158 178.625 109.158C181.397 109.158 183.695 111.719 183.695 114.899Z" fill="#333399" stroke="#EAECF5" stroke-width="1.5" stroke-miterlimit="10"/>
<path d="M124.87 195.608H8.36963V261.593H124.87V195.608Z" fill="#333399" stroke="#EAECF5" stroke-width="1.5" stroke-miterlimit="10" stroke-linecap="round" stroke-linejoin="round"/>
<path d="M124.624 261.593H222.09V197.36L170.625 183.346L124.624 195.89L124.624 261.593Z" fill="#333399" stroke="#EAECF5" stroke-width="1.5" stroke-miterlimit="10" stroke-linecap="round" stroke-linejoin="round"/>
<path d="M124.658 195.608H8.354V209.156H124.658V195.608Z" fill="#333399" stroke="#EAECF5" stroke-width="1.5" stroke-miterlimit="10" stroke-linecap="round" stroke-linejoin="round"/>
<path d="M126.262 205.612V196.853L172.626 184.785L221.365 197.476V205.612H226.504V195.607L172.626 181.593L118.749 195.607V205.612H126.262Z" fill="#333399" stroke="#EAECF5" stroke-width="1.5" stroke-miterlimit="10" stroke-linecap="round" stroke-linejoin="round"/>
<path d="M127.709 205.612C128.261 205.612 128.709 205.164 128.709 204.612V197.626C128.709 197.171 129.016 196.773 129.457 196.658L174.821 184.851C174.987 184.808 175.16 184.808 175.325 184.85L223.103 197.281C223.544 197.396 223.851 197.794 223.851 198.249V204.612C223.851 205.164 224.299 205.612 224.851 205.612H227.99C228.542 205.612 228.99 205.164 228.99 204.612V196.381C228.99 195.925 228.682 195.527 228.241 195.413L175.325 181.658C175.16 181.615 174.987 181.615 174.821 181.658L121.982 195.412C121.542 195.527 121.234 195.925 121.234 196.38V204.612C121.234 205.164 121.682 205.612 122.234 205.612H127.709Z" fill="#333399" stroke="#EAECF5" stroke-width="1.5" stroke-miterlimit="10" stroke-linecap="round" stroke-linejoin="round"/>
<path d="M120.4 195.608H4.04736C3.49508 195.608 3.04736 196.056 3.04736 196.608V204.613C3.04736 205.165 3.49508 205.613 4.04737 205.613H120.4C120.952 205.613 121.4 205.165 121.4 204.613V196.608C121.4 196.056 120.952 195.608 120.4 195.608Z" fill="#333399" stroke="#EAECF5" stroke-width="1.5" stroke-miterlimit="10" stroke-linecap="round" stroke-linejoin="round"/>
<path d="M56.8943 181.593L3.1333 195.607H121.317L175.079 181.593H56.8943Z" fill="#333399" stroke="#EAECF5" stroke-width="1.5" stroke-miterlimit="10" stroke-linecap="round" stroke-linejoin="round"/>
<path d="M143.32 212.152H136.209C135.657 212.152 135.209 212.6 135.209 213.152V215.677C135.209 216.229 135.657 216.677 136.209 216.677H143.32C143.872 216.677 144.32 216.229 144.32 215.677V213.152C144.32 212.6 143.872 212.152 143.32 212.152Z" stroke="white" stroke-width="1.5" stroke-miterlimit="10" stroke-linecap="round" stroke-linejoin="round"/>
<path d="M194.653 212.152H187.543C186.991 212.152 186.543 212.6 186.543 213.152V215.677C186.543 216.229 186.991 216.677 187.543 216.677H194.653C195.206 216.677 195.653 216.229 195.653 215.677V213.152C195.653 212.6 195.206 212.152 194.653 212.152Z" stroke="white" stroke-width="1.5" stroke-miterlimit="10" stroke-linecap="round" stroke-linejoin="round"/>
<path d="M177.535 212.152H170.425C169.873 212.152 169.425 212.6 169.425 213.152V215.677C169.425 216.229 169.873 216.677 170.425 216.677H177.535C178.087 216.677 178.535 216.229 178.535 215.677V213.152C178.535 212.6 178.087 212.152 177.535 212.152Z" stroke="white" stroke-width="1.5" stroke-miterlimit="10" stroke-linecap="round" stroke-linejoin="round"/>
<path d="M160.424 212.152H153.313C152.761 212.152 152.313 212.6 152.313 213.152V215.677C152.313 216.229 152.761 216.677 153.313 216.677H160.424C160.976 216.677 161.424 216.229 161.424 215.677V213.152C161.424 212.6 160.976 212.152 160.424 212.152Z" stroke="white" stroke-width="1.5" stroke-miterlimit="10" stroke-linecap="round" stroke-linejoin="round"/>
<path d="M211.764 212.152H204.654C204.102 212.152 203.654 212.6 203.654 213.152V215.677C203.654 216.229 204.102 216.677 204.654 216.677H211.764C212.316 216.677 212.764 216.229 212.764 215.677V213.152C212.764 212.6 212.316 212.152 211.764 212.152Z" stroke="white" stroke-width="1.5" stroke-miterlimit="10" stroke-linecap="round" stroke-linejoin="round"/>
<path d="M47.6635 222.975H24.2817C23.7295 222.975 23.2817 223.422 23.2817 223.975V260.592C23.2817 261.144 23.7295 261.592 24.2817 261.592H47.6635C48.2157 261.592 48.6635 261.144 48.6635 260.592V223.975C48.6635 223.422 48.2157 222.975 47.6635 222.975Z" fill="#333399" stroke="#EAECF5" stroke-width="1.5" stroke-miterlimit="10" stroke-linecap="round" stroke-linejoin="round"/>
<path d="M60.1356 222.975H25.9556C25.4033 222.975 24.9556 223.422 24.9556 223.975V260.592C24.9556 261.144 25.4033 261.592 25.9556 261.592H60.1356C60.6879 261.592 61.1356 261.144 61.1356 260.592V223.975C61.1356 223.422 60.6879 222.975 60.1356 222.975Z" fill="#333399" stroke="#EAECF5" stroke-width="1.5" stroke-miterlimit="10" stroke-linecap="round" stroke-linejoin="round"/>
<path d="M25.0308 224.922H60.6814" stroke="white" stroke-width="0.5" stroke-miterlimit="10" stroke-linecap="round" stroke-linejoin="round"/>
<path d="M25.0308 229.827H60.6814" stroke="white" stroke-width="0.5" stroke-miterlimit="10" stroke-linecap="round" stroke-linejoin="round"/>
<path d="M25.0308 234.77H60.6814" stroke="white" stroke-width="0.5" stroke-miterlimit="10" stroke-linecap="round" stroke-linejoin="round"/>
<path d="M25.0308 239.674H60.6814" stroke="white" stroke-width="0.5" stroke-miterlimit="10" stroke-linecap="round" stroke-linejoin="round"/>
<path d="M25.0308 244.579H60.6814" stroke="white" stroke-width="0.5" stroke-miterlimit="10" stroke-linecap="round" stroke-linejoin="round"/>
<path d="M25.0308 249.523H60.6814" stroke="white" stroke-width="0.5" stroke-miterlimit="10" stroke-linecap="round" stroke-linejoin="round"/>
<path d="M25.0308 254.43H60.6814" stroke="white" stroke-width="0.5" stroke-miterlimit="10" stroke-linecap="round" stroke-linejoin="round"/>
<path d="M25.0308 259.335H60.6814" stroke="white" stroke-width="0.5" stroke-miterlimit="10" stroke-linecap="round" stroke-linejoin="round"/>
<path d="M96.3773 222.975H72.9956C72.4433 222.975 71.9956 223.422 71.9956 223.975V260.592C71.9956 261.144 72.4433 261.592 72.9956 261.592H96.3773C96.9296 261.592 97.3773 261.144 97.3773 260.592V223.975C97.3773 223.422 96.9296 222.975 96.3773 222.975Z" fill="#333399" stroke="#EAECF5" stroke-width="1.5" stroke-miterlimit="10" stroke-linecap="round" stroke-linejoin="round"/>
<path d="M108.849 222.975H74.6694C74.1171 222.975 73.6694 223.422 73.6694 223.975V260.592C73.6694 261.144 74.1171 261.592 74.6694 261.592H108.849C109.402 261.592 109.849 261.144 109.849 260.592V223.975C109.849 223.422 109.402 222.975 108.849 222.975Z" fill="#333399" stroke="#EAECF5" stroke-width="1.5" stroke-miterlimit="10" stroke-linecap="round" stroke-linejoin="round"/>
<path d="M73.749 224.922H109.4" stroke="white" stroke-width="0.5" stroke-miterlimit="10" stroke-linecap="round" stroke-linejoin="round"/>
<path d="M73.749 229.827H109.4" stroke="white" stroke-width="0.5" stroke-miterlimit="10" stroke-linecap="round" stroke-linejoin="round"/>
<path d="M73.749 234.77H109.4" stroke="white" stroke-width="0.5" stroke-miterlimit="10" stroke-linecap="round" stroke-linejoin="round"/>
<path d="M73.749 239.674H109.4" stroke="white" stroke-width="0.5" stroke-miterlimit="10" stroke-linecap="round" stroke-linejoin="round"/>
<path d="M73.749 244.579H109.4" stroke="white" stroke-width="0.5" stroke-miterlimit="10" stroke-linecap="round" stroke-linejoin="round"/>
<path d="M73.749 249.523H109.4" stroke="white" stroke-width="0.5" stroke-miterlimit="10" stroke-linecap="round" stroke-linejoin="round"/>
<path d="M73.749 254.43H109.4" stroke="white" stroke-width="0.5" stroke-miterlimit="10" stroke-linecap="round" stroke-linejoin="round"/>
<path d="M73.749 259.335H109.4" stroke="white" stroke-width="0.5" stroke-miterlimit="10" stroke-linecap="round" stroke-linejoin="round"/>
<path d="M296.516 46.4268V46.4268H458.532L458.532 253.268L296.516 253.268L296.516 46.4268Z" fill="#333399" stroke="#EAECF5" stroke-width="2"/>
<rect x="329.523" y="200.965" width="41.9305" height="41.2902" rx="20.6451" transform="rotate(-11.362 329.523 200.965)" fill="#333399" stroke="white" stroke-width="2"/>
<rect x="336.191" y="205.25" width="30.5308" height="30.259" rx="15.1295" transform="rotate(-11.362 336.191 205.25)" fill="#333399" stroke="white" stroke-width="2"/>
<path d="M345.677 217.783L353.284 222.844L362.494 209.002" stroke="white" stroke-width="2" stroke-linecap="round"/>
<path d="M296.921 154.158H458.006" stroke="white" stroke-width="0.5"/>
<path d="M335.001 86.0674H420.047" stroke="white" stroke-width="2"/>
<path d="M312.658 76.0801H352.004" stroke="white" stroke-width="2"/>
<path d="M312.658 65.9004H352.004" stroke="white" stroke-width="2"/>
<path d="M312.658 104.096H442.389" stroke="white" stroke-width="2"/>
<path d="M312.658 116.6H442.389" stroke="white" stroke-width="2"/>
<path d="M312.658 129.104H442.389" stroke="white" stroke-width="2"/>
<path d="M312.658 141.608H442.389" stroke="white" stroke-width="2"/>
<path d="M312.658 166.616H442.389" stroke="white" stroke-width="2"/>
<path d="M312.658 179.119H442.389" stroke="white" stroke-width="2"/>
<path d="M312.658 191.621H442.389" stroke="white" stroke-width="2"/>
<path d="M312.658 204.127H442.389" stroke="white" stroke-width="2"/>
<path d="M411.895 223.492H442.387" stroke="white" stroke-width="2"/>
<path d="M411.878 233.443H442.397" stroke="white" stroke-width="2"/>
</svg>
