<svg width="138" height="108" viewBox="0 0 138 108" fill="none" xmlns="http://www.w3.org/2000/svg">
<path d="M89.1601 36.9004V87.3741H55.9724C55.9724 82.0895 51.7123 77.8294 46.4277 77.8294C41.143 77.8294 36.883 82.0895 36.883 87.3741H25.7744V36.9004H89.1601Z" fill="#CC3333"/>
<g filter="url(#filter0_d_2351_11449)">
<path d="M39.3799 44.6836L39.3799 58.1045L39.3799 71.5254" stroke="white" stroke-width="5"/>
</g>
<g filter="url(#filter1_d_2351_11449)">
<path d="M57.4673 44.6836V58.6562V72.6289" stroke="white" stroke-width="5"/>
</g>
<g filter="url(#filter2_d_2351_11449)">
<path d="M75.5532 44.6836V58.6562V78.6855" stroke="white" stroke-width="5"/>
</g>
<path d="M131.223 69.4177V87.4287H119.629C119.629 82.144 115.369 77.8839 110.085 77.8839C104.8 77.8839 100.54 82.144 100.54 87.4287H89.2158V49.7891H118.335L131.223 69.4177Z" fill="#CC3333"/>
<path d="M55.4045 88.908C56.2489 83.7046 52.7153 78.8019 47.5119 77.9574C42.3085 77.1129 37.4058 80.6465 36.5613 85.8499C35.7168 91.0533 39.2504 95.9561 44.4538 96.8005C49.6572 97.645 54.56 94.1114 55.4045 88.908Z" fill="#CC3333"/>
<path d="M116.818 94.1202C120.546 90.3928 120.546 84.3494 116.818 80.622C113.091 76.8946 107.048 76.8946 103.32 80.622C99.5929 84.3494 99.5929 90.3928 103.32 94.1202C107.048 97.8476 113.091 97.8476 116.818 94.1202Z" fill="#CC3333"/>
<g filter="url(#filter3_d_2351_11449)">
<path fill-rule="evenodd" clip-rule="evenodd" d="M23.2744 34.4004H10.4624V39.4004H23.2744V50.7402H14.8624V55.7402H23.2744V67.998H4.09863V72.998H23.2744V84.873H14.7058V89.873H23.2744V89.8741H25.7744H34.7216C35.7225 94.5972 39.5271 98.4484 44.5789 99.2683C50.9549 100.303 56.9732 96.1287 58.2924 89.8741H86.7143V89.9287H89.2143H98.2965C98.7689 92.1125 99.8537 94.1905 101.551 95.8879C106.255 100.592 113.881 100.592 118.585 95.8879C120.282 94.1905 121.367 92.1125 121.839 89.9287H131.222H133.722V87.4287V69.4177V68.6703L133.312 68.0456L120.424 48.4169L119.683 47.2891H118.334H91.6601V36.9004V34.4004H89.1601H29.5518H25.7744H23.2744ZM28.2949 84.873V84.8741H34.6413C35.7884 79.4137 40.6198 75.3294 46.4277 75.3294C46.6355 75.3294 46.842 75.3346 47.0472 75.345C47.5078 75.3662 47.972 75.414 48.4381 75.4896C53.4864 76.3089 57.2893 80.1554 58.2934 84.8741H86.6601V39.4004H29.5518H28.2744V50.7402H28.4515V55.7402H28.2744V67.998H28.6884V72.998H28.2744V84.873H28.2949ZM103.039 87.4287V87.8364C103.147 89.4812 103.829 91.0953 105.087 92.3524C107.838 95.1035 112.298 95.1035 115.049 92.3524C116.981 90.4206 117.556 87.6459 116.775 85.2121C115.851 82.4013 113.212 80.3839 110.083 80.3839C106.179 80.3839 103.039 83.5247 103.039 87.4287ZM121.87 84.9287C121.774 84.4719 121.652 84.0247 121.506 83.5888C120.935 81.858 119.961 80.2309 118.585 78.8543C113.881 74.1506 106.255 74.1506 101.551 78.8543C99.8239 80.5815 98.7309 82.7027 98.2722 84.9287H91.7143V52.2891H101.003V68.6656V71.1656H103.503H128.722V84.9287H121.87ZM126.096 66.1656L116.985 52.2891H106.003V66.1656H126.096ZM46.8555 80.3421C43.3171 80.1632 40.1355 82.6717 39.5547 86.2504C38.9314 90.0909 41.5394 93.7095 45.3799 94.3328C49.2204 94.9561 52.839 92.348 53.4623 88.5075L53.4724 88.4438V87.3741C53.4724 83.6139 50.5586 80.5617 46.8555 80.3421Z" fill="white"/>
</g>
<g filter="url(#filter4_d_2351_11449)">
<path d="M39.5563 8.73659L40.1044 9.83998L40.9179 11.4777L42.7268 11.7453L43.9626 11.9281L43.0621 12.8138L41.7558 14.0988L42.0675 15.9044L42.2719 17.0885L41.1704 16.5161L39.551 15.6744L37.9338 16.5205L36.8934 17.0648L37.0937 15.9044L37.4069 14.0898L36.0888 12.8038L35.1857 11.9228L36.3858 11.7453L38.1948 11.4777L39.0082 9.83998L39.5563 8.73659Z" stroke="white" stroke-width="7" stroke-miterlimit="10" shape-rendering="crispEdges"/>
</g>
<g filter="url(#filter5_d_2351_11449)">
<path d="M73.6787 8.77844L74.206 9.83998L75.0195 11.4777L76.8284 11.7453L78.0642 11.9281L77.1637 12.8138L75.8573 14.0988L76.169 15.9044L76.3734 17.0885L75.272 16.5161L73.6526 15.6744L72.0354 16.5205L70.9949 17.0648L71.1952 15.9044L71.5085 14.0898L70.1904 12.8038L69.2927 11.9281L70.5329 11.7457L72.3555 11.4777L73.1664 9.82349L73.6787 8.77844Z" stroke="white" stroke-width="7" stroke-miterlimit="10" shape-rendering="crispEdges"/>
</g>
<g filter="url(#filter6_d_2351_11449)">
<path d="M107.989 8.77844L108.501 9.82349L109.312 11.4777L111.134 11.7457L112.375 11.9281L111.477 12.8038L110.159 14.0898L110.472 15.9044L110.672 17.0648L109.632 16.5205L108.015 15.6744L106.395 16.5161L105.294 17.0885L105.498 15.9044L105.81 14.0988L104.504 12.8138L103.603 11.9281L104.839 11.7453L106.648 11.4777L107.461 9.83999L107.989 8.77844Z" stroke="white" stroke-width="7" stroke-miterlimit="10" shape-rendering="crispEdges"/>
</g>
<defs>
<filter id="filter0_d_2351_11449" x="32.8799" y="44.6836" width="13" height="34.8418" filterUnits="userSpaceOnUse" color-interpolation-filters="sRGB">
<feFlood flood-opacity="0" result="BackgroundImageFix"/>
<feColorMatrix in="SourceAlpha" type="matrix" values="0 0 0 0 0 0 0 0 0 0 0 0 0 0 0 0 0 0 127 0" result="hardAlpha"/>
<feOffset dy="4"/>
<feGaussianBlur stdDeviation="2"/>
<feComposite in2="hardAlpha" operator="out"/>
<feColorMatrix type="matrix" values="0 0 0 0 0 0 0 0 0 0 0 0 0 0 0 0 0 0 0.25 0"/>
<feBlend mode="normal" in2="BackgroundImageFix" result="effect1_dropShadow_2351_11449"/>
<feBlend mode="normal" in="SourceGraphic" in2="effect1_dropShadow_2351_11449" result="shape"/>
</filter>
<filter id="filter1_d_2351_11449" x="50.9673" y="44.6836" width="13" height="35.9453" filterUnits="userSpaceOnUse" color-interpolation-filters="sRGB">
<feFlood flood-opacity="0" result="BackgroundImageFix"/>
<feColorMatrix in="SourceAlpha" type="matrix" values="0 0 0 0 0 0 0 0 0 0 0 0 0 0 0 0 0 0 127 0" result="hardAlpha"/>
<feOffset dy="4"/>
<feGaussianBlur stdDeviation="2"/>
<feComposite in2="hardAlpha" operator="out"/>
<feColorMatrix type="matrix" values="0 0 0 0 0 0 0 0 0 0 0 0 0 0 0 0 0 0 0.25 0"/>
<feBlend mode="normal" in2="BackgroundImageFix" result="effect1_dropShadow_2351_11449"/>
<feBlend mode="normal" in="SourceGraphic" in2="effect1_dropShadow_2351_11449" result="shape"/>
</filter>
<filter id="filter2_d_2351_11449" x="69.0532" y="44.6836" width="13" height="42.002" filterUnits="userSpaceOnUse" color-interpolation-filters="sRGB">
<feFlood flood-opacity="0" result="BackgroundImageFix"/>
<feColorMatrix in="SourceAlpha" type="matrix" values="0 0 0 0 0 0 0 0 0 0 0 0 0 0 0 0 0 0 127 0" result="hardAlpha"/>
<feOffset dy="4"/>
<feGaussianBlur stdDeviation="2"/>
<feComposite in2="hardAlpha" operator="out"/>
<feColorMatrix type="matrix" values="0 0 0 0 0 0 0 0 0 0 0 0 0 0 0 0 0 0 0.25 0"/>
<feBlend mode="normal" in2="BackgroundImageFix" result="effect1_dropShadow_2351_11449"/>
<feBlend mode="normal" in="SourceGraphic" in2="effect1_dropShadow_2351_11449" result="shape"/>
</filter>
<filter id="filter3_d_2351_11449" x="0.0986328" y="34.4004" width="137.623" height="73.0254" filterUnits="userSpaceOnUse" color-interpolation-filters="sRGB">
<feFlood flood-opacity="0" result="BackgroundImageFix"/>
<feColorMatrix in="SourceAlpha" type="matrix" values="0 0 0 0 0 0 0 0 0 0 0 0 0 0 0 0 0 0 127 0" result="hardAlpha"/>
<feOffset dy="4"/>
<feGaussianBlur stdDeviation="2"/>
<feComposite in2="hardAlpha" operator="out"/>
<feColorMatrix type="matrix" values="0 0 0 0 0 0 0 0 0 0 0 0 0 0 0 0 0 0 0.25 0"/>
<feBlend mode="normal" in2="BackgroundImageFix" result="effect1_dropShadow_2351_11449"/>
<feBlend mode="normal" in="SourceGraphic" in2="effect1_dropShadow_2351_11449" result="shape"/>
</filter>
<filter id="filter4_d_2351_11449" x="23.6846" y="0.869141" width="31.7437" height="30.5811" filterUnits="userSpaceOnUse" color-interpolation-filters="sRGB">
<feFlood flood-opacity="0" result="BackgroundImageFix"/>
<feColorMatrix in="SourceAlpha" type="matrix" values="0 0 0 0 0 0 0 0 0 0 0 0 0 0 0 0 0 0 127 0" result="hardAlpha"/>
<feOffset dy="4"/>
<feGaussianBlur stdDeviation="2"/>
<feComposite in2="hardAlpha" operator="out"/>
<feColorMatrix type="matrix" values="0 0 0 0 0 0 0 0 0 0 0 0 0 0 0 0 0 0 0.25 0"/>
<feBlend mode="normal" in2="BackgroundImageFix" result="effect1_dropShadow_2351_11449"/>
<feBlend mode="normal" in="SourceGraphic" in2="effect1_dropShadow_2351_11449" result="shape"/>
</filter>
<filter id="filter5_d_2351_11449" x="57.7861" y="0.869141" width="31.7434" height="30.5811" filterUnits="userSpaceOnUse" color-interpolation-filters="sRGB">
<feFlood flood-opacity="0" result="BackgroundImageFix"/>
<feColorMatrix in="SourceAlpha" type="matrix" values="0 0 0 0 0 0 0 0 0 0 0 0 0 0 0 0 0 0 127 0" result="hardAlpha"/>
<feOffset dy="4"/>
<feGaussianBlur stdDeviation="2"/>
<feComposite in2="hardAlpha" operator="out"/>
<feColorMatrix type="matrix" values="0 0 0 0 0 0 0 0 0 0 0 0 0 0 0 0 0 0 0.25 0"/>
<feBlend mode="normal" in2="BackgroundImageFix" result="effect1_dropShadow_2351_11449"/>
<feBlend mode="normal" in="SourceGraphic" in2="effect1_dropShadow_2351_11449" result="shape"/>
</filter>
<filter id="filter6_d_2351_11449" x="92.1377" y="0.869141" width="31.7437" height="30.5811" filterUnits="userSpaceOnUse" color-interpolation-filters="sRGB">
<feFlood flood-opacity="0" result="BackgroundImageFix"/>
<feColorMatrix in="SourceAlpha" type="matrix" values="0 0 0 0 0 0 0 0 0 0 0 0 0 0 0 0 0 0 127 0" result="hardAlpha"/>
<feOffset dy="4"/>
<feGaussianBlur stdDeviation="2"/>
<feComposite in2="hardAlpha" operator="out"/>
<feColorMatrix type="matrix" values="0 0 0 0 0 0 0 0 0 0 0 0 0 0 0 0 0 0 0.25 0"/>
<feBlend mode="normal" in2="BackgroundImageFix" result="effect1_dropShadow_2351_11449"/>
<feBlend mode="normal" in="SourceGraphic" in2="effect1_dropShadow_2351_11449" result="shape"/>
</filter>
</defs>
</svg>
