<svg width="101" height="37" viewBox="0 0 101 37" fill="none" xmlns="http://www.w3.org/2000/svg">
<path d="M21.1031 0.500023C22.1996 0.483966 23.2883 0.661451 24.3021 1.02153C25.3158 1.38162 26.2331 1.91666 26.9974 2.59366C27.7861 3.2504 28.4095 4.03966 28.8291 4.91245C29.2487 5.78525 29.4554 6.72295 29.4364 7.66738C29.4539 8.61249 29.2465 9.55069 28.8271 10.4243C28.4076 11.2978 27.785 12.0882 26.9974 12.7469C26.2358 13.4277 25.3193 13.966 24.3051 14.3283C23.291 14.6905 22.201 14.8689 21.1031 14.8522H8.6575V23.775H2.39065V3.67255L0.547852 0.500023H21.1031ZM21.1031 9.44026C21.3725 9.44554 21.6401 9.40206 21.8887 9.31265C22.1373 9.22324 22.3613 9.08989 22.5462 8.92123C22.7362 8.75636 22.8862 8.56059 22.9874 8.34532C23.0886 8.13005 23.139 7.89959 23.1356 7.66738C23.1356 7.20337 22.9215 6.75836 22.5403 6.43025C22.1592 6.10215 21.6422 5.91782 21.1031 5.91782H8.6575V9.41693L21.1031 9.44026Z" fill="#314698"/>
<path d="M37.9411 5.91755C37.6714 5.91467 37.4036 5.95805 37.1536 6.04516C36.9035 6.13227 36.676 6.26136 36.4845 6.42492C36.2948 6.58698 36.1458 6.78086 36.0467 6.99454C35.9477 7.20822 35.9007 7.43714 35.9086 7.6671C35.9086 8.13112 36.1228 8.57612 36.5039 8.90423C36.8851 9.23233 37.4021 9.41666 37.9411 9.41666H48.3069C49.4032 9.41359 50.4894 9.59691 51.5031 9.95609C52.5169 10.3153 53.4383 10.8432 54.2145 11.5097C54.9906 12.1762 55.6062 12.968 56.026 13.8398C56.4457 14.7116 56.6613 15.6462 56.6604 16.5898C56.6675 17.5361 56.4576 18.4743 56.0427 19.3505C55.6278 20.2268 55.0161 21.024 54.2425 21.6964C53.469 22.3687 52.5489 22.903 51.535 23.2687C50.521 23.6343 49.4333 23.8241 48.334 23.8272H29.6418L35.9086 18.3861H48.334C48.873 18.3861 49.39 18.2017 49.7711 17.8736C50.1523 17.5455 50.3664 17.1005 50.3664 16.6365C50.3709 16.4049 50.3196 16.1749 50.2159 15.9611C50.1121 15.7474 49.9581 15.5544 49.7635 15.3943C49.5725 15.2297 49.3453 15.0995 49.0952 15.0114C48.8451 14.9233 48.5771 14.879 48.3069 14.8811H37.9411C36.8454 14.8908 35.7591 14.7063 34.7497 14.3391C33.7404 13.9719 32.8296 13.4298 32.074 12.7467C31.2878 12.0862 30.6665 11.2944 30.2483 10.42C29.8301 9.54555 29.6237 8.6068 29.6418 7.66127C29.6231 6.71741 29.8293 5.78027 30.2476 4.90765C30.6659 4.03503 31.2875 3.24543 32.074 2.58755C32.8357 1.91449 33.7488 1.3822 34.7576 1.02323C35.7664 0.664251 36.8497 0.48613 37.9411 0.499749H56.6875L50.3935 5.91755H37.9411Z" fill="#314698"/>
<path d="M87.972 13.9123L93.1142 0.499023H100.838L91.9354 23.7798H84.0019L78.8529 10.2207L73.6565 23.7798H65.7704L56.8613 0.499023H64.5577L69.6999 13.9123L74.8353 0.499023H82.8366L87.972 13.9123Z" fill="#314698"/>
<path d="M2.60352 29.0752V25.3545H3.15906V29.0752H2.60352Z" fill="#314698"/>
<path d="M5.74281 26.1592C5.88855 26.1605 6.02855 26.2083 6.13576 26.2933C6.26765 26.4079 6.36126 26.5509 6.40676 26.7074C6.48208 26.9388 6.51634 27.1787 6.50838 27.4189V29.0751H5.97316V27.553C5.98503 27.3794 5.95026 27.2058 5.87154 27.0456C5.84823 26.9984 5.80967 26.9579 5.76044 26.929C5.7112 26.9 5.65336 26.8838 5.59376 26.8823C5.50993 26.8843 5.43006 26.9134 5.37019 26.964C5.29255 27.0346 5.23666 27.1208 5.20759 27.2148C5.1687 27.3581 5.1505 27.505 5.15339 27.6521V29.0751H4.61816V26.2117H5.12629V26.999L5.03144 26.7424C5.08386 26.5789 5.18149 26.4289 5.31599 26.305C5.43114 26.2109 5.58403 26.1587 5.74281 26.1592Z" fill="#314698"/>
<path d="M7.68457 26.9143V26.2786H8.96504V26.9143H7.68457ZM7.96912 29.0779V26.162C7.94455 25.8944 7.99811 25.6257 8.12494 25.3805C8.17248 25.2946 8.24741 25.2222 8.34097 25.1716C8.43454 25.121 8.54289 25.0943 8.65339 25.0947C8.73195 25.0948 8.8099 25.1067 8.88374 25.1297C8.95303 25.1579 9.01519 25.1975 9.06667 25.2464L8.92439 25.8295C8.89917 25.7968 8.86403 25.7706 8.82277 25.7537C8.78499 25.7453 8.74536 25.7453 8.70759 25.7537C8.66881 25.755 8.63119 25.7654 8.5989 25.784C8.56661 25.8025 8.54092 25.8284 8.52467 25.8587C8.47812 25.9566 8.45729 26.0622 8.46369 26.1678V26.4302V26.786V29.0779H7.96912Z" fill="#314698"/>
<path d="M10.1562 29.0781V26.2147H10.6711V27.0195L10.5966 26.7862C10.6323 26.6159 10.724 26.4581 10.8608 26.3313C10.918 26.2807 10.9865 26.2406 11.0622 26.2135C11.1379 26.1865 11.2192 26.173 11.3012 26.1739V26.932H11.186C11.1116 26.9333 11.0389 26.9518 10.9757 26.9857C10.9125 27.0196 10.8611 27.0675 10.827 27.1245C10.7263 27.3062 10.6797 27.5066 10.6915 27.7077V29.0781H10.1562Z" fill="#314698"/>
<path d="M13.0219 29.0774C12.8852 29.0799 12.7523 29.0383 12.6493 28.9608C12.5395 28.8779 12.4575 28.7712 12.4122 28.6517C12.304 28.3655 12.304 28.0572 12.4122 27.7711C12.4563 27.6513 12.5443 27.5469 12.6629 27.4736C12.7999 27.3974 12.9605 27.3588 13.1236 27.3628H13.6114V27.8469H13.1778C13.1291 27.8421 13.0799 27.8481 13.0348 27.8645C12.9897 27.8808 12.9503 27.9069 12.9203 27.9402C12.872 28.0128 12.8485 28.0957 12.8526 28.1793C12.8476 28.2682 12.8761 28.3562 12.9339 28.4301C12.9587 28.4594 12.9914 28.4832 13.0291 28.4994C13.0668 28.5156 13.1085 28.5239 13.1507 28.5234C13.197 28.5218 13.2424 28.5122 13.2843 28.4951C13.3262 28.4781 13.3637 28.454 13.3946 28.4242C13.4736 28.3425 13.5251 28.2437 13.5436 28.1385L13.6317 28.5176C13.6042 28.6716 13.5293 28.8166 13.4149 28.9374C13.3645 28.9832 13.3034 29.0193 13.2357 29.0435C13.168 29.0676 13.0952 29.0791 13.0219 29.0774ZM13.5504 29.0774V28.4942V28.3834V27.3862C13.5591 27.2447 13.5241 27.1039 13.4488 26.9779C13.4173 26.9297 13.3709 26.8899 13.3146 26.8631C13.2584 26.8363 13.1945 26.8236 13.1303 26.8263C13.0277 26.8269 12.9271 26.851 12.839 26.8963C12.7436 26.9482 12.6608 27.0155 12.5951 27.0946L12.4054 26.5114C12.5036 26.4058 12.6258 26.3185 12.7645 26.2548C12.8997 26.1984 13.0478 26.1685 13.1981 26.1673C13.3324 26.1599 13.4665 26.1843 13.5859 26.2377C13.7053 26.2912 13.8055 26.3717 13.8756 26.4706C14.0532 26.765 14.1329 27.096 14.1059 27.427V29.0774H13.5504Z" fill="#314698"/>
<path d="M17.4297 29.0752V25.3545H17.9852V28.3579H19.1912V29.0752H17.4297Z" fill="#314698"/>
<path d="M21.2418 29.077C21.1444 29.0761 21.0482 29.0587 20.9587 29.0256C20.8691 28.9926 20.7881 28.9447 20.7202 28.8846C20.5542 28.7386 20.4311 28.5607 20.3611 28.3655C20.1895 27.8729 20.1895 27.3477 20.3611 26.8551C20.4311 26.6599 20.5542 26.482 20.7202 26.336C20.8601 26.2189 21.0467 26.1521 21.2418 26.1494C21.4376 26.1496 21.6252 26.2168 21.7635 26.336C21.9325 26.4787 22.0582 26.6549 22.1294 26.8492C22.3011 27.3439 22.3011 27.8709 22.1294 28.3655C22.06 28.5622 21.9341 28.7407 21.7635 28.8846C21.6963 28.9455 21.6154 28.9939 21.5257 29.027C21.436 29.0601 21.3394 29.0771 21.2418 29.077ZM21.2418 28.4005C21.2877 28.4 21.333 28.3914 21.3749 28.3754C21.4168 28.3594 21.4545 28.3362 21.4857 28.3072C21.5649 28.2277 21.6228 28.1341 21.6551 28.0331C21.6988 27.8964 21.7193 27.755 21.7161 27.6132C21.7234 27.4781 21.7098 27.3428 21.6754 27.2108C21.643 27.1116 21.5851 27.0199 21.5061 26.9425C21.476 26.9124 21.4385 26.8884 21.3963 26.8723C21.3541 26.8561 21.3083 26.8483 21.2622 26.8492C21.2172 26.8495 21.1729 26.858 21.132 26.874C21.0911 26.8901 21.0547 26.9135 21.025 26.9425C20.946 27.0199 20.8881 27.1116 20.8557 27.2108C20.812 27.3495 20.7915 27.4929 20.7947 27.6365C20.7915 27.7783 20.812 27.9197 20.8557 28.0564C20.888 28.1574 20.9458 28.251 21.025 28.3305C21.0818 28.3831 21.1589 28.4163 21.2418 28.4238V28.4005Z" fill="#314698"/>
<path d="M24.3282 28.9207C24.1528 28.9185 23.9852 28.8579 23.8607 28.7515C23.7099 28.6133 23.5965 28.448 23.5287 28.2675C23.4421 28.0339 23.4009 27.7895 23.4068 27.5443C23.4014 27.2992 23.4426 27.0549 23.5287 26.8212C23.5963 26.6424 23.7098 26.4789 23.8607 26.343C23.9852 26.2366 24.1528 26.176 24.3282 26.1738C24.4049 26.1732 24.481 26.1858 24.5519 26.2109C24.6229 26.2359 24.6873 26.2729 24.7415 26.3196C24.8781 26.4458 24.9739 26.6007 25.0192 26.7687C25.094 27.0221 25.1282 27.283 25.1209 27.5443C25.1286 27.8057 25.0944 28.0667 25.0192 28.32C24.9724 28.4892 24.8769 28.6457 24.7415 28.7749C24.6873 28.8216 24.6229 28.8586 24.5519 28.8836C24.481 28.9087 24.4049 28.9213 24.3282 28.9207ZM24.3892 30.1278C24.2157 30.1262 24.0447 30.0924 23.8878 30.0287C23.726 29.965 23.5877 29.8641 23.4881 29.7371L23.6981 29.1539C23.7732 29.2535 23.8756 29.3356 23.9962 29.393C24.1028 29.4475 24.2246 29.4757 24.3485 29.4747C24.4315 29.4795 24.5143 29.4639 24.5875 29.4299C24.6606 29.3958 24.721 29.3446 24.7618 29.2822C24.8624 29.1006 24.9068 28.8997 24.8905 28.699V28.2617V27.5443V26.2147H25.3986V28.5824C25.429 28.9843 25.338 29.3861 25.1344 29.7488C25.0602 29.863 24.9521 29.9583 24.8212 30.0249C24.6903 30.0915 24.5412 30.127 24.3892 30.1278ZM24.3892 28.2442C24.4828 28.2442 24.5727 28.2129 24.6398 28.1567C24.7175 28.0874 24.7755 28.0035 24.8092 27.9117C24.8905 27.6718 24.8905 27.4169 24.8092 27.1769C24.7739 27.0875 24.7161 27.0058 24.6398 26.9378C24.5728 26.8815 24.4828 26.85 24.3892 26.85C24.2955 26.85 24.2056 26.8815 24.1385 26.9378C24.0579 27.0039 23.9974 27.086 23.9623 27.1769C23.881 27.4169 23.881 27.6718 23.9623 27.9117C23.9963 28.0048 24.0569 28.089 24.1385 28.1567C24.1772 28.1898 24.2242 28.2149 24.2758 28.2301C24.3275 28.2452 24.3825 28.25 24.4366 28.2442H24.3892Z" fill="#314698"/>
<path d="M27.1423 25.816C27.0909 25.8165 27.0405 25.804 26.9971 25.7802C26.9538 25.7564 26.9195 25.7222 26.8984 25.6818C26.8347 25.582 26.8042 25.469 26.8103 25.3552C26.8049 25.2415 26.8353 25.1287 26.8984 25.0287C26.9208 24.9892 26.9554 24.9558 26.9985 24.9321C27.0415 24.9084 27.0913 24.8954 27.1423 24.8945C27.1913 24.8965 27.2389 24.9093 27.2805 24.9318C27.322 24.9543 27.3561 24.9857 27.3794 25.0228C27.4464 25.1196 27.4793 25.231 27.4743 25.3436C27.4772 25.4608 27.447 25.5769 27.3862 25.6818C27.3638 25.7213 27.3292 25.7547 27.2862 25.7784C27.2431 25.8021 27.1934 25.8151 27.1423 25.816ZM26.8713 29.076V26.2125H27.4065V29.076H26.8713Z" fill="#314698"/>
<path d="M29.4528 29.0782C29.2958 29.0784 29.1407 29.0485 28.9988 28.9907C28.866 28.9398 28.748 28.8641 28.6533 28.7691L28.8295 28.1859C28.9173 28.2664 29.0204 28.3335 29.1343 28.3842C29.2376 28.4346 29.3544 28.4607 29.4731 28.46C29.5684 28.4674 29.6633 28.4422 29.7373 28.3901C29.7888 28.3383 29.8154 28.2715 29.8118 28.2034C29.8149 28.1759 29.8111 28.1481 29.8006 28.1219C29.7901 28.0957 29.7731 28.0718 29.7509 28.0518C29.7074 28.0154 29.6537 27.9893 29.595 27.976L29.3782 27.9235C29.294 27.906 29.2122 27.8806 29.1343 27.8477C29.0525 27.8158 28.9788 27.7702 28.9175 27.7136C28.8419 27.6449 28.7882 27.5605 28.7617 27.4686C28.6682 27.1826 28.6824 26.8783 28.8024 26.5997C28.8596 26.4683 28.961 26.3546 29.0937 26.2731C29.2294 26.1938 29.3904 26.153 29.5544 26.1565C29.6846 26.1557 29.8136 26.1775 29.9338 26.2206C30.059 26.2584 30.1725 26.3202 30.2658 26.4014L30.0828 26.9846C30.0096 26.9117 29.9165 26.8556 29.8118 26.8213C29.731 26.7898 29.6431 26.7739 29.5544 26.7746C29.5066 26.7704 29.4584 26.775 29.4128 26.7881C29.3673 26.8011 29.3255 26.8224 29.2902 26.8504C29.2628 26.8753 29.2416 26.9046 29.2276 26.9367C29.2136 26.9687 29.2073 27.0029 29.2089 27.0371C29.2065 27.0655 29.2106 27.094 29.2211 27.121C29.2315 27.1481 29.2481 27.173 29.2698 27.1945C29.3166 27.2329 29.3719 27.2627 29.4324 27.282C29.503 27.3045 29.5755 27.322 29.6492 27.3345C29.731 27.353 29.8104 27.3784 29.8864 27.4103C29.9683 27.4422 30.042 27.4878 30.1032 27.5444C30.1749 27.6121 30.2301 27.6914 30.2658 27.7777C30.3106 27.9062 30.3312 28.0401 30.3267 28.1743C30.3316 28.3348 30.2946 28.4942 30.2183 28.6408C30.1586 28.7694 30.0575 28.8806 29.927 28.9616C29.7862 29.0408 29.6209 29.0814 29.4528 29.0782Z" fill="#314698"/>
<path d="M31.3594 26.9136V26.2779H32.6331V26.9136H31.3594ZM32.3282 29.0772C32.2306 29.0771 32.1346 29.0557 32.0493 29.0149C31.964 28.9741 31.8921 28.9152 31.8404 28.844C31.7039 28.6073 31.6431 28.3436 31.6642 28.08V25.5781H32.1927V28.0625C32.1879 28.1592 32.2112 28.2554 32.2604 28.3424C32.2742 28.3703 32.2967 28.3943 32.3254 28.4119C32.3541 28.4294 32.3879 28.4396 32.423 28.4416C32.4675 28.4419 32.5112 28.4317 32.5494 28.4122C32.5876 28.3926 32.6189 28.3645 32.6398 28.3308L32.7889 28.9139C32.734 28.9715 32.6645 29.0174 32.5856 29.0481C32.5035 29.0745 32.4155 29.0845 32.3282 29.0772Z" fill="#314698"/>
<path d="M34.2659 25.816C34.2157 25.8153 34.1667 25.8024 34.1247 25.7786C34.0827 25.7549 34.0494 25.7213 34.0288 25.6818C33.9627 25.5826 33.9298 25.4696 33.9339 25.3552C33.9305 25.241 33.9633 25.1281 34.0288 25.0287C34.0507 24.99 34.0842 24.9572 34.1259 24.9336C34.1677 24.91 34.216 24.8965 34.2659 24.8945C34.3161 24.8955 34.3651 24.9079 34.4079 24.9304C34.4508 24.9529 34.4859 24.9848 34.5098 25.0228C34.5744 25.1202 34.605 25.2316 34.5979 25.3436C34.6041 25.4611 34.5737 25.5779 34.5098 25.6818C34.4874 25.7213 34.4528 25.7547 34.4098 25.7784C34.3667 25.8021 34.317 25.8151 34.2659 25.816ZM34.0017 29.076V26.2125H34.5572V29.076H34.0017Z" fill="#314698"/>
<path d="M36.8471 29.077C36.6474 29.0767 36.4556 29.0098 36.3119 28.8904C36.1412 28.7443 36.0155 28.5639 35.9461 28.3655C35.7745 27.8729 35.7745 27.3477 35.9461 26.8551C36.0155 26.6584 36.1413 26.4799 36.3119 26.336C36.4556 26.2166 36.6474 26.1497 36.8471 26.1494C36.9412 26.1489 37.0343 26.1652 37.1206 26.1973C37.2069 26.2294 37.2845 26.2767 37.3485 26.336C37.5113 26.4854 37.6217 26.6714 37.6669 26.8726L37.2536 27.2167C37.2205 27.1078 37.1604 27.0063 37.0775 26.9192C37.0473 26.8907 37.0108 26.8677 36.97 26.8517C36.9292 26.8357 36.8851 26.8269 36.8404 26.8259C36.7942 26.825 36.7484 26.8328 36.7062 26.849C36.664 26.8651 36.6265 26.8891 36.5965 26.9192C36.5126 26.9946 36.452 27.0868 36.4203 27.1875C36.3766 27.3262 36.3561 27.4695 36.3593 27.6132C36.3561 27.755 36.3766 27.8964 36.4203 28.0331C36.4521 28.1355 36.5126 28.2296 36.5965 28.3072C36.6276 28.3362 36.6654 28.3594 36.7073 28.3754C36.7492 28.3915 36.7945 28.4 36.8404 28.4005C36.8851 28.3996 36.9292 28.3908 36.97 28.3747C37.0108 28.3587 37.0473 28.3357 37.0775 28.3072C37.1617 28.2209 37.222 28.1192 37.2536 28.0098L37.6669 28.3597C37.6185 28.5582 37.5085 28.7416 37.3485 28.8904C37.2845 28.9498 37.2069 28.997 37.1206 29.0291C37.0343 29.0613 36.9412 29.0776 36.8471 29.077Z" fill="#314698"/>
<path d="M39.5231 29.0781C39.3662 29.0777 39.2113 29.0479 39.0692 28.9906C38.9374 28.9381 38.8198 28.8627 38.7236 28.769L38.9066 28.1858C38.9905 28.2675 39.0916 28.3348 39.2047 28.3841C39.3107 28.4338 39.4295 28.4598 39.5502 28.4599C39.5964 28.4644 39.6432 28.4605 39.6875 28.4485C39.7319 28.4364 39.7728 28.4165 39.8076 28.3899C39.8356 28.3655 39.8573 28.3362 39.8713 28.3041C39.8853 28.2719 39.8913 28.2376 39.8889 28.2033C39.892 28.1758 39.8882 28.1479 39.8777 28.1218C39.8672 28.0956 39.8502 28.0717 39.828 28.0517C39.782 28.0151 39.7261 27.989 39.6654 27.9759L39.4486 27.9234C39.3665 27.9059 39.2869 27.8804 39.2114 27.8476C39.1272 27.8194 39.0526 27.7732 38.9946 27.7134C38.9192 27.6437 38.8636 27.5599 38.832 27.4685C38.7385 27.1824 38.7528 26.8782 38.8727 26.5996C38.9323 26.4693 39.0333 26.3562 39.164 26.273C39.3002 26.1947 39.4609 26.154 39.6247 26.1563C39.7572 26.1549 39.8885 26.1768 40.0109 26.2205C40.1332 26.2598 40.2442 26.3214 40.3361 26.4013L40.1599 26.9845C40.0839 26.9142 39.9916 26.8586 39.8889 26.8212C39.8059 26.789 39.7157 26.7731 39.6247 26.7745C39.578 26.7708 39.5309 26.7756 39.4865 26.7887C39.4422 26.8017 39.4015 26.8228 39.3673 26.8503C39.3387 26.8747 39.3162 26.9038 39.3011 26.9359C39.2859 26.968 39.2785 27.0023 39.2792 27.037C39.2768 27.0654 39.2809 27.0939 39.2914 27.1209C39.3018 27.148 39.3184 27.1729 39.3402 27.1944C39.3869 27.2328 39.4422 27.2626 39.5028 27.2819C39.5736 27.3036 39.646 27.3211 39.7196 27.3344C39.8017 27.3519 39.8812 27.3773 39.9567 27.4102C40.0396 27.4406 40.1136 27.4864 40.1735 27.5443C40.2483 27.61 40.304 27.6899 40.3361 27.7776C40.3809 27.9061 40.4015 28.04 40.3971 28.1742C40.4007 28.334 40.3661 28.4928 40.2954 28.6407C40.2332 28.7697 40.1298 28.8809 39.9973 28.9615C39.8571 29.0417 39.6914 29.0824 39.5231 29.0781Z" fill="#314698"/>
<path d="M43.5938 29.0752V25.3545H44.1493V28.3579H45.3552V29.0752H43.5938Z" fill="#314698"/>
<path d="M46.5791 29.0752V25.3545H47.1346V28.3579H48.3406V29.0752H46.5791Z" fill="#314698"/>
<path d="M49.5879 29.0753V25.3546H50.6245C50.826 25.3522 51.0222 25.4099 51.18 25.5179C51.3482 25.6389 51.4728 25.7987 51.5391 25.9786C51.631 26.2092 51.6746 26.4521 51.6678 26.6959C51.6752 26.9397 51.6316 27.1827 51.5391 27.4132C51.4728 27.5931 51.3482 27.7529 51.18 27.8739C51.0237 27.9841 50.8264 28.0421 50.6245 28.0372H49.8928L50.1434 27.6523V29.0753H49.5879ZM50.1367 27.7456L49.886 27.3374H50.5635C50.6385 27.341 50.7133 27.3272 50.78 27.2975C50.8468 27.2677 50.903 27.2231 50.9429 27.1683C51.0392 27.0253 51.084 26.8608 51.0716 26.6959C51.0832 26.531 51.0385 26.3668 50.9429 26.2235C50.903 26.1687 50.8468 26.1241 50.78 26.0943C50.7133 26.0646 50.6385 26.0508 50.5635 26.0544H49.886L50.1367 25.6462V27.7456Z" fill="#314698"/>
<path d="M80.107 24.4101C78.1558 25.489 69.2196 30.6327 59.152 31.8632C65.6292 30.8288 71.6373 28.2459 76.4892 24.4101H65.7508C55.9542 34.091 -12.0124 42.0631 2.31667 21.0801C-14.4785 42.5705 64.6262 39.6021 92.1394 24.4101H80.107Z" fill="#DA3A33"/>
</svg>
