<svg width="25" height="25" viewBox="0 0 25 25" fill="none" xmlns="http://www.w3.org/2000/svg">
<mask id="mask0_2946_1329" style="mask-type:alpha" maskUnits="userSpaceOnUse" x="0" y="0" width="25" height="25">
<rect x="0.195312" y="0.5" width="24" height="24" fill="#D9D9D9"/>
</mask>
<g mask="url(#mask0_2946_1329)">
<path d="M12.1972 12.3652C12.6947 12.3652 13.12 12.1881 13.4732 11.8338C13.8265 11.4794 14.0032 11.0535 14.0032 10.556C14.0032 10.0585 13.826 9.63308 13.4717 9.27975C13.1174 8.92658 12.6914 8.75 12.1937 8.75C11.6962 8.75 11.2709 8.92717 10.9177 9.2815C10.5644 9.63583 10.3877 10.0618 10.3877 10.5595C10.3877 11.057 10.5649 11.4823 10.9192 11.8355C11.2735 12.1887 11.6995 12.3652 12.1972 12.3652ZM12.1955 20.0135C14.1518 18.2622 15.6489 16.5823 16.6867 14.974C17.7245 13.3657 18.2435 11.957 18.2435 10.748C18.2435 8.925 17.6643 7.42633 16.506 6.252C15.3476 5.07767 13.9108 4.4905 12.1955 4.4905C10.4801 4.4905 9.04329 5.07767 7.88496 6.252C6.72663 7.42633 6.14746 8.925 6.14746 10.748C6.14746 11.957 6.66638 13.3657 7.70421 14.974C8.74204 16.5823 10.2391 18.2622 12.1955 20.0135ZM12.1955 22.0095C9.67879 19.8288 7.79163 17.7994 6.53396 15.9212C5.27629 14.0429 4.64746 12.3185 4.64746 10.748C4.64746 8.44033 5.39388 6.57208 6.88671 5.14325C8.37971 3.71442 10.1493 3 12.1955 3C14.2416 3 16.0112 3.71442 17.5042 5.14325C18.997 6.57208 19.7435 8.44033 19.7435 10.748C19.7435 12.3185 19.1146 14.0429 17.857 15.9212C16.5993 17.7994 14.7121 19.8288 12.1955 22.0095Z" fill="#1C1B1F"/>
</g>
</svg>
