<svg width="720" height="696" viewBox="0 0 720 696" fill="none" xmlns="http://www.w3.org/2000/svg">
<mask id="mask0_2351_11035" style="mask-type:alpha" maskUnits="userSpaceOnUse" x="0" y="0" width="720" height="696">
<rect y="0.566406" width="719.39" height="695.263" fill="#D9D9D9"/>
</mask>
<g mask="url(#mask0_2351_11035)">
<path fill-rule="evenodd" clip-rule="evenodd" d="M415.225 270.303C416.966 270.303 418.39 269.059 418.39 267.538C418.39 266.018 416.966 264.773 415.225 264.773C413.485 264.773 412.061 266.018 412.061 267.538C412.061 269.059 413.485 270.303 415.225 270.303Z" stroke="white" stroke-width="2" stroke-miterlimit="10"/>
<path fill-rule="evenodd" clip-rule="evenodd" d="M442.792 270.303C444.532 270.303 445.956 269.059 445.956 267.538C445.956 266.018 444.532 264.773 442.792 264.773C441.051 264.773 439.627 266.018 439.627 267.538C439.627 269.059 441.051 270.303 442.792 270.303Z" stroke="white" stroke-width="2" stroke-miterlimit="10"/>
<path d="M432.929 287.703H435.673C437.03 287.703 438.357 286.724 438.357 285.232V283.76V282.76H437.357H432.023H426.408H420.699H419.699V283.76V285.232C419.699 286.724 421.026 287.703 422.383 287.703H425.408V288.556C421.621 289.378 416.985 292.755 416.985 298.887C416.985 302.253 418.713 304.882 421.115 306.635C423.501 308.376 426.589 309.291 429.496 309.291C434.53 309.291 438.89 306.223 440.082 301.916C440.261 301.461 440.174 301.012 439.991 300.679C439.806 300.343 439.517 300.101 439.235 299.949C438.73 299.677 437.723 299.477 437.051 300.299L437.047 300.303C436.472 301.015 436.066 301.512 435.479 301.918C434.908 302.312 434.099 302.66 432.703 302.888L432.69 302.891L432.677 302.893C430.951 303.224 429.367 302.969 428.216 302.266C427.095 301.58 426.307 300.424 426.189 298.736C425.984 295.822 428.255 293.705 431.07 293.38C432.023 293.27 432.929 292.488 432.929 291.364V287.703Z" stroke="white" stroke-width="2" stroke-miterlimit="10"/>
<path fill-rule="evenodd" clip-rule="evenodd" d="M403.995 252.688H453.959C455.625 252.688 456.898 253.8 456.898 255.255V279.908C456.898 281.363 455.625 282.476 453.959 282.476H403.995C402.427 282.476 401.056 281.363 401.056 279.908V255.255C401.056 253.8 402.427 252.688 403.995 252.688Z" stroke="white" stroke-width="2" stroke-miterlimit="10"/>
<path d="M414.378 252.589V-174.819" stroke="white" stroke-width="2"/>
<path d="M443.672 252.589V-174.819" stroke="white" stroke-width="2"/>
<path fill-rule="evenodd" clip-rule="evenodd" d="M695.476 432.93H688.469C687.544 432.93 686.75 433.621 686.75 434.428V449.987C686.75 450.794 687.544 451.486 688.469 451.486H695.476C696.401 451.486 697.195 450.794 697.195 449.987V434.428C697.195 433.621 696.401 432.93 695.476 432.93Z" stroke="white" stroke-width="2" stroke-miterlimit="10"/>
<path d="M160.798 433.016L418.708 304.658" stroke="white" stroke-width="2"/>
<path d="M427.076 299.84L694.238 432.822" stroke="white" stroke-width="2"/>
<path fill-rule="evenodd" clip-rule="evenodd" d="M593.464 432.93H586.457C585.532 432.93 584.738 433.621 584.738 434.428V449.987C584.738 450.794 585.532 451.486 586.457 451.486H593.464C594.389 451.486 595.182 450.794 595.182 449.987V434.428C595.182 433.621 594.389 432.93 593.464 432.93Z" stroke="white" stroke-width="2" stroke-miterlimit="10"/>
<path d="M435.488 308.383L592.229 432.82" stroke="white" stroke-width="2"/>
<path fill-rule="evenodd" clip-rule="evenodd" d="M160.016 432.93H167.023C167.948 432.93 168.741 433.621 168.741 434.428V449.987C168.741 450.794 167.948 451.486 167.023 451.486H160.016C159.091 451.486 158.297 450.794 158.297 449.987V434.428C158.297 433.621 159.091 432.93 160.016 432.93Z" stroke="white" stroke-width="2" stroke-miterlimit="10"/>
<path d="M276.052 433.017L418.418 305.955" stroke="white" stroke-width="2"/>
<path fill-rule="evenodd" clip-rule="evenodd" d="M275.269 432.93H282.276C283.201 432.93 283.994 433.621 283.994 434.428V449.987C283.994 450.794 283.201 451.486 282.276 451.486H275.269C274.344 451.486 273.55 450.794 273.55 449.987V434.428C273.55 433.621 274.344 432.93 275.269 432.93Z" stroke="white" stroke-width="2" stroke-miterlimit="10"/>
<rect x="158.244" y="452.938" width="538.883" height="181.01" stroke="white" stroke-width="2"/>
<rect x="274.673" y="452.938" width="422.454" height="180.971" stroke="white" stroke-width="2"/>
<rect width="538.883" height="7.45623" transform="matrix(1 0 0 -1 158.244 641.721)" stroke="white" stroke-width="2"/>
<path d="M349.307 459.771V625.802" stroke="white"/>
<path d="M328.655 459.771V625.802" stroke="white"/>
<path d="M308.004 459.771V625.802" stroke="white"/>
<path d="M287.353 459.771V625.802" stroke="white"/>
<path d="M369.958 459.771V625.802" stroke="white"/>
<path d="M390.609 459.771V625.802" stroke="white"/>
<path d="M411.26 459.771V625.802" stroke="white"/>
<path d="M431.912 459.771V625.802" stroke="white"/>
<path d="M452.563 459.771V625.802" stroke="white"/>
<path d="M473.214 459.771V625.802" stroke="white"/>
<path d="M493.866 459.771V625.802" stroke="white"/>
<path d="M514.517 459.771V625.802" stroke="white"/>
<path d="M535.168 459.771V625.802" stroke="white"/>
<path d="M555.82 459.771V625.802" stroke="white"/>
<path d="M576.471 459.771V625.802" stroke="white"/>
<path d="M597.123 459.771V625.802" stroke="white"/>
<path d="M617.774 459.771V625.802" stroke="white"/>
<path d="M638.425 459.771V625.802" stroke="white"/>
<path d="M659.077 459.771V625.802" stroke="white"/>
<path d="M679.728 459.771V625.802" stroke="white"/>
<mask id="mask1_2351_11035" style="mask-type:alpha" maskUnits="userSpaceOnUse" x="134" y="466" width="140" height="155">
<path d="M135.569 474.922C135.569 471.056 138.703 467.922 142.569 467.922H272.452V619.162H142.569C138.703 619.162 135.569 616.028 135.569 612.162V474.922Z" fill="#333399" stroke="white" stroke-width="2"/>
</mask>
<g mask="url(#mask1_2351_11035)">
<path d="M135.569 474.922C135.569 471.056 138.703 467.922 142.569 467.922H308.236V619.162H142.569C138.703 619.162 135.569 616.028 135.569 612.162V474.922Z" fill="#333399" stroke="white" stroke-width="2"/>
<path d="M307.317 511.336L261.669 543C259.996 544.161 258.007 544.784 255.97 544.784H246.364C244.326 544.784 242.336 544.161 240.662 542.999L137.916 471.684" stroke="white" stroke-width="2"/>
<path d="M307.317 561.625L276.421 533.389L264.013 541.359C260.033 543.915 255.402 545.274 250.672 545.274V545.274C245.604 545.274 240.658 543.714 236.507 540.806L225.921 533.389L137.916 613.867" stroke="white" stroke-width="2"/>
</g>
<path d="M22.0952 478.141H100.022" stroke="white" stroke-width="3"/>
<path d="M77.2847 506.168L107.792 506.168" stroke="white" stroke-width="3"/>
<path d="M62.2339 534.193L116.375 534.193" stroke="white" stroke-width="3"/>
<path d="M36.3965 562.221L103.294 562.221" stroke="white" stroke-width="3"/>
<path d="M85.2598 590.25L115.568 590.25" stroke="white" stroke-width="3"/>
</g>
</svg>
