<svg width="562" height="201" viewBox="0 0 562 201" fill="none" xmlns="http://www.w3.org/2000/svg">
<mask id="mask0_2791_13529" style="mask-type:alpha" maskUnits="userSpaceOnUse" x="0" y="0" width="562" height="201">
<rect x="0.214844" y="0.65625" width="561.391" height="200" fill="#D9D9D9"/>
</mask>
<g mask="url(#mask0_2791_13529)">
<path d="M433.34 30.3721H414.495C413.943 30.3721 413.495 30.8198 413.495 31.3721V40.8562C413.495 41.4084 413.943 41.8562 414.495 41.8562H433.34C433.892 41.8562 434.34 41.4084 434.34 40.8562V31.3721C434.34 30.8198 433.892 30.3721 433.34 30.3721Z" fill="#333399" stroke="#EAECF5" stroke-width="2" stroke-miterlimit="10"/>
<path d="M448.209 18.6562V17.6562H447.209H444.665H443.665V18.6562V41.57V42.57H444.665H447.209H448.209V41.57V18.6562Z" fill="#EAECF5" stroke="#333399" stroke-width="2" stroke-miterlimit="10"/>
<path d="M453.123 24.207V23.207H452.123H439.834H438.834V24.207V26.6221V27.6221H439.834H452.123H453.123V26.6221V24.207Z" fill="#EAECF5" stroke="#333399" stroke-width="2" stroke-miterlimit="10"/>
<path d="M444.427 37.6162H393.647C393.095 37.6162 392.647 38.0639 392.647 38.6162V83.7324C392.647 84.2847 393.095 84.7324 393.647 84.7324H444.427C444.979 84.7324 445.427 84.2847 445.427 83.7324V38.6162C445.427 38.0639 444.979 37.6162 444.427 37.6162Z" fill="#333399" stroke="#EAECF5" stroke-width="2" stroke-miterlimit="10"/>
<path d="M478.992 83.5726C479.09 84.1807 478.621 84.7324 478.005 84.7324H422.989C422.436 84.7324 421.989 84.2847 421.989 83.7324V38.6162C421.989 38.0639 422.436 37.6162 422.989 37.6162H470.699C471.189 37.6162 471.607 37.9721 471.686 38.4564L478.992 83.5726Z" fill="#333399" stroke="#EAECF5" stroke-width="2" stroke-miterlimit="10"/>
<path d="M448.601 58.6113H376.505C375.953 58.6113 375.505 59.059 375.505 59.6113V139.809C375.505 140.361 375.953 140.809 376.505 140.809H448.601C449.154 140.809 449.601 140.361 449.601 139.809V59.6113C449.601 59.059 449.154 58.6113 448.601 58.6113Z" fill="#333399" stroke="#EAECF5" stroke-width="2" stroke-miterlimit="10"/>
<path d="M492.945 139.68C493.023 140.278 492.557 140.809 491.954 140.809H417.715C417.163 140.809 416.715 140.361 416.715 139.809V59.6113C416.715 59.059 417.163 58.6113 417.715 58.6113H481.517C482.019 58.6113 482.443 58.9841 482.508 59.4823L492.945 139.68Z" fill="#333399" stroke="#EAECF5" stroke-width="2" stroke-miterlimit="10"/>
<path d="M473.514 91.7637L477.055 118.943H480.044L476.453 91.7637H473.514Z" fill="#333399" stroke="#EAECF5" stroke-width="2" stroke-miterlimit="10"/>
<path d="M475.017 73.4867L474.623 70.2617H427.586V73.4867H475.017Z" fill="#333399" stroke="#EAECF5" stroke-width="2" stroke-miterlimit="10"/>
<path d="M409.504 73.4867V70.2617H382.333V73.4867H409.504Z" fill="#333399" stroke="#EAECF5" stroke-width="2" stroke-miterlimit="10"/>
<path d="M430.333 47.9189H425.849V52.4025H430.333V47.9189Z" fill="#333399" stroke="#EAECF5" stroke-width="2" stroke-miterlimit="10"/>
<path d="M438.123 47.9189H433.64V52.4025H438.123V47.9189Z" fill="#333399" stroke="#EAECF5" stroke-width="2" stroke-miterlimit="10"/>
<path d="M445.9 47.9189H441.416V52.4025H445.9V47.9189Z" fill="#333399" stroke="#EAECF5" stroke-width="2" stroke-miterlimit="10"/>
<path d="M401.694 47.9189H397.211V52.4025H401.694V47.9189Z" fill="#333399" stroke="#EAECF5" stroke-width="2" stroke-miterlimit="10"/>
<path d="M409.485 47.9189H405.001V52.4025H409.485V47.9189Z" fill="#333399" stroke="#EAECF5" stroke-width="2" stroke-miterlimit="10"/>
<path d="M417.269 47.9189H412.785V52.4025H417.269V47.9189Z" fill="#333399" stroke="#EAECF5" stroke-width="2" stroke-miterlimit="10"/>
<path d="M453.69 47.9189H449.207V52.4025H453.69V47.9189Z" fill="#333399" stroke="#EAECF5" stroke-width="2" stroke-miterlimit="10"/>
<path d="M461.481 47.9189H456.998V52.4025H461.481V47.9189Z" fill="#333399" stroke="#EAECF5" stroke-width="2" stroke-miterlimit="10"/>
<path d="M460.335 80.876H455.851V85.3595H460.335V80.876Z" fill="#333399" stroke="#EAECF5" stroke-width="2" stroke-miterlimit="10"/>
<path d="M473.378 80.876H468.894V85.3595H473.378V80.876Z" fill="#333399" stroke="#EAECF5" stroke-width="2" stroke-miterlimit="10"/>
<path d="M447.306 80.876H442.822V85.3595H447.306V80.876Z" fill="#333399" stroke="#EAECF5" stroke-width="2" stroke-miterlimit="10"/>
<path d="M434.27 80.876H429.787V85.3595H434.27V80.876Z" fill="#333399" stroke="#EAECF5" stroke-width="2" stroke-miterlimit="10"/>
<path d="M469.264 47.9189H464.781V52.4025H469.264V47.9189Z" fill="#333399" stroke="#EAECF5" stroke-width="2" stroke-miterlimit="10"/>
<path d="M222.124 111.871H160.063V137.671H222.124V111.871Z" fill="#333399" stroke="#EAECF5" stroke-width="2" stroke-miterlimit="10"/>
<path d="M175.559 111.871H160.063V137.671H175.559V111.871Z" fill="#333399" stroke="#EAECF5" stroke-width="2" stroke-miterlimit="10"/>
<mask id="path-27-inside-1_2791_13529" fill="white">
<path d="M218.748 112.851H218.434V136.684H218.748V112.851Z"/>
</mask>
<path d="M218.434 112.851V111.851H217.434V112.851H218.434ZM218.748 112.851H219.748V111.851H218.748V112.851ZM218.748 136.684V137.684H219.748V136.684H218.748ZM218.434 136.684H217.434V137.684H218.434V136.684ZM218.434 113.851H218.748V111.851H218.434V113.851ZM217.748 112.851V136.684H219.748V112.851H217.748ZM218.748 135.684H218.434V137.684H218.748V135.684ZM219.434 136.684V112.851H217.434V136.684H219.434Z" fill="white" mask="url(#path-27-inside-1_2791_13529)"/>
<mask id="path-29-inside-2_2791_13529" fill="white">
<path d="M215.183 112.851H214.869V136.684H215.183V112.851Z"/>
</mask>
<path d="M214.869 112.851V111.851H213.869V112.851H214.869ZM215.183 112.851H216.183V111.851H215.183V112.851ZM215.183 136.684V137.684H216.183V136.684H215.183ZM214.869 136.684H213.869V137.684H214.869V136.684ZM214.869 113.851H215.183V111.851H214.869V113.851ZM214.183 112.851V136.684H216.183V112.851H214.183ZM215.183 135.684H214.869V137.684H215.183V135.684ZM215.869 136.684V112.851H213.869V136.684H215.869Z" fill="white" mask="url(#path-29-inside-2_2791_13529)"/>
<mask id="path-31-inside-3_2791_13529" fill="white">
<path d="M211.626 112.851H211.311V136.684H211.626V112.851Z"/>
</mask>
<path d="M211.311 112.851V111.851H210.311V112.851H211.311ZM211.626 112.851H212.626V111.851H211.626V112.851ZM211.626 136.684V137.684H212.626V136.684H211.626ZM211.311 136.684H210.311V137.684H211.311V136.684ZM211.311 113.851H211.626V111.851H211.311V113.851ZM210.626 112.851V136.684H212.626V112.851H210.626ZM211.626 135.684H211.311V137.684H211.626V135.684ZM212.311 136.684V112.851H210.311V136.684H212.311Z" fill="white" mask="url(#path-31-inside-3_2791_13529)"/>
<mask id="path-33-inside-4_2791_13529" fill="white">
<path d="M208.061 112.851H207.746V136.684H208.061V112.851Z"/>
</mask>
<path d="M207.746 112.851V111.851H206.746V112.851H207.746ZM208.061 112.851H209.061V111.851H208.061V112.851ZM208.061 136.684V137.684H209.061V136.684H208.061ZM207.746 136.684H206.746V137.684H207.746V136.684ZM207.746 113.851H208.061V111.851H207.746V113.851ZM207.061 112.851V136.684H209.061V112.851H207.061ZM208.061 135.684H207.746V137.684H208.061V135.684ZM208.746 136.684V112.851H206.746V136.684H208.746Z" fill="white" mask="url(#path-33-inside-4_2791_13529)"/>
<mask id="path-35-inside-5_2791_13529" fill="white">
<path d="M204.496 112.851H204.181V136.684H204.496V112.851Z"/>
</mask>
<path d="M204.181 112.851V111.851H203.181V112.851H204.181ZM204.496 112.851H205.496V111.851H204.496V112.851ZM204.496 136.684V137.684H205.496V136.684H204.496ZM204.181 136.684H203.181V137.684H204.181V136.684ZM204.181 113.851H204.496V111.851H204.181V113.851ZM203.496 112.851V136.684H205.496V112.851H203.496ZM204.496 135.684H204.181V137.684H204.496V135.684ZM205.181 136.684V112.851H203.181V136.684H205.181Z" fill="white" mask="url(#path-35-inside-5_2791_13529)"/>
<mask id="path-37-inside-6_2791_13529" fill="white">
<path d="M200.931 112.851H200.617V136.684H200.931V112.851Z"/>
</mask>
<path d="M200.617 112.851V111.851H199.617V112.851H200.617ZM200.931 112.851H201.931V111.851H200.931V112.851ZM200.931 136.684V137.684H201.931V136.684H200.931ZM200.617 136.684H199.617V137.684H200.617V136.684ZM200.617 113.851H200.931V111.851H200.617V113.851ZM199.931 112.851V136.684H201.931V112.851H199.931ZM200.931 135.684H200.617V137.684H200.931V135.684ZM201.617 136.684V112.851H199.617V136.684H201.617Z" fill="white" mask="url(#path-37-inside-6_2791_13529)"/>
<mask id="path-39-inside-7_2791_13529" fill="white">
<path d="M197.373 112.851H197.059V136.684H197.373V112.851Z"/>
</mask>
<path d="M197.059 112.851V111.851H196.059V112.851H197.059ZM197.373 112.851H198.373V111.851H197.373V112.851ZM197.373 136.684V137.684H198.373V136.684H197.373ZM197.059 136.684H196.059V137.684H197.059V136.684ZM197.059 113.851H197.373V111.851H197.059V113.851ZM196.373 112.851V136.684H198.373V112.851H196.373ZM197.373 135.684H197.059V137.684H197.373V135.684ZM198.059 136.684V112.851H196.059V136.684H198.059Z" fill="white" mask="url(#path-39-inside-7_2791_13529)"/>
<mask id="path-41-inside-8_2791_13529" fill="white">
<path d="M193.795 112.851H193.48V136.684H193.795V112.851Z"/>
</mask>
<path d="M193.48 112.851V111.851H192.48V112.851H193.48ZM193.795 112.851H194.795V111.851H193.795V112.851ZM193.795 136.684V137.684H194.795V136.684H193.795ZM193.48 136.684H192.48V137.684H193.48V136.684ZM193.48 113.851H193.795V111.851H193.48V113.851ZM192.795 112.851V136.684H194.795V112.851H192.795ZM193.795 135.684H193.48V137.684H193.795V135.684ZM194.48 136.684V112.851H192.48V136.684H194.48Z" fill="white" mask="url(#path-41-inside-8_2791_13529)"/>
<mask id="path-43-inside-9_2791_13529" fill="white">
<path d="M190.237 112.851H189.922V136.684H190.237V112.851Z"/>
</mask>
<path d="M189.922 112.851V111.851H188.922V112.851H189.922ZM190.237 112.851H191.237V111.851H190.237V112.851ZM190.237 136.684V137.684H191.237V136.684H190.237ZM189.922 136.684H188.922V137.684H189.922V136.684ZM189.922 113.851H190.237V111.851H189.922V113.851ZM189.237 112.851V136.684H191.237V112.851H189.237ZM190.237 135.684H189.922V137.684H190.237V135.684ZM190.922 136.684V112.851H188.922V136.684H190.922Z" fill="white" mask="url(#path-43-inside-9_2791_13529)"/>
<mask id="path-45-inside-10_2791_13529" fill="white">
<path d="M186.672 112.851H186.357V136.684H186.672V112.851Z"/>
</mask>
<path d="M186.357 112.851V111.851H185.357V112.851H186.357ZM186.672 112.851H187.672V111.851H186.672V112.851ZM186.672 136.684V137.684H187.672V136.684H186.672ZM186.357 136.684H185.357V137.684H186.357V136.684ZM186.357 113.851H186.672V111.851H186.357V113.851ZM185.672 112.851V136.684H187.672V112.851H185.672ZM186.672 135.684H186.357V137.684H186.672V135.684ZM187.357 136.684V112.851H185.357V136.684H187.357Z" fill="white" mask="url(#path-45-inside-10_2791_13529)"/>
<mask id="path-47-inside-11_2791_13529" fill="white">
<path d="M183.1 112.851H182.785V136.684H183.1V112.851Z"/>
</mask>
<path d="M182.785 112.851V111.851H181.785V112.851H182.785ZM183.1 112.851H184.1V111.851H183.1V112.851ZM183.1 136.684V137.684H184.1V136.684H183.1ZM182.785 136.684H181.785V137.684H182.785V136.684ZM182.785 113.851H183.1V111.851H182.785V113.851ZM182.1 112.851V136.684H184.1V112.851H182.1ZM183.1 135.684H182.785V137.684H183.1V135.684ZM183.785 136.684V112.851H181.785V136.684H183.785Z" fill="white" mask="url(#path-47-inside-11_2791_13529)"/>
<mask id="path-49-inside-12_2791_13529" fill="white">
<path d="M179.542 112.851H179.228V136.684H179.542V112.851Z"/>
</mask>
<path d="M179.228 112.851V111.851H178.228V112.851H179.228ZM179.542 112.851H180.542V111.851H179.542V112.851ZM179.542 136.684V137.684H180.542V136.684H179.542ZM179.228 136.684H178.228V137.684H179.228V136.684ZM179.228 113.851H179.542V111.851H179.228V113.851ZM178.542 112.851V136.684H180.542V112.851H178.542ZM179.542 135.684H179.228V137.684H179.542V135.684ZM180.228 136.684V112.851H178.228V136.684H180.228Z" fill="white" mask="url(#path-49-inside-12_2791_13529)"/>
<path d="M236.435 85.9863H174.374V111.786H236.435V85.9863Z" fill="#333399" stroke="#EAECF5" stroke-width="2" stroke-miterlimit="10"/>
<path d="M189.869 85.9863H174.374V111.786H189.869V85.9863Z" fill="#333399" stroke="#EAECF5" stroke-width="2" stroke-miterlimit="10"/>
<mask id="path-53-inside-13_2791_13529" fill="white">
<path d="M233.132 87.1699H232.817V111.003H233.132V87.1699Z"/>
</mask>
<path d="M232.817 87.1699V86.1699H231.817V87.1699H232.817ZM233.132 87.1699H234.132V86.1699H233.132V87.1699ZM233.132 111.003V112.003H234.132V111.003H233.132ZM232.817 111.003H231.817V112.003H232.817V111.003ZM232.817 88.1699H233.132V86.1699H232.817V88.1699ZM232.132 87.1699V111.003H234.132V87.1699H232.132ZM233.132 110.003H232.817V112.003H233.132V110.003ZM233.817 111.003V87.1699H231.817V111.003H233.817Z" fill="white" mask="url(#path-53-inside-13_2791_13529)"/>
<mask id="path-55-inside-14_2791_13529" fill="white">
<path d="M229.567 87.1699H229.252V111.003H229.567V87.1699Z"/>
</mask>
<path d="M229.252 87.1699V86.1699H228.252V87.1699H229.252ZM229.567 87.1699H230.567V86.1699H229.567V87.1699ZM229.567 111.003V112.003H230.567V111.003H229.567ZM229.252 111.003H228.252V112.003H229.252V111.003ZM229.252 88.1699H229.567V86.1699H229.252V88.1699ZM228.567 87.1699V111.003H230.567V87.1699H228.567ZM229.567 110.003H229.252V112.003H229.567V110.003ZM230.252 111.003V87.1699H228.252V111.003H230.252Z" fill="white" mask="url(#path-55-inside-14_2791_13529)"/>
<mask id="path-57-inside-15_2791_13529" fill="white">
<path d="M226.009 87.1699H225.695V111.003H226.009V87.1699Z"/>
</mask>
<path d="M225.695 87.1699V86.1699H224.695V87.1699H225.695ZM226.009 87.1699H227.009V86.1699H226.009V87.1699ZM226.009 111.003V112.003H227.009V111.003H226.009ZM225.695 111.003H224.695V112.003H225.695V111.003ZM225.695 88.1699H226.009V86.1699H225.695V88.1699ZM225.009 87.1699V111.003H227.009V87.1699H225.009ZM226.009 110.003H225.695V112.003H226.009V110.003ZM226.695 111.003V87.1699H224.695V111.003H226.695Z" fill="white" mask="url(#path-57-inside-15_2791_13529)"/>
<mask id="path-59-inside-16_2791_13529" fill="white">
<path d="M222.445 87.1699H222.13V111.003H222.445V87.1699Z"/>
</mask>
<path d="M222.13 87.1699V86.1699H221.13V87.1699H222.13ZM222.445 87.1699H223.445V86.1699H222.445V87.1699ZM222.445 111.003V112.003H223.445V111.003H222.445ZM222.13 111.003H221.13V112.003H222.13V111.003ZM222.13 88.1699H222.445V86.1699H222.13V88.1699ZM221.445 87.1699V111.003H223.445V87.1699H221.445ZM222.445 110.003H222.13V112.003H222.445V110.003ZM223.13 111.003V87.1699H221.13V111.003H223.13Z" fill="white" mask="url(#path-59-inside-16_2791_13529)"/>
<mask id="path-61-inside-17_2791_13529" fill="white">
<path d="M218.88 87.1699H218.565V111.003H218.88V87.1699Z"/>
</mask>
<path d="M218.565 87.1699V86.1699H217.565V87.1699H218.565ZM218.88 87.1699H219.88V86.1699H218.88V87.1699ZM218.88 111.003V112.003H219.88V111.003H218.88ZM218.565 111.003H217.565V112.003H218.565V111.003ZM218.565 88.1699H218.88V86.1699H218.565V88.1699ZM217.88 87.1699V111.003H219.88V87.1699H217.88ZM218.88 110.003H218.565V112.003H218.88V110.003ZM219.565 111.003V87.1699H217.565V111.003H219.565Z" fill="white" mask="url(#path-61-inside-17_2791_13529)"/>
<mask id="path-63-inside-18_2791_13529" fill="white">
<path d="M215.315 87.1699H215V111.003H215.315V87.1699Z"/>
</mask>
<path d="M215 87.1699V86.1699H214V87.1699H215ZM215.315 87.1699H216.315V86.1699H215.315V87.1699ZM215.315 111.003V112.003H216.315V111.003H215.315ZM215 111.003H214V112.003H215V111.003ZM215 88.1699H215.315V86.1699H215V88.1699ZM214.315 87.1699V111.003H216.315V87.1699H214.315ZM215.315 110.003H215V112.003H215.315V110.003ZM216 111.003V87.1699H214V111.003H216Z" fill="white" mask="url(#path-63-inside-18_2791_13529)"/>
<mask id="path-65-inside-19_2791_13529" fill="white">
<path d="M211.757 87.1699H211.442V111.003H211.757V87.1699Z"/>
</mask>
<path d="M211.442 87.1699V86.1699H210.442V87.1699H211.442ZM211.757 87.1699H212.757V86.1699H211.757V87.1699ZM211.757 111.003V112.003H212.757V111.003H211.757ZM211.442 111.003H210.442V112.003H211.442V111.003ZM211.442 88.1699H211.757V86.1699H211.442V88.1699ZM210.757 87.1699V111.003H212.757V87.1699H210.757ZM211.757 110.003H211.442V112.003H211.757V110.003ZM212.442 111.003V87.1699H210.442V111.003H212.442Z" fill="white" mask="url(#path-65-inside-19_2791_13529)"/>
<mask id="path-67-inside-20_2791_13529" fill="white">
<path d="M208.178 87.1699H207.864V111.003H208.178V87.1699Z"/>
</mask>
<path d="M207.864 87.1699V86.1699H206.864V87.1699H207.864ZM208.178 87.1699H209.178V86.1699H208.178V87.1699ZM208.178 111.003V112.003H209.178V111.003H208.178ZM207.864 111.003H206.864V112.003H207.864V111.003ZM207.864 88.1699H208.178V86.1699H207.864V88.1699ZM207.178 87.1699V111.003H209.178V87.1699H207.178ZM208.178 110.003H207.864V112.003H208.178V110.003ZM208.864 111.003V87.1699H206.864V111.003H208.864Z" fill="white" mask="url(#path-67-inside-20_2791_13529)"/>
<mask id="path-69-inside-21_2791_13529" fill="white">
<path d="M204.62 87.1699H204.306V111.003H204.62V87.1699Z"/>
</mask>
<path d="M204.306 87.1699V86.1699H203.306V87.1699H204.306ZM204.62 87.1699H205.62V86.1699H204.62V87.1699ZM204.62 111.003V112.003H205.62V111.003H204.62ZM204.306 111.003H203.306V112.003H204.306V111.003ZM204.306 88.1699H204.62V86.1699H204.306V88.1699ZM203.62 87.1699V111.003H205.62V87.1699H203.62ZM204.62 110.003H204.306V112.003H204.62V110.003ZM205.306 111.003V87.1699H203.306V111.003H205.306Z" fill="white" mask="url(#path-69-inside-21_2791_13529)"/>
<mask id="path-71-inside-22_2791_13529" fill="white">
<path d="M201.056 87.1699H200.741V111.003H201.056V87.1699Z"/>
</mask>
<path d="M200.741 87.1699V86.1699H199.741V87.1699H200.741ZM201.056 87.1699H202.056V86.1699H201.056V87.1699ZM201.056 111.003V112.003H202.056V111.003H201.056ZM200.741 111.003H199.741V112.003H200.741V111.003ZM200.741 88.1699H201.056V86.1699H200.741V88.1699ZM200.056 87.1699V111.003H202.056V87.1699H200.056ZM201.056 110.003H200.741V112.003H201.056V110.003ZM201.741 111.003V87.1699H199.741V111.003H201.741Z" fill="white" mask="url(#path-71-inside-22_2791_13529)"/>
<mask id="path-73-inside-23_2791_13529" fill="white">
<path d="M197.484 87.1699H197.169V111.003H197.484V87.1699Z"/>
</mask>
<path d="M197.169 87.1699V86.1699H196.169V87.1699H197.169ZM197.484 87.1699H198.484V86.1699H197.484V87.1699ZM197.484 111.003V112.003H198.484V111.003H197.484ZM197.169 111.003H196.169V112.003H197.169V111.003ZM197.169 88.1699H197.484V86.1699H197.169V88.1699ZM196.484 87.1699V111.003H198.484V87.1699H196.484ZM197.484 110.003H197.169V112.003H197.484V110.003ZM198.169 111.003V87.1699H196.169V111.003H198.169Z" fill="white" mask="url(#path-73-inside-23_2791_13529)"/>
<mask id="path-75-inside-24_2791_13529" fill="white">
<path d="M193.926 87.1699H193.611V111.003H193.926V87.1699Z"/>
</mask>
<path d="M193.611 87.1699V86.1699H192.611V87.1699H193.611ZM193.926 87.1699H194.926V86.1699H193.926V87.1699ZM193.926 111.003V112.003H194.926V111.003H193.926ZM193.611 111.003H192.611V112.003H193.611V111.003ZM193.611 88.1699H193.926V86.1699H193.611V88.1699ZM192.926 87.1699V111.003H194.926V87.1699H192.926ZM193.926 110.003H193.611V112.003H193.926V110.003ZM194.611 111.003V87.1699H192.611V111.003H194.611Z" fill="white" mask="url(#path-75-inside-24_2791_13529)"/>
<path d="M380.243 111.871H318.182V137.671H380.243V111.871Z" fill="#333399" stroke="#EAECF5" stroke-width="2" stroke-miterlimit="10"/>
<path d="M333.678 111.871H318.182V137.671H333.678V111.871Z" fill="#333399" stroke="#EAECF5" stroke-width="2" stroke-miterlimit="10"/>
<mask id="path-79-inside-25_2791_13529" fill="white">
<path d="M376.856 112.851H376.542V136.684H376.856V112.851Z"/>
</mask>
<path d="M376.542 112.851V111.851H375.542V112.851H376.542ZM376.856 112.851H377.856V111.851H376.856V112.851ZM376.856 136.684V137.684H377.856V136.684H376.856ZM376.542 136.684H375.542V137.684H376.542V136.684ZM376.542 113.851H376.856V111.851H376.542V113.851ZM375.856 112.851V136.684H377.856V112.851H375.856ZM376.856 135.684H376.542V137.684H376.856V135.684ZM377.542 136.684V112.851H375.542V136.684H377.542Z" fill="white" mask="url(#path-79-inside-25_2791_13529)"/>
<mask id="path-81-inside-26_2791_13529" fill="white">
<path d="M373.291 112.851H372.977V136.684H373.291V112.851Z"/>
</mask>
<path d="M372.977 112.851V111.851H371.977V112.851H372.977ZM373.291 112.851H374.291V111.851H373.291V112.851ZM373.291 136.684V137.684H374.291V136.684H373.291ZM372.977 136.684H371.977V137.684H372.977V136.684ZM372.977 113.851H373.291V111.851H372.977V113.851ZM372.291 112.851V136.684H374.291V112.851H372.291ZM373.291 135.684H372.977V137.684H373.291V135.684ZM373.977 136.684V112.851H371.977V136.684H373.977Z" fill="white" mask="url(#path-81-inside-26_2791_13529)"/>
<mask id="path-83-inside-27_2791_13529" fill="white">
<path d="M369.734 112.851H369.419V136.684H369.734V112.851Z"/>
</mask>
<path d="M369.419 112.851V111.851H368.419V112.851H369.419ZM369.734 112.851H370.734V111.851H369.734V112.851ZM369.734 136.684V137.684H370.734V136.684H369.734ZM369.419 136.684H368.419V137.684H369.419V136.684ZM369.419 113.851H369.734V111.851H369.419V113.851ZM368.734 112.851V136.684H370.734V112.851H368.734ZM369.734 135.684H369.419V137.684H369.734V135.684ZM370.419 136.684V112.851H368.419V136.684H370.419Z" fill="white" mask="url(#path-83-inside-27_2791_13529)"/>
<mask id="path-85-inside-28_2791_13529" fill="white">
<path d="M366.169 112.851H365.854V136.684H366.169V112.851Z"/>
</mask>
<path d="M365.854 112.851V111.851H364.854V112.851H365.854ZM366.169 112.851H367.169V111.851H366.169V112.851ZM366.169 136.684V137.684H367.169V136.684H366.169ZM365.854 136.684H364.854V137.684H365.854V136.684ZM365.854 113.851H366.169V111.851H365.854V113.851ZM365.169 112.851V136.684H367.169V112.851H365.169ZM366.169 135.684H365.854V137.684H366.169V135.684ZM366.854 136.684V112.851H364.854V136.684H366.854Z" fill="white" mask="url(#path-85-inside-28_2791_13529)"/>
<mask id="path-87-inside-29_2791_13529" fill="white">
<path d="M362.604 112.851H362.289V136.684H362.604V112.851Z"/>
</mask>
<path d="M362.289 112.851V111.851H361.289V112.851H362.289ZM362.604 112.851H363.604V111.851H362.604V112.851ZM362.604 136.684V137.684H363.604V136.684H362.604ZM362.289 136.684H361.289V137.684H362.289V136.684ZM362.289 113.851H362.604V111.851H362.289V113.851ZM361.604 112.851V136.684H363.604V112.851H361.604ZM362.604 135.684H362.289V137.684H362.604V135.684ZM363.289 136.684V112.851H361.289V136.684H363.289Z" fill="white" mask="url(#path-87-inside-29_2791_13529)"/>
<mask id="path-89-inside-30_2791_13529" fill="white">
<path d="M359.039 112.851H358.725V136.684H359.039V112.851Z"/>
</mask>
<path d="M358.725 112.851V111.851H357.725V112.851H358.725ZM359.039 112.851H360.039V111.851H359.039V112.851ZM359.039 136.684V137.684H360.039V136.684H359.039ZM358.725 136.684H357.725V137.684H358.725V136.684ZM358.725 113.851H359.039V111.851H358.725V113.851ZM358.039 112.851V136.684H360.039V112.851H358.039ZM359.039 135.684H358.725V137.684H359.039V135.684ZM359.725 136.684V112.851H357.725V136.684H359.725Z" fill="white" mask="url(#path-89-inside-30_2791_13529)"/>
<mask id="path-91-inside-31_2791_13529" fill="white">
<path d="M355.481 112.851H355.167V136.684H355.481V112.851Z"/>
</mask>
<path d="M355.167 112.851V111.851H354.167V112.851H355.167ZM355.481 112.851H356.481V111.851H355.481V112.851ZM355.481 136.684V137.684H356.481V136.684H355.481ZM355.167 136.684H354.167V137.684H355.167V136.684ZM355.167 113.851H355.481V111.851H355.167V113.851ZM354.481 112.851V136.684H356.481V112.851H354.481ZM355.481 135.684H355.167V137.684H355.481V135.684ZM356.167 136.684V112.851H354.167V136.684H356.167Z" fill="white" mask="url(#path-91-inside-31_2791_13529)"/>
<mask id="path-93-inside-32_2791_13529" fill="white">
<path d="M351.902 112.851H351.588V136.684H351.902V112.851Z"/>
</mask>
<path d="M351.588 112.851V111.851H350.588V112.851H351.588ZM351.902 112.851H352.902V111.851H351.902V112.851ZM351.902 136.684V137.684H352.902V136.684H351.902ZM351.588 136.684H350.588V137.684H351.588V136.684ZM351.588 113.851H351.902V111.851H351.588V113.851ZM350.902 112.851V136.684H352.902V112.851H350.902ZM351.902 135.684H351.588V137.684H351.902V135.684ZM352.588 136.684V112.851H350.588V136.684H352.588Z" fill="white" mask="url(#path-93-inside-32_2791_13529)"/>
<mask id="path-95-inside-33_2791_13529" fill="white">
<path d="M348.344 112.851H348.03V136.684H348.344V112.851Z"/>
</mask>
<path d="M348.03 112.851V111.851H347.03V112.851H348.03ZM348.344 112.851H349.344V111.851H348.344V112.851ZM348.344 136.684V137.684H349.344V136.684H348.344ZM348.03 136.684H347.03V137.684H348.03V136.684ZM348.03 113.851H348.344V111.851H348.03V113.851ZM347.344 112.851V136.684H349.344V112.851H347.344ZM348.344 135.684H348.03V137.684H348.344V135.684ZM349.03 136.684V112.851H347.03V136.684H349.03Z" fill="white" mask="url(#path-95-inside-33_2791_13529)"/>
<mask id="path-97-inside-34_2791_13529" fill="white">
<path d="M344.78 112.851H344.465V136.684H344.78V112.851Z"/>
</mask>
<path d="M344.465 112.851V111.851H343.465V112.851H344.465ZM344.78 112.851H345.78V111.851H344.78V112.851ZM344.78 136.684V137.684H345.78V136.684H344.78ZM344.465 136.684H343.465V137.684H344.465V136.684ZM344.465 113.851H344.78V111.851H344.465V113.851ZM343.78 112.851V136.684H345.78V112.851H343.78ZM344.78 135.684H344.465V137.684H344.78V135.684ZM345.465 136.684V112.851H343.465V136.684H345.465Z" fill="white" mask="url(#path-97-inside-34_2791_13529)"/>
<mask id="path-99-inside-35_2791_13529" fill="white">
<path d="M341.208 112.851H340.893V136.684H341.208V112.851Z"/>
</mask>
<path d="M340.893 112.851V111.851H339.893V112.851H340.893ZM341.208 112.851H342.208V111.851H341.208V112.851ZM341.208 136.684V137.684H342.208V136.684H341.208ZM340.893 136.684H339.893V137.684H340.893V136.684ZM340.893 113.851H341.208V111.851H340.893V113.851ZM340.208 112.851V136.684H342.208V112.851H340.208ZM341.208 135.684H340.893V137.684H341.208V135.684ZM341.893 136.684V112.851H339.893V136.684H341.893Z" fill="white" mask="url(#path-99-inside-35_2791_13529)"/>
<mask id="path-101-inside-36_2791_13529" fill="white">
<path d="M337.65 112.851H337.335V136.684H337.65V112.851Z"/>
</mask>
<path d="M337.335 112.851V111.851H336.335V112.851H337.335ZM337.65 112.851H338.65V111.851H337.65V112.851ZM337.65 136.684V137.684H338.65V136.684H337.65ZM337.335 136.684H336.335V137.684H337.335V136.684ZM337.335 113.851H337.65V111.851H337.335V113.851ZM336.65 112.851V136.684H338.65V112.851H336.65ZM337.65 135.684H337.335V137.684H337.65V135.684ZM338.335 136.684V112.851H336.335V136.684H338.335Z" fill="white" mask="url(#path-101-inside-36_2791_13529)"/>
<path d="M282.771 111.871H220.709V137.671H282.771V111.871Z" fill="#333399" stroke="#EAECF5" stroke-width="2" stroke-miterlimit="10"/>
<path d="M236.205 111.871H220.709V137.671H236.205V111.871Z" fill="#333399" stroke="#EAECF5" stroke-width="2" stroke-miterlimit="10"/>
<mask id="path-105-inside-37_2791_13529" fill="white">
<path d="M264.971 112.851H264.657V136.684H264.971V112.851Z"/>
</mask>
<path d="M264.657 112.851V111.851H263.657V112.851H264.657ZM264.971 112.851H265.971V111.851H264.971V112.851ZM264.971 136.684V137.684H265.971V136.684H264.971ZM264.657 136.684H263.657V137.684H264.657V136.684ZM264.657 113.851H264.971V111.851H264.657V113.851ZM263.971 112.851V136.684H265.971V112.851H263.971ZM264.971 135.684H264.657V137.684H264.971V135.684ZM265.657 136.684V112.851H263.657V136.684H265.657Z" fill="white" mask="url(#path-105-inside-37_2791_13529)"/>
<mask id="path-107-inside-38_2791_13529" fill="white">
<path d="M261.406 112.851H261.092V136.684H261.406V112.851Z"/>
</mask>
<path d="M261.092 112.851V111.851H260.092V112.851H261.092ZM261.406 112.851H262.406V111.851H261.406V112.851ZM261.406 136.684V137.684H262.406V136.684H261.406ZM261.092 136.684H260.092V137.684H261.092V136.684ZM261.092 113.851H261.406V111.851H261.092V113.851ZM260.406 112.851V136.684H262.406V112.851H260.406ZM261.406 135.684H261.092V137.684H261.406V135.684ZM262.092 136.684V112.851H260.092V136.684H262.092Z" fill="white" mask="url(#path-107-inside-38_2791_13529)"/>
<mask id="path-109-inside-39_2791_13529" fill="white">
<path d="M257.849 112.851H257.534V136.684H257.849V112.851Z"/>
</mask>
<path d="M257.534 112.851V111.851H256.534V112.851H257.534ZM257.849 112.851H258.849V111.851H257.849V112.851ZM257.849 136.684V137.684H258.849V136.684H257.849ZM257.534 136.684H256.534V137.684H257.534V136.684ZM257.534 113.851H257.849V111.851H257.534V113.851ZM256.849 112.851V136.684H258.849V112.851H256.849ZM257.849 135.684H257.534V137.684H257.849V135.684ZM258.534 136.684V112.851H256.534V136.684H258.534Z" fill="white" mask="url(#path-109-inside-39_2791_13529)"/>
<mask id="path-111-inside-40_2791_13529" fill="white">
<path d="M254.284 112.851H253.969V136.684H254.284V112.851Z"/>
</mask>
<path d="M253.969 112.851V111.851H252.969V112.851H253.969ZM254.284 112.851H255.284V111.851H254.284V112.851ZM254.284 136.684V137.684H255.284V136.684H254.284ZM253.969 136.684H252.969V137.684H253.969V136.684ZM253.969 113.851H254.284V111.851H253.969V113.851ZM253.284 112.851V136.684H255.284V112.851H253.284ZM254.284 135.684H253.969V137.684H254.284V135.684ZM254.969 136.684V112.851H252.969V136.684H254.969Z" fill="white" mask="url(#path-111-inside-40_2791_13529)"/>
<mask id="path-113-inside-41_2791_13529" fill="white">
<path d="M250.719 112.851H250.404V136.684H250.719V112.851Z"/>
</mask>
<path d="M250.404 112.851V111.851H249.404V112.851H250.404ZM250.719 112.851H251.719V111.851H250.719V112.851ZM250.719 136.684V137.684H251.719V136.684H250.719ZM250.404 136.684H249.404V137.684H250.404V136.684ZM250.404 113.851H250.719V111.851H250.404V113.851ZM249.719 112.851V136.684H251.719V112.851H249.719ZM250.719 135.684H250.404V137.684H250.719V135.684ZM251.404 136.684V112.851H249.404V136.684H251.404Z" fill="white" mask="url(#path-113-inside-41_2791_13529)"/>
<mask id="path-115-inside-42_2791_13529" fill="white">
<path d="M247.154 112.851H246.84V136.684H247.154V112.851Z"/>
</mask>
<path d="M246.84 112.851V111.851H245.84V112.851H246.84ZM247.154 112.851H248.154V111.851H247.154V112.851ZM247.154 136.684V137.684H248.154V136.684H247.154ZM246.84 136.684H245.84V137.684H246.84V136.684ZM246.84 113.851H247.154V111.851H246.84V113.851ZM246.154 112.851V136.684H248.154V112.851H246.154ZM247.154 135.684H246.84V137.684H247.154V135.684ZM247.84 136.684V112.851H245.84V136.684H247.84Z" fill="white" mask="url(#path-115-inside-42_2791_13529)"/>
<mask id="path-117-inside-43_2791_13529" fill="white">
<path d="M243.596 112.851H243.282V136.684H243.596V112.851Z"/>
</mask>
<path d="M243.282 112.851V111.851H242.282V112.851H243.282ZM243.596 112.851H244.596V111.851H243.596V112.851ZM243.596 136.684V137.684H244.596V136.684H243.596ZM243.282 136.684H242.282V137.684H243.282V136.684ZM243.282 113.851H243.596V111.851H243.282V113.851ZM242.596 112.851V136.684H244.596V112.851H242.596ZM243.596 135.684H243.282V137.684H243.596V135.684ZM244.282 136.684V112.851H242.282V136.684H244.282Z" fill="white" mask="url(#path-117-inside-43_2791_13529)"/>
<mask id="path-119-inside-44_2791_13529" fill="white">
<path d="M240.018 112.851H239.703V136.684H240.018V112.851Z"/>
</mask>
<path d="M239.703 112.851V111.851H238.703V112.851H239.703ZM240.018 112.851H241.018V111.851H240.018V112.851ZM240.018 136.684V137.684H241.018V136.684H240.018ZM239.703 136.684H238.703V137.684H239.703V136.684ZM239.703 113.851H240.018V111.851H239.703V113.851ZM239.018 112.851V136.684H241.018V112.851H239.018ZM240.018 135.684H239.703V137.684H240.018V135.684ZM240.703 136.684V112.851H238.703V136.684H240.703Z" fill="white" mask="url(#path-119-inside-44_2791_13529)"/>
<mask id="path-121-inside-45_2791_13529" fill="white">
<path d="M236.46 112.851H236.145V136.684H236.46V112.851Z"/>
</mask>
<path d="M236.145 112.851V111.851H235.145V112.851H236.145ZM236.46 112.851H237.46V111.851H236.46V112.851ZM236.46 136.684V137.684H237.46V136.684H236.46ZM236.145 136.684H235.145V137.684H236.145V136.684ZM236.145 113.851H236.46V111.851H236.145V113.851ZM235.46 112.851V136.684H237.46V112.851H235.46ZM236.46 135.684H236.145V137.684H236.46V135.684ZM237.145 136.684V112.851H235.145V136.684H237.145Z" fill="white" mask="url(#path-121-inside-45_2791_13529)"/>
<mask id="path-123-inside-46_2791_13529" fill="white">
<path d="M232.895 112.851H232.581V136.684H232.895V112.851Z"/>
</mask>
<path d="M232.581 112.851V111.851H231.581V112.851H232.581ZM232.895 112.851H233.895V111.851H232.895V112.851ZM232.895 136.684V137.684H233.895V136.684H232.895ZM232.581 136.684H231.581V137.684H232.581V136.684ZM232.581 113.851H232.895V111.851H232.581V113.851ZM231.895 112.851V136.684H233.895V112.851H231.895ZM232.895 135.684H232.581V137.684H232.895V135.684ZM233.581 136.684V112.851H231.581V136.684H233.581Z" fill="white" mask="url(#path-123-inside-46_2791_13529)"/>
<mask id="path-125-inside-47_2791_13529" fill="white">
<path d="M229.323 112.851H229.008V136.684H229.323V112.851Z"/>
</mask>
<path d="M229.008 112.851V111.851H228.008V112.851H229.008ZM229.323 112.851H230.323V111.851H229.323V112.851ZM229.323 136.684V137.684H230.323V136.684H229.323ZM229.008 136.684H228.008V137.684H229.008V136.684ZM229.008 113.851H229.323V111.851H229.008V113.851ZM228.323 112.851V136.684H230.323V112.851H228.323ZM229.323 135.684H229.008V137.684H229.323V135.684ZM230.008 136.684V112.851H228.008V136.684H230.008Z" fill="white" mask="url(#path-125-inside-47_2791_13529)"/>
<mask id="path-127-inside-48_2791_13529" fill="white">
<path d="M225.765 112.851H225.451V136.684H225.765V112.851Z"/>
</mask>
<path d="M225.451 112.851V111.851H224.451V112.851H225.451ZM225.765 112.851H226.765V111.851H225.765V112.851ZM225.765 136.684V137.684H226.765V136.684H225.765ZM225.451 136.684H224.451V137.684H225.451V136.684ZM225.451 113.851H225.765V111.851H225.451V113.851ZM224.765 112.851V136.684H226.765V112.851H224.765ZM225.765 135.684H225.451V137.684H225.765V135.684ZM226.451 136.684V112.851H224.451V136.684H226.451Z" fill="white" mask="url(#path-127-inside-48_2791_13529)"/>
<path d="M306.6 85.9863H244.539V111.786H306.6V85.9863Z" fill="#333399" stroke="#EAECF5" stroke-width="2" stroke-miterlimit="10"/>
<path d="M260.035 85.9863H244.539V111.786H260.035V85.9863Z" fill="#333399" stroke="#EAECF5" stroke-width="2" stroke-miterlimit="10"/>
<mask id="path-131-inside-49_2791_13529" fill="white">
<path d="M303.292 86.9668H302.978V110.8H303.292V86.9668Z"/>
</mask>
<path d="M302.978 86.9668V85.9668H301.978V86.9668H302.978ZM303.292 86.9668H304.292V85.9668H303.292V86.9668ZM303.292 110.8V111.8H304.292V110.8H303.292ZM302.978 110.8H301.978V111.8H302.978V110.8ZM302.978 87.9668H303.292V85.9668H302.978V87.9668ZM302.292 86.9668V110.8H304.292V86.9668H302.292ZM303.292 109.8H302.978V111.8H303.292V109.8ZM303.978 110.8V86.9668H301.978V110.8H303.978Z" fill="white" mask="url(#path-131-inside-49_2791_13529)"/>
<mask id="path-133-inside-50_2791_13529" fill="white">
<path d="M299.727 86.9668H299.413V110.8H299.727V86.9668Z"/>
</mask>
<path d="M299.413 86.9668V85.9668H298.413V86.9668H299.413ZM299.727 86.9668H300.727V85.9668H299.727V86.9668ZM299.727 110.8V111.8H300.727V110.8H299.727ZM299.413 110.8H298.413V111.8H299.413V110.8ZM299.413 87.9668H299.727V85.9668H299.413V87.9668ZM298.727 86.9668V110.8H300.727V86.9668H298.727ZM299.727 109.8H299.413V111.8H299.727V109.8ZM300.413 110.8V86.9668H298.413V110.8H300.413Z" fill="white" mask="url(#path-133-inside-50_2791_13529)"/>
<mask id="path-135-inside-51_2791_13529" fill="white">
<path d="M296.17 86.9668H295.855V110.8H296.17V86.9668Z"/>
</mask>
<path d="M295.855 86.9668V85.9668H294.855V86.9668H295.855ZM296.17 86.9668H297.17V85.9668H296.17V86.9668ZM296.17 110.8V111.8H297.17V110.8H296.17ZM295.855 110.8H294.855V111.8H295.855V110.8ZM295.855 87.9668H296.17V85.9668H295.855V87.9668ZM295.17 86.9668V110.8H297.17V86.9668H295.17ZM296.17 109.8H295.855V111.8H296.17V109.8ZM296.855 110.8V86.9668H294.855V110.8H296.855Z" fill="white" mask="url(#path-135-inside-51_2791_13529)"/>
<mask id="path-137-inside-52_2791_13529" fill="white">
<path d="M292.605 86.9668H292.29V110.8H292.605V86.9668Z"/>
</mask>
<path d="M292.29 86.9668V85.9668H291.29V86.9668H292.29ZM292.605 86.9668H293.605V85.9668H292.605V86.9668ZM292.605 110.8V111.8H293.605V110.8H292.605ZM292.29 110.8H291.29V111.8H292.29V110.8ZM292.29 87.9668H292.605V85.9668H292.29V87.9668ZM291.605 86.9668V110.8H293.605V86.9668H291.605ZM292.605 109.8H292.29V111.8H292.605V109.8ZM293.29 110.8V86.9668H291.29V110.8H293.29Z" fill="white" mask="url(#path-137-inside-52_2791_13529)"/>
<mask id="path-139-inside-53_2791_13529" fill="white">
<path d="M289.04 86.9668H288.725V110.8H289.04V86.9668Z"/>
</mask>
<path d="M288.725 86.9668V85.9668H287.725V86.9668H288.725ZM289.04 86.9668H290.04V85.9668H289.04V86.9668ZM289.04 110.8V111.8H290.04V110.8H289.04ZM288.725 110.8H287.725V111.8H288.725V110.8ZM288.725 87.9668H289.04V85.9668H288.725V87.9668ZM288.04 86.9668V110.8H290.04V86.9668H288.04ZM289.04 109.8H288.725V111.8H289.04V109.8ZM289.725 110.8V86.9668H287.725V110.8H289.725Z" fill="white" mask="url(#path-139-inside-53_2791_13529)"/>
<mask id="path-141-inside-54_2791_13529" fill="white">
<path d="M285.475 86.9668H285.161V110.8H285.475V86.9668Z"/>
</mask>
<path d="M285.161 86.9668V85.9668H284.161V86.9668H285.161ZM285.475 86.9668H286.475V85.9668H285.475V86.9668ZM285.475 110.8V111.8H286.475V110.8H285.475ZM285.161 110.8H284.161V111.8H285.161V110.8ZM285.161 87.9668H285.475V85.9668H285.161V87.9668ZM284.475 86.9668V110.8H286.475V86.9668H284.475ZM285.475 109.8H285.161V111.8H285.475V109.8ZM286.161 110.8V86.9668H284.161V110.8H286.161Z" fill="white" mask="url(#path-141-inside-54_2791_13529)"/>
<mask id="path-143-inside-55_2791_13529" fill="white">
<path d="M281.917 86.9668H281.603V110.8H281.917V86.9668Z"/>
</mask>
<path d="M281.603 86.9668V85.9668H280.603V86.9668H281.603ZM281.917 86.9668H282.917V85.9668H281.917V86.9668ZM281.917 110.8V111.8H282.917V110.8H281.917ZM281.603 110.8H280.603V111.8H281.603V110.8ZM281.603 87.9668H281.917V85.9668H281.603V87.9668ZM280.917 86.9668V110.8H282.917V86.9668H280.917ZM281.917 109.8H281.603V111.8H281.917V109.8ZM282.603 110.8V86.9668H280.603V110.8H282.603Z" fill="white" mask="url(#path-143-inside-55_2791_13529)"/>
<mask id="path-145-inside-56_2791_13529" fill="white">
<path d="M278.339 86.9668H278.024V110.8H278.339V86.9668Z"/>
</mask>
<path d="M278.024 86.9668V85.9668H277.024V86.9668H278.024ZM278.339 86.9668H279.339V85.9668H278.339V86.9668ZM278.339 110.8V111.8H279.339V110.8H278.339ZM278.024 110.8H277.024V111.8H278.024V110.8ZM278.024 87.9668H278.339V85.9668H278.024V87.9668ZM277.339 86.9668V110.8H279.339V86.9668H277.339ZM278.339 109.8H278.024V111.8H278.339V109.8ZM279.024 110.8V86.9668H277.024V110.8H279.024Z" fill="white" mask="url(#path-145-inside-56_2791_13529)"/>
<mask id="path-147-inside-57_2791_13529" fill="white">
<path d="M274.78 86.9668H274.466V110.8H274.78V86.9668Z"/>
</mask>
<path d="M274.466 86.9668V85.9668H273.466V86.9668H274.466ZM274.78 86.9668H275.78V85.9668H274.78V86.9668ZM274.78 110.8V111.8H275.78V110.8H274.78ZM274.466 110.8H273.466V111.8H274.466V110.8ZM274.466 87.9668H274.78V85.9668H274.466V87.9668ZM273.78 86.9668V110.8H275.78V86.9668H273.78ZM274.78 109.8H274.466V111.8H274.78V109.8ZM275.466 110.8V86.9668H273.466V110.8H275.466Z" fill="white" mask="url(#path-147-inside-57_2791_13529)"/>
<mask id="path-149-inside-58_2791_13529" fill="white">
<path d="M271.216 86.9668H270.901V110.8H271.216V86.9668Z"/>
</mask>
<path d="M270.901 86.9668V85.9668H269.901V86.9668H270.901ZM271.216 86.9668H272.216V85.9668H271.216V86.9668ZM271.216 110.8V111.8H272.216V110.8H271.216ZM270.901 110.8H269.901V111.8H270.901V110.8ZM270.901 87.9668H271.216V85.9668H270.901V87.9668ZM270.216 86.9668V110.8H272.216V86.9668H270.216ZM271.216 109.8H270.901V111.8H271.216V109.8ZM271.901 110.8V86.9668H269.901V110.8H271.901Z" fill="white" mask="url(#path-149-inside-58_2791_13529)"/>
<mask id="path-151-inside-59_2791_13529" fill="white">
<path d="M267.644 86.9668H267.329V110.8H267.644V86.9668Z"/>
</mask>
<path d="M267.329 86.9668V85.9668H266.329V86.9668H267.329ZM267.644 86.9668H268.644V85.9668H267.644V86.9668ZM267.644 110.8V111.8H268.644V110.8H267.644ZM267.329 110.8H266.329V111.8H267.329V110.8ZM267.329 87.9668H267.644V85.9668H267.329V87.9668ZM266.644 86.9668V110.8H268.644V86.9668H266.644ZM267.644 109.8H267.329V111.8H267.644V109.8ZM268.329 110.8V86.9668H266.329V110.8H268.329Z" fill="white" mask="url(#path-151-inside-59_2791_13529)"/>
<mask id="path-153-inside-60_2791_13529" fill="white">
<path d="M264.086 86.9668H263.771V110.8H264.086V86.9668Z"/>
</mask>
<path d="M263.771 86.9668V85.9668H262.771V86.9668H263.771ZM264.086 86.9668H265.086V85.9668H264.086V86.9668ZM264.086 110.8V111.8H265.086V110.8H264.086ZM263.771 110.8H262.771V111.8H263.771V110.8ZM263.771 87.9668H264.086V85.9668H263.771V87.9668ZM263.086 86.9668V110.8H265.086V86.9668H263.086ZM264.086 109.8H263.771V111.8H264.086V109.8ZM264.771 110.8V86.9668H262.771V110.8H264.771Z" fill="white" mask="url(#path-153-inside-60_2791_13529)"/>
<path d="M361.425 85.9912H299.364V111.791H361.425V85.9912Z" fill="#333399" stroke="#EAECF5" stroke-width="2" stroke-miterlimit="10"/>
<path d="M314.859 85.9912H299.364V111.791H314.859V85.9912Z" fill="#333399" stroke="#EAECF5" stroke-width="2" stroke-miterlimit="10"/>
<mask id="path-157-inside-61_2791_13529" fill="white">
<path d="M357.97 86.9707H357.656V110.804H357.97V86.9707Z"/>
</mask>
<path d="M357.656 86.9707V85.9707H356.656V86.9707H357.656ZM357.97 86.9707H358.97V85.9707H357.97V86.9707ZM357.97 110.804V111.804H358.97V110.804H357.97ZM357.656 110.804H356.656V111.804H357.656V110.804ZM357.656 87.9707H357.97V85.9707H357.656V87.9707ZM356.97 86.9707V110.804H358.97V86.9707H356.97ZM357.97 109.804H357.656V111.804H357.97V109.804ZM358.656 110.804V86.9707H356.656V110.804H358.656Z" fill="white" mask="url(#path-157-inside-61_2791_13529)"/>
<mask id="path-159-inside-62_2791_13529" fill="white">
<path d="M354.405 86.9707H354.091V110.804H354.405V86.9707Z"/>
</mask>
<path d="M354.091 86.9707V85.9707H353.091V86.9707H354.091ZM354.405 86.9707H355.405V85.9707H354.405V86.9707ZM354.405 110.804V111.804H355.405V110.804H354.405ZM354.091 110.804H353.091V111.804H354.091V110.804ZM354.091 87.9707H354.405V85.9707H354.091V87.9707ZM353.405 86.9707V110.804H355.405V86.9707H353.405ZM354.405 109.804H354.091V111.804H354.405V109.804ZM355.091 110.804V86.9707H353.091V110.804H355.091Z" fill="white" mask="url(#path-159-inside-62_2791_13529)"/>
<mask id="path-161-inside-63_2791_13529" fill="white">
<path d="M350.848 86.9707H350.533V110.804H350.848V86.9707Z"/>
</mask>
<path d="M350.533 86.9707V85.9707H349.533V86.9707H350.533ZM350.848 86.9707H351.848V85.9707H350.848V86.9707ZM350.848 110.804V111.804H351.848V110.804H350.848ZM350.533 110.804H349.533V111.804H350.533V110.804ZM350.533 87.9707H350.848V85.9707H350.533V87.9707ZM349.848 86.9707V110.804H351.848V86.9707H349.848ZM350.848 109.804H350.533V111.804H350.848V109.804ZM351.533 110.804V86.9707H349.533V110.804H351.533Z" fill="white" mask="url(#path-161-inside-63_2791_13529)"/>
<mask id="path-163-inside-64_2791_13529" fill="white">
<path d="M347.283 86.9707H346.968V110.804H347.283V86.9707Z"/>
</mask>
<path d="M346.968 86.9707V85.9707H345.968V86.9707H346.968ZM347.283 86.9707H348.283V85.9707H347.283V86.9707ZM347.283 110.804V111.804H348.283V110.804H347.283ZM346.968 110.804H345.968V111.804H346.968V110.804ZM346.968 87.9707H347.283V85.9707H346.968V87.9707ZM346.283 86.9707V110.804H348.283V86.9707H346.283ZM347.283 109.804H346.968V111.804H347.283V109.804ZM347.968 110.804V86.9707H345.968V110.804H347.968Z" fill="white" mask="url(#path-163-inside-64_2791_13529)"/>
<mask id="path-165-inside-65_2791_13529" fill="white">
<path d="M343.718 86.9707H343.403V110.804H343.718V86.9707Z"/>
</mask>
<path d="M343.403 86.9707V85.9707H342.403V86.9707H343.403ZM343.718 86.9707H344.718V85.9707H343.718V86.9707ZM343.718 110.804V111.804H344.718V110.804H343.718ZM343.403 110.804H342.403V111.804H343.403V110.804ZM343.403 87.9707H343.718V85.9707H343.403V87.9707ZM342.718 86.9707V110.804H344.718V86.9707H342.718ZM343.718 109.804H343.403V111.804H343.718V109.804ZM344.403 110.804V86.9707H342.403V110.804H344.403Z" fill="white" mask="url(#path-165-inside-65_2791_13529)"/>
<mask id="path-167-inside-66_2791_13529" fill="white">
<path d="M340.154 86.9707H339.839V110.804H340.154V86.9707Z"/>
</mask>
<path d="M339.839 86.9707V85.9707H338.839V86.9707H339.839ZM340.154 86.9707H341.154V85.9707H340.154V86.9707ZM340.154 110.804V111.804H341.154V110.804H340.154ZM339.839 110.804H338.839V111.804H339.839V110.804ZM339.839 87.9707H340.154V85.9707H339.839V87.9707ZM339.154 86.9707V110.804H341.154V86.9707H339.154ZM340.154 109.804H339.839V111.804H340.154V109.804ZM340.839 110.804V86.9707H338.839V110.804H340.839Z" fill="white" mask="url(#path-167-inside-66_2791_13529)"/>
<mask id="path-169-inside-67_2791_13529" fill="white">
<path d="M336.595 86.9707H336.281V110.804H336.595V86.9707Z"/>
</mask>
<path d="M336.281 86.9707V85.9707H335.281V86.9707H336.281ZM336.595 86.9707H337.595V85.9707H336.595V86.9707ZM336.595 110.804V111.804H337.595V110.804H336.595ZM336.281 110.804H335.281V111.804H336.281V110.804ZM336.281 87.9707H336.595V85.9707H336.281V87.9707ZM335.595 86.9707V110.804H337.595V86.9707H335.595ZM336.595 109.804H336.281V111.804H336.595V109.804ZM337.281 110.804V86.9707H335.281V110.804H337.281Z" fill="white" mask="url(#path-169-inside-67_2791_13529)"/>
<mask id="path-171-inside-68_2791_13529" fill="white">
<path d="M333.017 86.9707H332.702V110.804H333.017V86.9707Z"/>
</mask>
<path d="M332.702 86.9707V85.9707H331.702V86.9707H332.702ZM333.017 86.9707H334.017V85.9707H333.017V86.9707ZM333.017 110.804V111.804H334.017V110.804H333.017ZM332.702 110.804H331.702V111.804H332.702V110.804ZM332.702 87.9707H333.017V85.9707H332.702V87.9707ZM332.017 86.9707V110.804H334.017V86.9707H332.017ZM333.017 109.804H332.702V111.804H333.017V109.804ZM333.702 110.804V86.9707H331.702V110.804H333.702Z" fill="white" mask="url(#path-171-inside-68_2791_13529)"/>
<mask id="path-173-inside-69_2791_13529" fill="white">
<path d="M329.459 86.9707H329.144V110.804H329.459V86.9707Z"/>
</mask>
<path d="M329.144 86.9707V85.9707H328.144V86.9707H329.144ZM329.459 86.9707H330.459V85.9707H329.459V86.9707ZM329.459 110.804V111.804H330.459V110.804H329.459ZM329.144 110.804H328.144V111.804H329.144V110.804ZM329.144 87.9707H329.459V85.9707H329.144V87.9707ZM328.459 86.9707V110.804H330.459V86.9707H328.459ZM329.459 109.804H329.144V111.804H329.459V109.804ZM330.144 110.804V86.9707H328.144V110.804H330.144Z" fill="white" mask="url(#path-173-inside-69_2791_13529)"/>
<mask id="path-175-inside-70_2791_13529" fill="white">
<path d="M325.894 86.9707H325.58V110.804H325.894V86.9707Z"/>
</mask>
<path d="M325.58 86.9707V85.9707H324.58V86.9707H325.58ZM325.894 86.9707H326.894V85.9707H325.894V86.9707ZM325.894 110.804V111.804H326.894V110.804H325.894ZM325.58 110.804H324.58V111.804H325.58V110.804ZM325.58 87.9707H325.894V85.9707H325.58V87.9707ZM324.894 86.9707V110.804H326.894V86.9707H324.894ZM325.894 109.804H325.58V111.804H325.894V109.804ZM326.58 110.804V86.9707H324.58V110.804H326.58Z" fill="white" mask="url(#path-175-inside-70_2791_13529)"/>
<mask id="path-177-inside-71_2791_13529" fill="white">
<path d="M322.322 86.9707H322.007V110.804H322.322V86.9707Z"/>
</mask>
<path d="M322.007 86.9707V85.9707H321.007V86.9707H322.007ZM322.322 86.9707H323.322V85.9707H322.322V86.9707ZM322.322 110.804V111.804H323.322V110.804H322.322ZM322.007 110.804H321.007V111.804H322.007V110.804ZM322.007 87.9707H322.322V85.9707H322.007V87.9707ZM321.322 86.9707V110.804H323.322V86.9707H321.322ZM322.322 109.804H322.007V111.804H322.322V109.804ZM323.007 110.804V86.9707H321.007V110.804H323.007Z" fill="white" mask="url(#path-177-inside-71_2791_13529)"/>
<mask id="path-179-inside-72_2791_13529" fill="white">
<path d="M318.764 86.9707H318.45V110.804H318.764V86.9707Z"/>
</mask>
<path d="M318.45 86.9707V85.9707H317.45V86.9707H318.45ZM318.764 86.9707H319.764V85.9707H318.764V86.9707ZM318.764 110.804V111.804H319.764V110.804H318.764ZM318.45 110.804H317.45V111.804H318.45V110.804ZM318.45 87.9707H318.764V85.9707H318.45V87.9707ZM317.764 86.9707V110.804H319.764V86.9707H317.764ZM318.764 109.804H318.45V111.804H318.764V109.804ZM319.45 110.804V86.9707H317.45V110.804H319.45Z" fill="white" mask="url(#path-179-inside-72_2791_13529)"/>
<path d="M330.347 111.871H268.286V137.671H330.347V111.871Z" fill="#333399" stroke="#EAECF5" stroke-width="2" stroke-miterlimit="10"/>
<path d="M283.781 111.871H268.286V137.671H283.781V111.871Z" fill="#333399" stroke="#EAECF5" stroke-width="2" stroke-miterlimit="10"/>
<mask id="path-183-inside-73_2791_13529" fill="white">
<path d="M326.88 112.851H326.565V136.684H326.88V112.851Z"/>
</mask>
<path d="M326.565 112.851V111.851H325.565V112.851H326.565ZM326.88 112.851H327.88V111.851H326.88V112.851ZM326.88 136.684V137.684H327.88V136.684H326.88ZM326.565 136.684H325.565V137.684H326.565V136.684ZM326.565 113.851H326.88V111.851H326.565V113.851ZM325.88 112.851V136.684H327.88V112.851H325.88ZM326.88 135.684H326.565V137.684H326.88V135.684ZM327.565 136.684V112.851H325.565V136.684H327.565Z" fill="white" mask="url(#path-183-inside-73_2791_13529)"/>
<mask id="path-185-inside-74_2791_13529" fill="white">
<path d="M323.315 112.851H323V136.684H323.315V112.851Z"/>
</mask>
<path d="M323 112.851V111.851H322V112.851H323ZM323.315 112.851H324.315V111.851H323.315V112.851ZM323.315 136.684V137.684H324.315V136.684H323.315ZM323 136.684H322V137.684H323V136.684ZM323 113.851H323.315V111.851H323V113.851ZM322.315 112.851V136.684H324.315V112.851H322.315ZM323.315 135.684H323V137.684H323.315V135.684ZM324 136.684V112.851H322V136.684H324Z" fill="white" mask="url(#path-185-inside-74_2791_13529)"/>
<mask id="path-187-inside-75_2791_13529" fill="white">
<path d="M319.757 112.851H319.443V136.684H319.757V112.851Z"/>
</mask>
<path d="M319.443 112.851V111.851H318.443V112.851H319.443ZM319.757 112.851H320.757V111.851H319.757V112.851ZM319.757 136.684V137.684H320.757V136.684H319.757ZM319.443 136.684H318.443V137.684H319.443V136.684ZM319.443 113.851H319.757V111.851H319.443V113.851ZM318.757 112.851V136.684H320.757V112.851H318.757ZM319.757 135.684H319.443V137.684H319.757V135.684ZM320.443 136.684V112.851H318.443V136.684H320.443Z" fill="white" mask="url(#path-187-inside-75_2791_13529)"/>
<mask id="path-189-inside-76_2791_13529" fill="white">
<path d="M316.193 112.851H315.878V136.684H316.193V112.851Z"/>
</mask>
<path d="M315.878 112.851V111.851H314.878V112.851H315.878ZM316.193 112.851H317.193V111.851H316.193V112.851ZM316.193 136.684V137.684H317.193V136.684H316.193ZM315.878 136.684H314.878V137.684H315.878V136.684ZM315.878 113.851H316.193V111.851H315.878V113.851ZM315.193 112.851V136.684H317.193V112.851H315.193ZM316.193 135.684H315.878V137.684H316.193V135.684ZM316.878 136.684V112.851H314.878V136.684H316.878Z" fill="white" mask="url(#path-189-inside-76_2791_13529)"/>
<mask id="path-191-inside-77_2791_13529" fill="white">
<path d="M312.628 112.851H312.313V136.684H312.628V112.851Z"/>
</mask>
<path d="M312.313 112.851V111.851H311.313V112.851H312.313ZM312.628 112.851H313.628V111.851H312.628V112.851ZM312.628 136.684V137.684H313.628V136.684H312.628ZM312.313 136.684H311.313V137.684H312.313V136.684ZM312.313 113.851H312.628V111.851H312.313V113.851ZM311.628 112.851V136.684H313.628V112.851H311.628ZM312.628 135.684H312.313V137.684H312.628V135.684ZM313.313 136.684V112.851H311.313V136.684H313.313Z" fill="white" mask="url(#path-191-inside-77_2791_13529)"/>
<mask id="path-193-inside-78_2791_13529" fill="white">
<path d="M309.063 112.851H308.749V136.684H309.063V112.851Z"/>
</mask>
<path d="M308.749 112.851V111.851H307.749V112.851H308.749ZM309.063 112.851H310.063V111.851H309.063V112.851ZM309.063 136.684V137.684H310.063V136.684H309.063ZM308.749 136.684H307.749V137.684H308.749V136.684ZM308.749 113.851H309.063V111.851H308.749V113.851ZM308.063 112.851V136.684H310.063V112.851H308.063ZM309.063 135.684H308.749V137.684H309.063V135.684ZM309.749 136.684V112.851H307.749V136.684H309.749Z" fill="white" mask="url(#path-193-inside-78_2791_13529)"/>
<mask id="path-195-inside-79_2791_13529" fill="white">
<path d="M305.505 112.851H305.19V136.684H305.505V112.851Z"/>
</mask>
<path d="M305.19 112.851V111.851H304.19V112.851H305.19ZM305.505 112.851H306.505V111.851H305.505V112.851ZM305.505 136.684V137.684H306.505V136.684H305.505ZM305.19 136.684H304.19V137.684H305.19V136.684ZM305.19 113.851H305.505V111.851H305.19V113.851ZM304.505 112.851V136.684H306.505V112.851H304.505ZM305.505 135.684H305.19V137.684H305.505V135.684ZM306.19 136.684V112.851H304.19V136.684H306.19Z" fill="white" mask="url(#path-195-inside-79_2791_13529)"/>
<mask id="path-197-inside-80_2791_13529" fill="white">
<path d="M301.926 112.851H301.612V136.684H301.926V112.851Z"/>
</mask>
<path d="M301.612 112.851V111.851H300.612V112.851H301.612ZM301.926 112.851H302.926V111.851H301.926V112.851ZM301.926 136.684V137.684H302.926V136.684H301.926ZM301.612 136.684H300.612V137.684H301.612V136.684ZM301.612 113.851H301.926V111.851H301.612V113.851ZM300.926 112.851V136.684H302.926V112.851H300.926ZM301.926 135.684H301.612V137.684H301.926V135.684ZM302.612 136.684V112.851H300.612V136.684H302.612Z" fill="white" mask="url(#path-197-inside-80_2791_13529)"/>
<mask id="path-199-inside-81_2791_13529" fill="white">
<path d="M298.368 112.851H298.054V136.684H298.368V112.851Z"/>
</mask>
<path d="M298.054 112.851V111.851H297.054V112.851H298.054ZM298.368 112.851H299.368V111.851H298.368V112.851ZM298.368 136.684V137.684H299.368V136.684H298.368ZM298.054 136.684H297.054V137.684H298.054V136.684ZM298.054 113.851H298.368V111.851H298.054V113.851ZM297.368 112.851V136.684H299.368V112.851H297.368ZM298.368 135.684H298.054V137.684H298.368V135.684ZM299.054 136.684V112.851H297.054V136.684H299.054Z" fill="white" mask="url(#path-199-inside-81_2791_13529)"/>
<mask id="path-201-inside-82_2791_13529" fill="white">
<path d="M294.804 112.851H294.489V136.684H294.804V112.851Z"/>
</mask>
<path d="M294.489 112.851V111.851H293.489V112.851H294.489ZM294.804 112.851H295.804V111.851H294.804V112.851ZM294.804 136.684V137.684H295.804V136.684H294.804ZM294.489 136.684H293.489V137.684H294.489V136.684ZM294.489 113.851H294.804V111.851H294.489V113.851ZM293.804 112.851V136.684H295.804V112.851H293.804ZM294.804 135.684H294.489V137.684H294.804V135.684ZM295.489 136.684V112.851H293.489V136.684H295.489Z" fill="white" mask="url(#path-201-inside-82_2791_13529)"/>
<mask id="path-203-inside-83_2791_13529" fill="white">
<path d="M291.232 112.851H290.917V136.684H291.232V112.851Z"/>
</mask>
<path d="M290.917 112.851V111.851H289.917V112.851H290.917ZM291.232 112.851H292.232V111.851H291.232V112.851ZM291.232 136.684V137.684H292.232V136.684H291.232ZM290.917 136.684H289.917V137.684H290.917V136.684ZM290.917 113.851H291.232V111.851H290.917V113.851ZM290.232 112.851V136.684H292.232V112.851H290.232ZM291.232 135.684H290.917V137.684H291.232V135.684ZM291.917 136.684V112.851H289.917V136.684H291.917Z" fill="white" mask="url(#path-203-inside-83_2791_13529)"/>
<mask id="path-205-inside-84_2791_13529" fill="white">
<path d="M287.674 112.851H287.359V136.684H287.674V112.851Z"/>
</mask>
<path d="M287.359 112.851V111.851H286.359V112.851H287.359ZM287.674 112.851H288.674V111.851H287.674V112.851ZM287.674 136.684V137.684H288.674V136.684H287.674ZM287.359 136.684H286.359V137.684H287.359V136.684ZM287.359 113.851H287.674V111.851H287.359V113.851ZM286.674 112.851V136.684H288.674V112.851H286.674ZM287.674 135.684H287.359V137.684H287.674V135.684ZM288.359 136.684V112.851H286.359V136.684H288.359Z" fill="white" mask="url(#path-205-inside-84_2791_13529)"/>
<path d="M333.588 60.1885H271.526V85.9883H333.588V60.1885Z" fill="#333399" stroke="#EAECF5" stroke-width="2" stroke-miterlimit="10"/>
<path d="M287.022 60.1885H271.526V85.9883H287.022V60.1885Z" fill="#333399" stroke="#EAECF5" stroke-width="2" stroke-miterlimit="10"/>
<mask id="path-209-inside-85_2791_13529" fill="white">
<path d="M330.05 61.21H329.735V85.0434H330.05V61.21Z"/>
</mask>
<path d="M329.735 61.21V60.21H328.735V61.21H329.735ZM330.05 61.21H331.05V60.21H330.05V61.21ZM330.05 85.0434V86.0434H331.05V85.0434H330.05ZM329.735 85.0434H328.735V86.0434H329.735V85.0434ZM329.735 62.21H330.05V60.21H329.735V62.21ZM329.05 61.21V85.0434H331.05V61.21H329.05ZM330.05 84.0434H329.735V86.0434H330.05V84.0434ZM330.735 85.0434V61.21H328.735V85.0434H330.735Z" fill="white" mask="url(#path-209-inside-85_2791_13529)"/>
<mask id="path-211-inside-86_2791_13529" fill="white">
<path d="M326.485 61.21H326.17V85.0434H326.485V61.21Z"/>
</mask>
<path d="M326.17 61.21V60.21H325.17V61.21H326.17ZM326.485 61.21H327.485V60.21H326.485V61.21ZM326.485 85.0434V86.0434H327.485V85.0434H326.485ZM326.17 85.0434H325.17V86.0434H326.17V85.0434ZM326.17 62.21H326.485V60.21H326.17V62.21ZM325.485 61.21V85.0434H327.485V61.21H325.485ZM326.485 84.0434H326.17V86.0434H326.485V84.0434ZM327.17 85.0434V61.21H325.17V85.0434H327.17Z" fill="white" mask="url(#path-211-inside-86_2791_13529)"/>
<mask id="path-213-inside-87_2791_13529" fill="white">
<path d="M322.927 61.21H322.612V85.0434H322.927V61.21Z"/>
</mask>
<path d="M322.612 61.21V60.21H321.612V61.21H322.612ZM322.927 61.21H323.927V60.21H322.927V61.21ZM322.927 85.0434V86.0434H323.927V85.0434H322.927ZM322.612 85.0434H321.612V86.0434H322.612V85.0434ZM322.612 62.21H322.927V60.21H322.612V62.21ZM321.927 61.21V85.0434H323.927V61.21H321.927ZM322.927 84.0434H322.612V86.0434H322.927V84.0434ZM323.612 85.0434V61.21H321.612V85.0434H323.612Z" fill="white" mask="url(#path-213-inside-87_2791_13529)"/>
<mask id="path-215-inside-88_2791_13529" fill="white">
<path d="M319.362 61.21H319.047V85.0434H319.362V61.21Z"/>
</mask>
<path d="M319.047 61.21V60.21H318.047V61.21H319.047ZM319.362 61.21H320.362V60.21H319.362V61.21ZM319.362 85.0434V86.0434H320.362V85.0434H319.362ZM319.047 85.0434H318.047V86.0434H319.047V85.0434ZM319.047 62.21H319.362V60.21H319.047V62.21ZM318.362 61.21V85.0434H320.362V61.21H318.362ZM319.362 84.0434H319.047V86.0434H319.362V84.0434ZM320.047 85.0434V61.21H318.047V85.0434H320.047Z" fill="white" mask="url(#path-215-inside-88_2791_13529)"/>
<mask id="path-217-inside-89_2791_13529" fill="white">
<path d="M315.797 61.21H315.482V85.0434H315.797V61.21Z"/>
</mask>
<path d="M315.482 61.21V60.21H314.482V61.21H315.482ZM315.797 61.21H316.797V60.21H315.797V61.21ZM315.797 85.0434V86.0434H316.797V85.0434H315.797ZM315.482 85.0434H314.482V86.0434H315.482V85.0434ZM315.482 62.21H315.797V60.21H315.482V62.21ZM314.797 61.21V85.0434H316.797V61.21H314.797ZM315.797 84.0434H315.482V86.0434H315.797V84.0434ZM316.482 85.0434V61.21H314.482V85.0434H316.482Z" fill="white" mask="url(#path-217-inside-89_2791_13529)"/>
<mask id="path-219-inside-90_2791_13529" fill="white">
<path d="M312.233 61.21H311.918V85.0434H312.233V61.21Z"/>
</mask>
<path d="M311.918 61.21V60.21H310.918V61.21H311.918ZM312.233 61.21H313.233V60.21H312.233V61.21ZM312.233 85.0434V86.0434H313.233V85.0434H312.233ZM311.918 85.0434H310.918V86.0434H311.918V85.0434ZM311.918 62.21H312.233V60.21H311.918V62.21ZM311.233 61.21V85.0434H313.233V61.21H311.233ZM312.233 84.0434H311.918V86.0434H312.233V84.0434ZM312.918 85.0434V61.21H310.918V85.0434H312.918Z" fill="white" mask="url(#path-219-inside-90_2791_13529)"/>
<mask id="path-221-inside-91_2791_13529" fill="white">
<path d="M308.674 61.21H308.36V85.0434H308.674V61.21Z"/>
</mask>
<path d="M308.36 61.21V60.21H307.36V61.21H308.36ZM308.674 61.21H309.674V60.21H308.674V61.21ZM308.674 85.0434V86.0434H309.674V85.0434H308.674ZM308.36 85.0434H307.36V86.0434H308.36V85.0434ZM308.36 62.21H308.674V60.21H308.36V62.21ZM307.674 61.21V85.0434H309.674V61.21H307.674ZM308.674 84.0434H308.36V86.0434H308.674V84.0434ZM309.36 85.0434V61.21H307.36V85.0434H309.36Z" fill="white" mask="url(#path-221-inside-91_2791_13529)"/>
<mask id="path-223-inside-92_2791_13529" fill="white">
<path d="M305.096 61.21H304.781V85.0434H305.096V61.21Z"/>
</mask>
<path d="M304.781 61.21V60.21H303.781V61.21H304.781ZM305.096 61.21H306.096V60.21H305.096V61.21ZM305.096 85.0434V86.0434H306.096V85.0434H305.096ZM304.781 85.0434H303.781V86.0434H304.781V85.0434ZM304.781 62.21H305.096V60.21H304.781V62.21ZM304.096 61.21V85.0434H306.096V61.21H304.096ZM305.096 84.0434H304.781V86.0434H305.096V84.0434ZM305.781 85.0434V61.21H303.781V85.0434H305.781Z" fill="white" mask="url(#path-223-inside-92_2791_13529)"/>
<mask id="path-225-inside-93_2791_13529" fill="white">
<path d="M301.538 61.21H301.223V85.0434H301.538V61.21Z"/>
</mask>
<path d="M301.223 61.21V60.21H300.223V61.21H301.223ZM301.538 61.21H302.538V60.21H301.538V61.21ZM301.538 85.0434V86.0434H302.538V85.0434H301.538ZM301.223 85.0434H300.223V86.0434H301.223V85.0434ZM301.223 62.21H301.538V60.21H301.223V62.21ZM300.538 61.21V85.0434H302.538V61.21H300.538ZM301.538 84.0434H301.223V86.0434H301.538V84.0434ZM302.223 85.0434V61.21H300.223V85.0434H302.223Z" fill="white" mask="url(#path-225-inside-93_2791_13529)"/>
<mask id="path-227-inside-94_2791_13529" fill="white">
<path d="M297.973 61.21H297.659V85.0434H297.973V61.21Z"/>
</mask>
<path d="M297.659 61.21V60.21H296.659V61.21H297.659ZM297.973 61.21H298.973V60.21H297.973V61.21ZM297.973 85.0434V86.0434H298.973V85.0434H297.973ZM297.659 85.0434H296.659V86.0434H297.659V85.0434ZM297.659 62.21H297.973V60.21H297.659V62.21ZM296.973 61.21V85.0434H298.973V61.21H296.973ZM297.973 84.0434H297.659V86.0434H297.973V84.0434ZM298.659 85.0434V61.21H296.659V85.0434H298.659Z" fill="white" mask="url(#path-227-inside-94_2791_13529)"/>
<mask id="path-229-inside-95_2791_13529" fill="white">
<path d="M294.401 61.21H294.086V85.0434H294.401V61.21Z"/>
</mask>
<path d="M294.086 61.21V60.21H293.086V61.21H294.086ZM294.401 61.21H295.401V60.21H294.401V61.21ZM294.401 85.0434V86.0434H295.401V85.0434H294.401ZM294.086 85.0434H293.086V86.0434H294.086V85.0434ZM294.086 62.21H294.401V60.21H294.086V62.21ZM293.401 61.21V85.0434H295.401V61.21H293.401ZM294.401 84.0434H294.086V86.0434H294.401V84.0434ZM295.086 85.0434V61.21H293.086V85.0434H295.086Z" fill="white" mask="url(#path-229-inside-95_2791_13529)"/>
<mask id="path-231-inside-96_2791_13529" fill="white">
<path d="M290.843 61.21H290.529V85.0434H290.843V61.21Z"/>
</mask>
<path d="M290.529 61.21V60.21H289.529V61.21H290.529ZM290.843 61.21H291.843V60.21H290.843V61.21ZM290.843 85.0434V86.0434H291.843V85.0434H290.843ZM290.529 85.0434H289.529V86.0434H290.529V85.0434ZM290.529 62.21H290.843V60.21H290.529V62.21ZM289.843 61.21V85.0434H291.843V61.21H289.843ZM290.843 84.0434H290.529V86.0434H290.843V84.0434ZM291.529 85.0434V61.21H289.529V85.0434H291.529Z" fill="white" mask="url(#path-231-inside-96_2791_13529)"/>
<path d="M480.578 125.554C480.272 125.554 479.983 125.694 479.794 125.933L474.102 133.119C473.912 133.359 473.623 133.498 473.318 133.498H251.078C250.774 133.498 250.486 133.36 250.296 133.122L240.042 120.267C239.852 120.029 239.565 119.891 239.26 119.891H69.557C68.7192 119.891 68.2528 120.859 68.7752 121.514L122.005 188.261C122.195 188.499 122.482 188.638 122.787 188.638H503.348C503.748 188.638 504.109 188.4 504.267 188.034L530.603 126.95C530.888 126.29 530.404 125.554 529.685 125.554H480.578Z" fill="#333399" stroke="#EAECF5" stroke-width="2" stroke-miterlimit="10"/>
<path d="M480.578 125.554C480.272 125.554 479.983 125.694 479.794 125.933L474.102 133.119C473.912 133.359 473.623 133.498 473.318 133.498H251.078C250.774 133.498 250.486 133.36 250.296 133.122L240.042 120.267C239.852 120.029 239.565 119.891 239.26 119.891H70.412C69.458 119.891 69.0268 121.109 69.7695 121.707C80.0044 129.956 121.122 164.48 122.28 187.65C122.308 188.202 122.71 188.638 123.262 188.638C212.925 188.638 448.468 188.638 503.609 188.638C503.886 188.638 504.113 188.523 504.301 188.319C521.112 170.093 530.979 143.631 534.809 131.743C535.813 128.627 533.462 125.554 530.188 125.554H480.578Z" fill="#333399" stroke="#EAECF5" stroke-width="2" stroke-miterlimit="10"/>
<path d="M504.029 188.712H122.65V191.466C122.65 192.063 122.383 192.629 121.922 193.009L117.223 196.884C116.499 197.481 116.921 198.655 117.859 198.655H504.029V188.712Z" fill="#333399" stroke="#EAECF5" stroke-width="2" stroke-miterlimit="10"/>
<path d="M127.477 135.619H119.612L114.105 128.146H127.477V135.619Z" fill="#333399" stroke="#EAECF5" stroke-width="2" stroke-miterlimit="10"/>
<path d="M147.57 128.146H140.176V135.54H147.57V128.146Z" fill="#333399" stroke="#EAECF5" stroke-width="2" stroke-miterlimit="10"/>
<path d="M167.663 128.146H160.27V135.54H167.663V128.146Z" fill="#333399" stroke="#EAECF5" stroke-width="2" stroke-miterlimit="10"/>
<path d="M187.757 128.146H180.363V135.54H187.757V128.146Z" fill="#333399" stroke="#EAECF5" stroke-width="2" stroke-miterlimit="10"/>
<path d="M207.851 128.146H200.457V135.54H207.851V128.146Z" fill="#333399" stroke="#EAECF5" stroke-width="2" stroke-miterlimit="10"/>
<path d="M227.945 128.146H220.551V135.54H227.945V128.146Z" fill="#333399" stroke="#EAECF5" stroke-width="2" stroke-miterlimit="10"/>
</g>
</svg>
