<svg width="25" height="25" viewBox="0 0 25 25" fill="none" xmlns="http://www.w3.org/2000/svg">
<mask id="mask0_2946_1311" style="mask-type:alpha" maskUnits="userSpaceOnUse" x="0" y="0" width="25" height="25">
<rect x="0.195312" y="0.5" width="24" height="24" fill="#D9D9D9"/>
</mask>
<g mask="url(#mask0_2946_1311)">
<path d="M19.6356 21C17.7511 21 15.8578 20.5618 13.9558 19.6855C12.054 18.8092 10.3066 17.573 8.71356 15.977C7.12073 14.3808 5.88615 12.6333 5.00981 10.7345C4.13348 8.83583 3.69531 6.94425 3.69531 5.05975C3.69531 4.75692 3.79531 4.50458 3.99531 4.30275C4.19531 4.10092 4.44531 4 4.74531 4H8.00681C8.25931 4 8.48206 4.08242 8.67506 4.24725C8.86806 4.41192 8.99081 4.61542 9.04331 4.85775L9.61656 7.8C9.65623 8.073 9.6479 8.30758 9.59156 8.50375C9.53506 8.69992 9.43373 8.86467 9.28756 8.998L6.97806 11.2462C7.34973 11.9269 7.7744 12.5708 8.25206 13.178C8.72956 13.785 9.24656 14.3648 9.80306 14.9173C10.3517 15.4661 10.9351 15.9757 11.5531 16.4462C12.1711 16.9167 12.8384 17.3546 13.5551 17.7598L15.7991 15.4963C15.9556 15.3334 16.1451 15.2193 16.3676 15.1538C16.5899 15.0884 16.821 15.0724 17.0608 15.1058L19.8376 15.6713C20.0901 15.7379 20.2961 15.8667 20.4558 16.0577C20.6155 16.2487 20.6953 16.4654 20.6953 16.7078V19.95C20.6953 20.25 20.5944 20.5 20.3926 20.7C20.1907 20.9 19.9384 21 19.6356 21ZM6.26831 9.827L8.05306 8.11925C8.08506 8.09358 8.1059 8.05833 8.11556 8.0135C8.12523 7.96867 8.12365 7.927 8.11081 7.8885L7.67606 5.65375C7.66323 5.60258 7.64081 5.56417 7.60881 5.5385C7.57681 5.51283 7.53515 5.5 7.48381 5.5H5.34531C5.30681 5.5 5.27473 5.51283 5.24906 5.5385C5.22356 5.56417 5.21081 5.59625 5.21081 5.63475C5.26198 6.31808 5.37381 7.01225 5.54631 7.71725C5.71865 8.42242 5.95931 9.12567 6.26831 9.827ZM14.9683 18.4693C15.6311 18.7783 16.3225 19.0145 17.0423 19.178C17.7623 19.3413 18.4351 19.4384 19.0606 19.4693C19.0991 19.4693 19.1311 19.4564 19.1568 19.4307C19.1825 19.4051 19.1953 19.373 19.1953 19.3345V17.2308C19.1953 17.1794 19.1825 17.1377 19.1568 17.1058C19.1311 17.0738 19.0927 17.0513 19.0416 17.0385L16.9416 16.6115C16.9031 16.5987 16.8694 16.5971 16.8406 16.6067C16.8117 16.6164 16.7812 16.6372 16.7491 16.6692L14.9683 18.4693Z" fill="#1C1B1F"/>
</g>
</svg>
