<svg width="36" height="31" viewBox="0 0 36 31" fill="none" xmlns="http://www.w3.org/2000/svg">
<path d="M14.9778 0.267996L9.40981 21.58L7.87381 14.38C10.1138 14.38 11.9698 15.084 13.4418 16.492C14.9138 17.9 15.6498 19.788 15.6498 22.156C15.6498 24.524 14.9138 26.444 13.4418 27.916C11.9698 29.324 10.1458 30.028 7.96981 30.028C5.66581 30.028 3.77781 29.292 2.30581 27.82C0.833813 26.348 0.0978128 24.46 0.0978128 22.156C0.0978128 21.388 0.129813 20.684 0.193813 20.044C0.321813 19.34 0.545813 18.508 0.865813 17.548C1.18581 16.588 1.63381 15.372 2.20981 13.9L7.29781 0.267996H14.9778ZM35.3298 0.267996L29.7618 21.58L28.2258 14.38C30.4658 14.38 32.3218 15.084 33.7938 16.492C35.2658 17.9 36.0018 19.788 36.0018 22.156C36.0018 24.524 35.2658 26.444 33.7938 27.916C32.3218 29.324 30.4978 30.028 28.3218 30.028C26.0178 30.028 24.1298 29.292 22.6578 27.82C21.1858 26.348 20.4498 24.46 20.4498 22.156C20.4498 21.388 20.4818 20.684 20.5458 20.044C20.6738 19.34 20.8978 18.508 21.2178 17.548C21.5378 16.588 21.9858 15.372 22.5618 13.9L27.6498 0.267996H35.3298Z" fill="#D6D6EB"/>
</svg>
