<svg width="25" height="24" viewBox="0 0 25 24" fill="none" xmlns="http://www.w3.org/2000/svg">
<mask id="mask0_3188_199" style="mask-type:alpha" maskUnits="userSpaceOnUse" x="0" y="0" width="25" height="24">
<rect x="0.730469" width="24" height="24" fill="#D9D9D9"/>
</mask>
<g mask="url(#mask0_3188_199)">
<path d="M5.03822 19.5C4.53305 19.5 4.10547 19.325 3.75547 18.975C3.40547 18.625 3.23047 18.1974 3.23047 17.6923V6.30775C3.23047 5.80258 3.40547 5.375 3.75547 5.025C4.10547 4.675 4.53305 4.5 5.03822 4.5H20.4227C20.9279 4.5 21.3555 4.675 21.7055 5.025C22.0555 5.375 22.2305 5.80258 22.2305 6.30775V17.6923C22.2305 18.1974 22.0555 18.625 21.7055 18.975C21.3555 19.325 20.9279 19.5 20.4227 19.5H5.03822ZM12.7305 12.5577L4.73047 7.44225V17.6923C4.73047 17.7821 4.7593 17.8558 4.81697 17.9135C4.87464 17.9712 4.94839 18 5.03822 18H20.4227C20.5126 18 20.5863 17.9712 20.644 17.9135C20.7016 17.8558 20.7305 17.7821 20.7305 17.6923V7.44225L12.7305 12.5577ZM12.7305 11L20.5767 6H4.88422L12.7305 11ZM4.73047 7.44225V6V17.6923C4.73047 17.7821 4.7593 17.8558 4.81697 17.9135C4.87464 17.9712 4.94839 18 5.03822 18H4.73047V7.44225Z" fill="#333399"/>
</g>
</svg>
