<svg width="25" height="24" viewBox="0 0 25 24" fill="none" xmlns="http://www.w3.org/2000/svg">
<mask id="mask0_3188_1161" style="mask-type:alpha" maskUnits="userSpaceOnUse" x="0" y="0" width="25" height="24">
<rect x="0.730469" width="24" height="24" fill="#D9D9D9"/>
</mask>
<g mask="url(#mask0_3188_1161)">
<path d="M20.1707 20.5C18.2862 20.5 16.393 20.0618 14.491 19.1855C12.5891 18.3092 10.8417 17.073 9.24872 15.477C7.65589 13.8808 6.4213 12.1333 5.54497 10.2345C4.66864 8.33583 4.23047 6.44425 4.23047 4.55975C4.23047 4.25692 4.33047 4.00458 4.53047 3.80275C4.73047 3.60092 4.98047 3.5 5.28047 3.5H8.54197C8.79447 3.5 9.01722 3.58242 9.21022 3.74725C9.40322 3.91192 9.52597 4.11542 9.57847 4.35775L10.1517 7.3C10.1914 7.573 10.1831 7.80758 10.1267 8.00375C10.0702 8.19992 9.96889 8.36467 9.82272 8.498L7.51322 10.7462C7.88489 11.4269 8.30955 12.0708 8.78722 12.678C9.26472 13.285 9.78172 13.8648 10.3382 14.4173C10.8869 14.9661 11.4702 15.4757 12.0882 15.9462C12.7062 16.4167 13.3736 16.8546 14.0902 17.2598L16.3342 14.9963C16.4907 14.8334 16.6802 14.7193 16.9027 14.6538C17.1251 14.5884 17.3561 14.5724 17.596 14.6058L20.3727 15.1713C20.6252 15.2379 20.8313 15.3667 20.991 15.5577C21.1506 15.7487 21.2305 15.9654 21.2305 16.2078V19.45C21.2305 19.75 21.1296 20 20.9277 20.2C20.7259 20.4 20.4736 20.5 20.1707 20.5ZM6.80347 9.327L8.58822 7.61925C8.62022 7.59358 8.64105 7.55833 8.65072 7.5135C8.66039 7.46867 8.6588 7.427 8.64597 7.3885L8.21122 5.15375C8.19839 5.10258 8.17597 5.06417 8.14397 5.0385C8.11197 5.01283 8.0703 5 8.01897 5H5.88047C5.84197 5 5.80989 5.01283 5.78422 5.0385C5.75872 5.06417 5.74597 5.09625 5.74597 5.13475C5.79714 5.81808 5.90897 6.51225 6.08147 7.21725C6.2538 7.92242 6.49447 8.62567 6.80347 9.327ZM15.5035 17.9693C16.1663 18.2783 16.8576 18.5145 17.5775 18.678C18.2975 18.8413 18.9702 18.9384 19.5957 18.9693C19.6342 18.9693 19.6663 18.9564 19.692 18.9307C19.7176 18.9051 19.7305 18.873 19.7305 18.8345V16.7308C19.7305 16.6794 19.7176 16.6377 19.692 16.6058C19.6663 16.5738 19.6279 16.5513 19.5767 16.5385L17.4767 16.1115C17.4382 16.0987 17.4046 16.0971 17.3757 16.1067C17.3469 16.1164 17.3164 16.1372 17.2842 16.1692L15.5035 17.9693Z" fill="#333399"/>
</g>
</svg>
