<svg width="97" height="109" viewBox="0 0 97 109" fill="none" xmlns="http://www.w3.org/2000/svg">
<g filter="url(#filter0_di_2351_11422)">
<path fill-rule="evenodd" clip-rule="evenodd" d="M48.4058 100.778L47.9526 100.869L47.2274 100.652C33.3224 96.4094 18.2209 89.0671 9.97214 76.5399C7.80991 73.3158 6.22706 69.7391 5.29483 65.9707C4.95038 64.5022 4.64219 62.6893 4.67845 61.1665V18.8713L7.43407 18.7263C22.9344 17.9649 35.516 15.4087 46.0671 3.17153L48.0613 0.869141L50.2368 2.93586C55.313 7.7038 60.6792 12.2723 67.1875 14.9373C74.0584 17.7473 82.0171 18.3818 89.3775 18.7444L92.1331 18.8713V61.2208C92.2238 62.9794 91.7706 65.2455 91.3173 66.9315C90.2436 70.7083 88.5264 74.2716 86.2412 77.4645C77.8474 89.4297 63.181 96.5 49.5842 100.67L48.859 100.869L48.4058 100.778Z" fill="#CC3333"/>
<path d="M48.8858 98.269L48.7679 98.3014L48.4058 98.229L48.0737 98.2954L47.9569 98.2604C47.9555 98.2599 47.954 98.2595 47.9526 98.2591C34.2153 94.0675 19.8181 86.947 12.0601 75.165L12.0543 75.1562L12.0484 75.1474C10.0511 72.1692 8.58815 68.8656 7.72532 65.385C7.39993 63.9944 7.14908 62.4297 7.17774 61.226L7.17845 61.1962V61.1665V21.2432L7.55673 21.2233C7.55819 21.2232 7.55966 21.2231 7.56112 21.2231C23.2745 20.4508 36.7282 17.83 47.959 4.80587C47.9595 4.80527 47.96 4.80466 47.9605 4.80405L48.2373 4.48455L48.515 4.74835L48.5201 4.75323L48.5252 4.75808C53.6276 9.5506 59.2767 14.3995 66.2402 17.2509L66.2412 17.2513C73.5528 20.2415 81.9075 20.8795 89.2545 21.2414L89.2625 21.2418L89.6331 21.2588V61.2208V61.2852L89.6364 61.3495C89.7058 62.6944 89.344 64.6378 88.9077 66.2651C87.9123 69.7589 86.3226 73.0553 84.2082 76.0095L84.2013 76.0191L84.1946 76.0288C76.293 87.2923 62.3056 94.1492 48.8858 98.269Z" stroke="white" stroke-width="5"/>
</g>
<g filter="url(#filter1_d_2351_11422)">
<path fill-rule="evenodd" clip-rule="evenodd" d="M68.8521 31.3457L37.235 62.9809L28.0617 53.3182L23.7107 57.4697L34.987 69.3624L37.1262 71.5923L73.1124 35.606L68.8521 31.3457Z" fill="white"/>
</g>
<defs>
<filter id="filter0_di_2351_11422" x="0.675537" y="0.869141" width="95.4692" height="108" filterUnits="userSpaceOnUse" color-interpolation-filters="sRGB">
<feFlood flood-opacity="0" result="BackgroundImageFix"/>
<feColorMatrix in="SourceAlpha" type="matrix" values="0 0 0 0 0 0 0 0 0 0 0 0 0 0 0 0 0 0 127 0" result="hardAlpha"/>
<feOffset dy="4"/>
<feGaussianBlur stdDeviation="2"/>
<feComposite in2="hardAlpha" operator="out"/>
<feColorMatrix type="matrix" values="0 0 0 0 0 0 0 0 0 0 0 0 0 0 0 0 0 0 0.25 0"/>
<feBlend mode="normal" in2="BackgroundImageFix" result="effect1_dropShadow_2351_11422"/>
<feBlend mode="normal" in="SourceGraphic" in2="effect1_dropShadow_2351_11422" result="shape"/>
<feColorMatrix in="SourceAlpha" type="matrix" values="0 0 0 0 0 0 0 0 0 0 0 0 0 0 0 0 0 0 127 0" result="hardAlpha"/>
<feOffset dy="10"/>
<feGaussianBlur stdDeviation="2"/>
<feComposite in2="hardAlpha" operator="arithmetic" k2="-1" k3="1"/>
<feColorMatrix type="matrix" values="0 0 0 0 0 0 0 0 0 0 0 0 0 0 0 0 0 0 0.3 0"/>
<feBlend mode="normal" in2="shape" result="effect2_innerShadow_2351_11422"/>
</filter>
<filter id="filter1_d_2351_11422" x="19.7107" y="31.3457" width="57.4019" height="48.2461" filterUnits="userSpaceOnUse" color-interpolation-filters="sRGB">
<feFlood flood-opacity="0" result="BackgroundImageFix"/>
<feColorMatrix in="SourceAlpha" type="matrix" values="0 0 0 0 0 0 0 0 0 0 0 0 0 0 0 0 0 0 127 0" result="hardAlpha"/>
<feOffset dy="4"/>
<feGaussianBlur stdDeviation="2"/>
<feComposite in2="hardAlpha" operator="out"/>
<feColorMatrix type="matrix" values="0 0 0 0 0 0 0 0 0 0 0 0 0 0 0 0 0 0 0.25 0"/>
<feBlend mode="normal" in2="BackgroundImageFix" result="effect1_dropShadow_2351_11422"/>
<feBlend mode="normal" in="SourceGraphic" in2="effect1_dropShadow_2351_11422" result="shape"/>
</filter>
</defs>
</svg>
