<svg width="57" height="56" viewBox="0 0 57 56" fill="none" xmlns="http://www.w3.org/2000/svg">
<mask id="mask0_2351_11904" style="mask-type:alpha" maskUnits="userSpaceOnUse" x="0" y="0" width="57" height="56">
<rect x="0.730469" width="56" height="56" fill="#D9D9D9"/>
</mask>
<g mask="url(#mask0_2351_11904)">
<path d="M21.9101 32.3076H43.7174L36.4753 22.7946L30.929 29.8844L27.2674 25.3525L21.9101 32.3076ZM19.5318 40.833C18.3531 40.833 17.3554 40.4247 16.5388 39.608C15.7221 38.7913 15.3138 37.7936 15.3138 36.6149V10.0511C15.3138 8.87237 15.7221 7.87467 16.5388 7.05801C17.3554 6.24134 18.3531 5.83301 19.5318 5.83301H46.0957C47.2744 5.83301 48.2721 6.24134 49.0888 7.05801C49.9054 7.87467 50.3138 8.87237 50.3138 10.0511V36.6149C50.3138 37.7936 49.9054 38.7913 49.0888 39.608C48.2721 40.4247 47.2744 40.833 46.0957 40.833H19.5318ZM19.5318 37.333H46.0957C46.2753 37.333 46.4398 37.2582 46.5892 37.1084C46.7389 36.9591 46.8138 36.7946 46.8138 36.6149V10.0511C46.8138 9.87142 46.7389 9.70692 46.5892 9.55759C46.4398 9.40787 46.2753 9.33301 46.0957 9.33301H19.5318C19.3522 9.33301 19.1877 9.40787 19.0383 9.55759C18.8886 9.70692 18.8138 9.87142 18.8138 10.0511V36.6149C18.8138 36.7946 18.8886 36.9591 19.0383 37.1084C19.1877 37.2582 19.3522 37.333 19.5318 37.333ZM11.3652 48.9997C10.1865 48.9997 9.18876 48.5913 8.37209 47.7747C7.55543 46.958 7.14709 45.9603 7.14709 44.7816V14.7178H10.6471V44.7816C10.6471 44.9613 10.722 45.1258 10.8717 45.2751C11.021 45.4248 11.1855 45.4997 11.3652 45.4997H41.429V48.9997H11.3652Z" fill="#333399"/>
</g>
</svg>
